<svg width="40" height="41" viewBox="0 0 40 41" fill="none" xmlns="http://www.w3.org/2000/svg">
<path d="M37.495 19.1725V10.7642C37.495 9.75047 36.6702 8.92578 35.6566 8.92578H4.34359C3.32984 8.92578 2.50516 9.75047 2.50516 10.7642V19.1725C0.510156 20.1576 0 21.1841 0 21.9754V30.8045C0 31.4729 0.54375 32.0166 1.21219 32.0166H2.57758C3.15336 32.0166 3.65328 31.6068 3.76625 31.0422L4.09047 29.4212C4.12099 29.2702 4.20271 29.1345 4.3218 29.0368C4.4409 28.9392 4.59006 28.8857 4.74406 28.8854H35.2559C35.4099 28.8857 35.5591 28.9392 35.6782 29.0369C35.7973 29.1345 35.879 29.2703 35.9095 29.4212L36.2337 31.0423C36.3467 31.6069 36.8466 32.0167 37.4224 32.0167H38.7878C39.4562 32.0167 40 31.473 40 30.8045V21.9754C40 21.1841 39.4898 20.1576 37.495 19.1725ZM3.67695 10.7642C3.67695 10.3966 3.97602 10.0977 4.34352 10.0977H35.6565C36.0241 10.0977 36.323 10.3967 36.323 10.7642V18.667C35.6345 18.4057 34.8241 18.151 33.8725 17.9085C33.6888 17.8619 33.5047 17.8169 33.3202 17.7734C33.5927 17.3675 33.7379 16.8895 33.7373 16.4005V14.5217C33.7373 13.1627 32.6317 12.057 31.2727 12.057H21.8787C21.1266 12.057 20.4524 12.3961 20 12.929C19.5476 12.3961 18.8734 12.057 18.1213 12.057H8.72727C7.3682 12.057 6.26258 13.1627 6.26258 14.5217V16.4005C6.26267 16.8895 6.40831 17.3673 6.68094 17.7731C6.49391 17.8173 6.30883 17.8622 6.12742 17.9084C5.17578 18.151 4.36555 18.4057 3.67695 18.6669V10.7642ZM32.5655 14.5218V16.4006C32.5659 16.6157 32.5125 16.8275 32.41 17.0167C32.3074 17.2058 32.1592 17.3662 31.9787 17.4832C28.7099 16.8375 24.7572 16.4745 20.5859 16.4434V14.5218H20.5859C20.5859 13.8089 21.1659 13.229 21.8787 13.229H31.2727C31.9855 13.229 32.5655 13.8089 32.5655 14.5218ZM19.414 14.5217V16.4433C15.2426 16.4745 11.2897 16.8375 8.02094 17.4832C7.84091 17.3657 7.69301 17.2052 7.59061 17.0161C7.48821 16.8271 7.43454 16.6155 7.43445 16.4005V14.5217C7.43445 13.8088 8.01437 13.2289 8.72727 13.2289H18.1212C18.8341 13.2289 19.414 13.8089 19.414 14.5217ZM38.8281 30.8045C38.8281 30.8152 38.8239 30.8255 38.8163 30.833C38.8088 30.8406 38.7985 30.8448 38.7878 30.8448H37.4224C37.4131 30.8448 37.4041 30.8416 37.3969 30.8357C37.3897 30.8298 37.3847 30.8215 37.3829 30.8124L37.0587 29.1914C36.8874 28.3351 36.1293 27.7135 35.2559 27.7135H4.74406C3.8707 27.7135 3.11258 28.3351 2.94133 29.1914L2.61711 30.8124C2.61526 30.8215 2.61031 30.8298 2.60311 30.8357C2.59591 30.8416 2.58689 30.8448 2.57758 30.8448H1.21219C1.2015 30.8448 1.19124 30.8406 1.18368 30.833C1.17612 30.8255 1.17188 30.8152 1.17188 30.8045V25.7541H33.1515C33.3069 25.7541 33.4559 25.6924 33.5658 25.5825C33.6757 25.4726 33.7374 25.3236 33.7374 25.1682C33.7374 25.0128 33.6757 24.8638 33.5658 24.7539C33.4559 24.644 33.3069 24.5823 33.1515 24.5823H1.17188V21.9755C1.17188 21.2046 2.54977 20.0298 6.41687 19.044C10.0378 18.121 14.8617 17.6127 20 17.6127C25.1383 17.6127 29.9622 18.121 33.583 19.044C37.4502 20.0297 38.828 21.2046 38.828 21.9755V24.5823H35.6564C35.501 24.5823 35.352 24.644 35.2421 24.7539C35.1322 24.8638 35.0705 25.0128 35.0705 25.1682C35.0705 25.3236 35.1322 25.4726 35.2421 25.5825C35.352 25.6924 35.501 25.7541 35.6564 25.7541H38.8281V30.8045Z" fill="#00577A"/>
</svg>
