<svg width="40" height="41" viewBox="0 0 40 41" fill="none" xmlns="http://www.w3.org/2000/svg">
<path d="M19.9972 17.9019C22.001 17.9019 23.8232 18.7222 25.1415 20.0405C26.4598 21.3646 27.2801 23.181 27.2801 25.1848V28.7705C27.2816 29.2557 27.1872 29.7364 27.0022 30.1849C26.8173 30.6335 26.5455 31.041 26.2024 31.3841C25.8593 31.7271 25.4518 31.999 25.0032 32.1839C24.5547 32.3689 24.074 32.4633 23.5888 32.4618H16.4056C15.9204 32.4633 15.4397 32.3689 14.9912 32.1839C14.5427 31.999 14.1351 31.7271 13.7921 31.3841C13.449 31.041 13.1772 30.6335 12.9922 30.1849C12.8072 29.7364 12.7128 29.2557 12.7144 28.7705V25.1848C12.7144 23.181 13.5346 21.3646 14.8529 20.0405C16.1712 18.7222 17.9934 17.9019 19.9914 17.9019H19.9972ZM24.2919 20.8901C23.7286 20.3249 23.0592 19.8766 22.3223 19.5706C21.5853 19.2647 20.7952 19.1072 19.9972 19.1072C19.1993 19.1072 18.4092 19.2647 17.6722 19.5706C16.9352 19.8766 16.2659 20.3249 15.7025 20.8901C15.1366 21.4531 14.6875 22.1223 14.3808 22.8593C14.0742 23.5962 13.916 24.3865 13.9155 25.1848V28.7705C13.9139 29.0987 13.9774 29.424 14.1023 29.7275C14.2272 30.0311 14.411 30.3068 14.6431 30.5389C14.8752 30.771 15.1509 30.9548 15.4545 31.0797C15.758 31.2046 16.0832 31.2681 16.4115 31.2665H23.5888C23.9166 31.2673 24.2412 31.2032 24.544 31.078C24.8469 30.9527 25.122 30.7688 25.3534 30.5368C25.5849 30.3048 25.7682 30.0293 25.8927 29.7262C26.0172 29.423 26.0805 29.0982 26.079 28.7705V25.1848C26.079 23.5149 25.3993 21.9916 24.2919 20.8901ZM19.9972 8.47464C20.6003 8.47232 21.1979 8.5894 21.7556 8.81912C22.3132 9.04885 22.8199 9.38669 23.2464 9.81316C23.6728 10.2396 24.0107 10.7463 24.2404 11.3039C24.4701 11.8616 24.5872 12.4592 24.5849 13.0623C24.5864 13.6649 24.4688 14.2619 24.2387 14.8189C24.0086 15.3759 23.6707 15.8818 23.2443 16.3077C22.8179 16.7335 22.3115 17.0708 21.7542 17.3002C21.197 17.5296 20.5998 17.6464 19.9972 17.6441C19.3951 17.6457 18.7986 17.5282 18.242 17.2985C17.6854 17.0688 17.1797 16.7314 16.7539 16.3056C16.3282 15.8798 15.9907 15.3741 15.761 14.8175C15.5313 14.2609 15.4139 13.6644 15.4154 13.0623C15.4131 12.4597 15.53 11.8626 15.7593 11.3053C15.9887 10.748 16.326 10.2416 16.7519 9.81524C17.1777 9.38885 17.6837 9.05089 18.2407 8.82082C18.7976 8.59074 19.3946 8.47309 19.9972 8.47464ZM22.3584 10.7011C22.0496 10.3898 21.6822 10.1428 21.2775 9.97422C20.8727 9.80563 20.4386 9.71884 20.0002 9.71884C19.5617 9.71884 19.1276 9.80563 18.7228 9.97422C18.3181 10.1428 17.9507 10.3898 17.6419 10.7011C17.3306 11.0099 17.0836 11.3773 16.915 11.782C16.7464 12.1868 16.6596 12.6209 16.6596 13.0594C16.6596 13.4978 16.7464 13.932 16.915 14.3367C17.0836 14.7415 17.3306 15.1088 17.6419 15.4177C17.9507 15.7289 18.3181 15.976 18.7228 16.1445C19.1276 16.3131 19.5617 16.3999 20.0002 16.3999C20.4386 16.3999 20.8727 16.3131 21.2775 16.1445C21.6822 15.976 22.0496 15.7289 22.3584 15.4177C22.6697 15.1088 22.9167 14.7415 23.0853 14.3367C23.2539 13.932 23.3407 13.4978 23.3407 13.0594C23.3407 12.6209 23.2539 12.1868 23.0853 11.782C22.9167 11.3773 22.6697 11.0099 22.3584 10.7011ZM28.7448 11.0937C29.2183 11.0929 29.6872 11.1856 30.1247 11.3664C30.5622 11.5472 30.9598 11.8126 31.2945 12.1473C31.6293 12.4821 31.8947 12.8796 32.0755 13.3171C32.2563 13.7547 32.349 14.2236 32.3482 14.697C32.3497 15.1709 32.2576 15.6404 32.0772 16.0786C31.8967 16.5169 31.6314 16.9151 31.2966 17.2505C30.9618 17.5858 30.564 17.8517 30.126 18.0329C29.6881 18.2141 29.2188 18.307 28.7448 18.3062C28.2704 18.3077 27.8004 18.2154 27.3618 18.0346C26.9232 17.8538 26.5248 17.588 26.1893 17.2525C25.8538 16.9171 25.5881 16.5186 25.4072 16.08C25.2264 15.6414 25.1341 15.1714 25.1356 14.697C25.1349 14.2231 25.2277 13.7537 25.4089 13.3158C25.5901 12.8779 25.856 12.4801 26.1914 12.1452C26.5268 11.8104 26.925 11.5451 27.3632 11.3647C27.8014 11.1842 28.2709 11.0921 28.7448 11.0937ZM30.4088 13.0272C30.0805 12.6931 29.6599 12.4647 29.2008 12.3715C28.7418 12.2782 28.2654 12.3243 27.8327 12.5037C27.4001 12.6832 27.0309 12.9879 26.7727 13.3787C26.5145 13.7695 26.379 14.2286 26.3836 14.697C26.379 15.1654 26.5145 15.6244 26.7727 16.0153C27.0309 16.4061 27.4001 16.7108 27.8327 16.8903C28.2654 17.0697 28.7418 17.1158 29.2008 17.0225C29.6599 16.9293 30.0805 16.7009 30.4088 16.3668C30.6295 16.1484 30.8048 15.8883 30.9244 15.6017C31.0439 15.315 31.1055 15.0076 31.1055 14.697C31.1055 14.3864 31.0439 14.0789 30.9244 13.7923C30.8048 13.5057 30.6295 13.2456 30.4088 13.0272Z" fill="#00577A"/>
<path d="M28.7447 18.7282C30.2915 18.7282 31.6977 19.3609 32.7172 20.3804C33.2428 20.9023 33.6599 21.523 33.9445 22.2068C34.229 22.8906 34.3755 23.624 34.3753 24.3646V27.0598C34.3769 27.4449 34.3022 27.8266 34.1555 28.1827C34.0088 28.5388 33.7931 28.8624 33.5207 29.1347C33.2484 29.4071 32.9248 29.6228 32.5687 29.7695C32.2126 29.9162 31.8309 29.9909 31.4458 29.9893H27.696C27.8129 29.6015 27.874 29.1991 27.8776 28.7941H31.4458C31.6735 28.7949 31.8991 28.7505 32.1095 28.6635C32.3199 28.5766 32.5111 28.4488 32.6718 28.2875C32.8325 28.1262 32.9597 27.9347 33.0459 27.7239C33.1322 27.5132 33.1758 27.2875 33.1742 27.0598V24.3646C33.1747 23.7822 33.0601 23.2054 32.8369 22.6674C32.6136 22.1295 32.2862 21.6409 31.8735 21.23C31.1672 20.5212 30.2411 20.0731 29.247 19.9592C28.2528 19.8454 27.2494 20.0723 26.4011 20.6031C26.1652 20.2752 25.9047 19.9657 25.6219 19.6773C26.5452 19.0573 27.6325 18.7268 28.7447 18.7282ZM11.2554 11.0938C11.7293 11.0922 12.1988 11.1843 12.637 11.3648C13.0752 11.5453 13.4734 11.8105 13.8088 12.1454C14.1442 12.4802 14.4101 12.878 14.5913 13.3159C14.7725 13.7538 14.8653 14.2232 14.8646 14.6971C14.8661 15.1715 14.7738 15.6415 14.593 16.0801C14.4121 16.5187 14.1464 16.9172 13.8109 17.2526C13.4755 17.5881 13.077 17.8539 12.6384 18.0347C12.1998 18.2156 11.7298 18.3079 11.2554 18.3063C10.781 18.3079 10.3109 18.2156 9.87235 18.0347C9.43377 17.8539 9.03528 17.5881 8.69982 17.2526C8.36437 16.9172 8.09858 16.5187 7.91775 16.0801C7.73692 15.6415 7.64462 15.1715 7.64616 14.6971C7.64539 14.2232 7.73826 13.7538 7.91944 13.3159C8.10061 12.878 8.36653 12.4802 8.70191 12.1454C9.03728 11.8105 9.43551 11.5453 9.87371 11.3648C10.3119 11.1843 10.7815 11.0922 11.2554 11.0938ZM12.9193 13.0273C12.5907 12.6952 12.1706 12.4687 11.7125 12.3766C11.2545 12.2845 10.7795 12.3311 10.348 12.5103C9.91661 12.6895 9.54841 12.9933 9.29049 13.3829C9.03256 13.7724 8.89661 14.2299 8.90001 14.6971C8.89661 15.1643 9.03256 15.6218 9.29049 16.0114C9.54841 16.4009 9.91661 16.7047 10.348 16.8839C10.7795 17.0631 11.2545 17.1097 11.7125 17.0176C12.1706 16.9255 12.5907 16.699 12.9193 16.3669C13.1401 16.1485 13.3153 15.8884 13.4349 15.6018C13.5545 15.3152 13.616 15.0077 13.616 14.6971C13.616 14.3865 13.5545 14.0791 13.4349 13.7924C13.3153 13.5058 13.1401 13.2457 12.9193 13.0273ZM11.2554 18.7282C12.4096 18.7282 13.4818 19.0797 14.3783 19.6773C14.0954 19.9657 13.8349 20.2752 13.599 20.6031C12.752 20.0681 11.7477 19.8387 10.7524 19.9527C9.75712 20.0667 8.83069 20.5174 8.12661 21.23C7.71351 21.6398 7.38543 22.1271 7.16121 22.664C6.93699 23.201 6.82104 23.7769 6.82003 24.3587V27.0598C6.81848 27.288 6.86227 27.5142 6.94888 27.7253C7.03548 27.9364 7.16317 28.1282 7.32452 28.2896C7.48588 28.4509 7.67768 28.5786 7.8888 28.6652C8.09992 28.7518 8.32614 28.7956 8.55432 28.7941H12.1225C12.1225 29.2042 12.1811 29.6026 12.2983 29.9893H8.54846C8.16381 29.9901 7.7828 29.9148 7.42735 29.7678C7.0719 29.6208 6.74902 29.4049 6.4773 29.1327C6.20558 28.8604 5.99038 28.5371 5.84407 28.1813C5.69776 27.8256 5.62323 27.4444 5.62478 27.0598V24.3646C5.62478 22.8119 6.25756 21.3999 7.27704 20.3804C7.79869 19.8566 8.41867 19.441 9.10139 19.1575C9.7841 18.8739 10.5161 18.728 11.2554 18.7282Z" fill="#00577A"/>
</svg>
