<svg width="36" height="45" viewBox="0 0 36 45" fill="none" xmlns="http://www.w3.org/2000/svg">
<rect width="35" height="44" fill="white"/>
<path d="M3.46 0H0V44.19H34.99V40.53H3.46V0Z" fill="#00577A"/>
<path d="M7.10986 0V37H35.1099V33.02C32.6099 34.49 29.7099 35.35 26.6099 35.35C17.3199 35.35 9.76986 27.79 9.76986 18.51C9.76986 9.23 17.3299 1.66 26.6099 1.66C29.7099 1.66 32.6099 2.52 35.1099 3.99V0H7.10986Z" fill="#00577A"/>
<path d="M31.4997 26.9401L30.4397 28.0001L29.3797 26.9401C28.3097 25.8701 26.8797 25.2701 25.3597 25.2701H24.1297V22.2601H25.3597C27.2097 22.2601 28.9697 22.8401 30.4397 23.9001C31.7997 22.9101 33.4197 22.3701 35.1297 22.2901V19.4901C33.7597 19.5801 32.4897 20.1401 31.5097 21.1201L30.4497 22.1801L29.3897 21.1201C28.3197 20.0501 26.8897 19.4501 25.3697 19.4501H24.1397V16.4401H25.3697C27.2197 16.4401 28.9797 17.0201 30.4497 18.0801C31.8097 17.0901 33.4297 16.5501 35.1397 16.4701V13.6701C33.7697 13.7601 32.4997 14.3201 31.5197 15.3001L30.4597 16.3601L29.3997 15.3001C28.3297 14.2301 26.8997 13.6301 25.3797 13.6301H24.1497V10.6201H25.3797C27.2297 10.6201 28.9897 11.2001 30.4597 12.2601C31.8197 11.2701 33.4397 10.7301 35.1497 10.6501V8.46008C32.8497 6.51008 29.8897 5.33008 26.6497 5.33008C19.3997 5.33008 13.4897 11.2301 13.4897 18.4901C13.4897 25.7501 19.3897 31.6501 26.6497 31.6501C29.8897 31.6501 32.8497 30.4701 35.1497 28.5201V25.3001C33.7797 25.3901 32.5097 25.9501 31.5297 26.9301L31.4997 26.9401Z" fill="#00577A"/>
</svg>
