<svg width="219" height="226" viewBox="0 0 219 226" fill="none" xmlns="http://www.w3.org/2000/svg">
<path d="M92.9309 212.023L109.355 226L125.779 212.023C145.544 194.966 172.268 185.727 200.383 185.727H218.478V146.639H200.383C168.37 146.639 137.471 154.93 111.86 171.039L109.634 172.461L107.406 171.039C81.5177 155.167 50.8965 146.639 18.8834 146.639H0.789062V185.727H18.8834C46.9992 185.727 73.4448 194.966 93.4878 212.023H92.9309Z" fill="#D5E5E9"/>
<path d="M92.9309 138.587L109.355 152.565L125.779 138.587C145.544 121.531 172.268 112.292 200.383 112.292H218.478V73.2035H200.383C168.37 73.2035 137.471 81.4949 111.86 97.604L109.634 99.0255L107.406 97.604C81.5177 81.7318 50.8965 73.2035 18.8834 73.2035H0.789062V112.292H18.8834C46.9992 112.292 73.4448 121.531 93.4878 138.587H92.9309Z" fill="#D5E5E9"/>
<path d="M92.9309 65.384L109.355 79.361L125.779 65.384C145.544 48.3273 172.268 39.0883 200.383 39.0883H218.478V0H200.383C168.37 0 137.471 8.29142 111.86 24.4005L109.634 25.822L107.406 24.4005C81.5177 8.52832 50.8965 0 18.8834 0H0.789062V39.0883H18.8834C46.9992 39.0883 73.4448 48.3273 93.4878 65.384H92.9309Z" fill="#D5E5E9"/>
</svg>
