<svg width="211" height="232" viewBox="0 0 211 232" fill="none" xmlns="http://www.w3.org/2000/svg">
<path d="M162.274 54.221C163.193 51.1904 164.113 48.1581 165.03 45.1259C165.396 43.9171 165.342 42.6202 164.878 41.4458C164.413 40.2715 163.565 39.2888 162.471 38.6573L143.08 27.4619C141.986 26.8301 140.71 26.5872 139.46 26.7727C138.209 26.9583 137.059 27.5614 136.195 28.4839L129.703 35.4163C141.636 38.6585 153.5 45.5076 162.274 54.221ZM94.2406 96.0862C94.8536 96.9079 95.4314 97.7553 95.9727 98.6259L100.895 106.543C104.309 110.964 109.007 113.764 114.487 114.648L124.437 114.973C125.705 115.014 126.951 115.123 128.173 115.291L134.856 115.509C135.974 115.618 136.778 114.225 136.125 113.311L126.957 98.5667C122.945 92.1134 116.553 88.4223 108.958 88.1747L91.6049 87.6078C90.4866 87.4996 89.6828 88.8911 90.3362 89.8061L94.2406 96.0862ZM173.275 120.421L157.771 119.915C153.947 119.79 150.326 119.083 146.971 117.838C146.461 119.463 145.555 121.084 144.434 122.374C147.166 124.648 149.571 127.415 151.578 130.643L160.745 145.387C161.38 146.406 161.869 147.509 162.2 148.663C167.953 140.103 171.795 130.157 173.275 120.421ZM144.873 80.2176L167.705 80.9634C157.411 57.3203 129.449 41.1773 103.828 44.0838L115.89 63.4846C122.351 73.8754 132.643 79.8177 144.873 80.2176ZM135.082 90.2006L140.138 98.3328C144.15 104.785 150.543 108.476 158.137 108.725L174.097 109.246C174.051 103.498 173.28 97.779 171.802 92.2239C171.304 92.255 170.805 92.2638 170.306 92.2503L144.508 91.4074C141.254 91.3013 138.106 90.8917 135.082 90.2006ZM68.4652 94.1458L51.1115 93.5789C49.9938 93.4705 49.1901 94.8625 49.843 95.7768L59.0105 110.521C62.3966 115.967 67.4814 119.435 73.5494 120.538L83.9805 120.879C85.4345 120.925 86.8843 121.061 88.3219 121.283L94.3626 121.48C95.4805 121.589 96.2847 120.197 95.6315 119.283L91.7229 112.997C91.1113 112.177 90.5347 111.331 89.9945 110.462L85.0714 102.544C81.0123 97.28 75.1955 94.3668 68.4652 94.1458ZM121.517 162.067C120.998 163.573 120.136 165.065 119.092 166.268C121.824 168.541 124.228 171.308 126.236 174.536L130.396 181.227C137.169 176.159 143.565 170.515 149.184 164.673L132.25 164.12C128.451 163.996 124.852 163.297 121.517 162.067ZM54.2334 128.906C54.7445 127.399 55.5981 125.903 56.6369 124.694C53.9083 122.422 51.5075 119.658 49.5023 116.432L40.5694 102.065C38.3262 109.848 36.6417 118.201 35.6434 126.592L43.4887 126.849C47.2926 126.974 50.8947 127.674 54.2334 128.906ZM102.532 76.7079L112.203 77.0235C110.068 74.7321 108.118 72.1883 106.382 69.3961L92.7533 47.4766C92.4918 47.051 92.2495 46.6139 92.0272 46.1666C86.4566 47.6707 81.0988 49.8737 76.0812 52.723L84.5324 66.3158C88.545 72.7682 94.9373 76.4588 102.532 76.7079ZM70.5984 177.599C70.3856 177.253 70.1888 176.897 70.0087 176.532C69.5624 176.563 69.1117 176.579 68.655 176.564L51.3023 175.997C46.8177 175.851 42.5464 174.875 38.6496 173.136C46.0487 196.928 64.3261 207.439 88.6288 201.914C85.1494 199.403 82.149 196.177 79.7657 192.344L70.5984 177.599ZM69.0208 165.374C70.139 165.483 70.943 164.091 70.29 163.177L66.3831 156.893C65.7711 156.072 65.194 155.225 64.6532 154.356L59.73 146.438C55.7052 141.225 49.8946 138.261 43.1232 138.039L34.7306 137.765C34.6629 139.32 34.6194 140.87 34.6048 142.408C34.55 148.252 34.8704 153.747 35.5442 158.868C36.6731 158.956 37.7484 159.386 38.6269 160.1C42.2738 163.059 46.6611 164.643 51.6683 164.807L69.0208 165.374ZM101.746 170.351L91.7947 170.027C90.5441 169.985 89.2965 169.879 88.0569 169.708L81.3749 169.49C80.2557 169.381 79.453 170.773 80.106 171.688L89.2735 186.432C91.9295 190.704 95.5114 193.718 99.9221 195.392C100.984 195.795 101.898 196.513 102.542 197.449C108.542 194.975 115.272 191.398 121.179 187.609L116.727 180.449C113.259 174.87 108.011 171.362 101.746 170.351ZM79.5755 85.0121C80.1241 83.3948 81.0655 81.794 82.2101 80.5311C79.4604 78.2506 77.042 75.4723 75.0246 72.2274L66.8192 59.0299C59.1324 65.1874 52.4475 73.4997 47.9194 82.7637C49.0823 82.474 50.2799 82.3476 51.4777 82.3881L68.8307 82.9547C72.6342 83.08 76.2366 83.7799 79.5755 85.0121ZM132.615 152.93L149.969 153.497C151.087 153.605 151.891 152.214 151.237 151.299L142.07 136.554L142.069 136.554C138.622 131.016 133.424 127.478 127.087 126.457L117.137 126.132C115.887 126.091 114.639 125.984 113.4 125.814L106.717 125.595C105.599 125.487 104.795 126.879 105.448 127.794L108.978 133.47C109.745 134.458 110.461 135.486 111.123 136.549L116.379 145.003C120.387 149.923 126.05 152.715 132.615 152.93ZM64.9933 133.7L68.899 139.981C69.5114 140.803 70.089 141.65 70.6302 142.52L75.5533 150.438C78.9663 154.858 83.6638 157.658 89.1427 158.542L99.0937 158.867C100.345 158.908 101.592 159.014 102.832 159.185L109.514 159.403C110.631 159.511 111.435 158.119 110.782 157.206L107.252 151.528C106.485 150.539 105.769 149.512 105.108 148.45L99.8508 139.995C96.5741 135.961 92.1811 133.362 87.0778 132.444L76.6443 132.103C75.1917 132.056 73.7433 131.921 72.3069 131.699L66.2624 131.502C65.1435 131.393 64.3403 132.785 64.9933 133.7Z" fill="white" fill-opacity="0.6"/>
</svg>
