<svg width="1191" height="1601" viewBox="0 0 1191 1601" fill="none" xmlns="http://www.w3.org/2000/svg">
<g clip-path="url(#clip0_265_167)">
<path d="M591.827 -2.45902C594.335 -5.40118 593.983 -9.81933 591.041 -12.3272C588.099 -14.8352 583.681 -14.4831 581.173 -11.541L586.5 -7L591.827 -2.45902ZM567.955 3.5355C565.367 6.40699 565.596 10.8332 568.468 13.4217C571.339 16.0102 575.765 15.7809 578.354 12.9094L573.155 8.22243L567.955 3.5355ZM550.6 42.087C553.338 39.3571 553.344 34.9249 550.614 32.1875C547.884 29.4501 543.452 29.444 540.715 32.1739L545.657 37.1304L550.6 42.087ZM511.954 59.4304C509.082 62.019 508.853 66.4452 511.442 69.3166C514.03 72.1881 518.456 72.4173 521.328 69.8287L516.641 64.6296L511.954 59.4304ZM490.662 96.186C493.65 93.734 494.086 89.3232 491.634 86.3343C489.182 83.3455 484.771 82.9102 481.782 85.3623L486.222 90.7741L490.662 96.186ZM450.516 109.92C447.427 112.246 446.809 116.635 449.135 119.723C451.461 122.811 455.85 123.429 458.938 121.104L454.727 115.512L450.516 109.92ZM426.335 144.732C429.504 142.517 430.278 138.153 428.064 134.984C425.85 131.815 421.486 131.041 418.317 133.255L422.326 138.994L426.335 144.732ZM385.359 155.557C382.128 157.679 381.229 162.019 383.352 165.25C385.474 168.482 389.814 169.38 393.045 167.258L389.202 161.407L385.359 155.557ZM359.267 188.916C362.541 186.861 363.529 182.54 361.474 179.266C359.419 175.991 355.098 175.003 351.824 177.059L355.545 182.987L359.267 188.916ZM317.896 198.053C314.599 200.072 313.563 204.382 315.582 207.679C317.601 210.976 321.91 212.012 325.207 209.993L321.552 204.023L317.896 198.053ZM291.091 230.84C294.388 228.82 295.423 224.511 293.403 221.214C291.383 217.918 287.074 216.883 283.777 218.902L287.434 224.871L291.091 230.84ZM249.701 240.056C246.434 242.123 245.461 246.447 247.528 249.714C249.595 252.981 253.919 253.954 257.186 251.887L253.444 245.972L249.701 240.056ZM223.85 273.663C227.048 271.49 227.88 267.137 225.707 263.939C223.535 260.741 219.182 259.909 215.984 262.082L219.917 267.872L223.85 273.663ZM183.105 285.69C180.036 288.041 179.452 292.434 181.802 295.504C184.153 298.573 188.546 299.157 191.616 296.807L187.361 291.249L183.105 285.69ZM161.309 322.063C164.158 319.449 164.349 315.021 161.736 312.172C159.123 309.323 154.695 309.132 151.846 311.746L156.578 316.904L161.309 322.063ZM123.45 341.183C120.962 344.142 121.344 348.558 124.303 351.046C127.262 353.534 131.678 353.152 134.166 350.193L128.808 345.688L123.45 341.183ZM111.794 381.768C113.738 378.426 112.605 374.141 109.264 372.197C105.922 370.253 101.637 371.385 99.6931 374.727L105.743 378.247L111.794 381.768ZM82.5361 412.35C81.2958 416.011 83.2587 419.985 86.9203 421.225C90.582 422.466 94.5558 420.503 95.796 416.841L89.1661 414.595L82.5361 412.35ZM87.1344 454.348C87.639 450.515 84.941 446.999 81.108 446.494C77.2751 445.989 73.7588 448.687 73.2542 452.52L80.1943 453.434L87.1344 454.348ZM71.3937 493.451C71.5254 497.315 74.7644 500.34 78.6281 500.209C82.4919 500.077 85.5173 496.838 85.3856 492.974L78.3896 493.213L71.3937 493.451ZM89.3392 531.841C88.7132 528.026 85.113 525.441 81.298 526.067C77.4831 526.693 74.898 530.293 75.524 534.108L82.4316 532.974L89.3392 531.841ZM84.2107 574.111C85.2063 577.847 89.0418 580.068 92.7774 579.072C96.5129 578.077 98.7341 574.241 97.7384 570.506L90.9746 572.309L84.2107 574.111ZM109.294 608.016C108.027 604.364 104.039 602.43 100.386 603.697C96.7338 604.964 94.8 608.952 96.067 612.605L102.68 610.31L109.294 608.016ZM110.256 649.923C111.728 653.498 115.819 655.203 119.394 653.732C122.969 652.26 124.674 648.169 123.202 644.594L116.729 647.259L110.256 649.923ZM139.292 681.196C137.659 677.691 133.494 676.174 129.99 677.807C126.486 679.44 124.969 683.605 126.602 687.109L132.947 684.152L139.292 681.196ZM144.297 723.285C146.057 726.727 150.274 728.091 153.716 726.332C157.158 724.572 158.522 720.355 156.763 716.913L150.53 720.099L144.297 723.285ZM175.249 751.752C173.388 748.364 169.132 747.125 165.744 748.986C162.355 750.847 161.117 755.103 162.977 758.491L169.113 755.122L175.249 751.752ZM183.071 793.977C185.017 797.317 189.302 798.447 192.643 796.501C195.983 794.555 197.114 790.269 195.167 786.929L189.119 790.453L183.071 793.977ZM215.258 820.585C213.243 817.286 208.935 816.245 205.636 818.26C202.337 820.275 201.295 824.583 203.311 827.882L209.284 824.234L215.258 820.585ZM224.807 862.347C226.882 865.609 231.208 866.571 234.47 864.496C237.732 862.421 238.694 858.095 236.619 854.833L230.713 858.59L224.807 862.347ZM258.111 888.032C255.986 884.802 251.645 883.908 248.416 886.033C245.186 888.159 244.291 892.499 246.417 895.729L252.264 891.88L258.111 888.032ZM268.654 929.005C270.823 932.205 275.176 933.041 278.376 930.871C281.576 928.702 282.411 924.349 280.242 921.149L274.448 925.077L268.654 929.005ZM303.232 954.607C301.023 951.434 296.66 950.652 293.487 952.86C290.314 955.069 289.532 959.431 291.741 962.604L297.486 958.606L303.232 954.607ZM314.286 994.631C316.527 997.781 320.898 998.517 324.048 996.276C327.198 994.034 327.934 989.664 325.692 986.514L319.989 990.573L314.286 994.631ZM349.415 1019.5C347.143 1016.37 342.765 1015.68 339.637 1017.95C336.51 1020.22 335.816 1024.6 338.088 1027.73L343.751 1023.61L349.415 1019.5ZM361.66 1059.88C363.959 1062.99 368.343 1063.65 371.451 1061.35C374.559 1059.05 375.215 1054.67 372.916 1051.56L367.288 1055.72L361.66 1059.88ZM396.481 1083.16C394.158 1080.07 389.77 1079.45 386.679 1081.77C383.589 1084.09 382.966 1088.48 385.289 1091.57L390.885 1087.37L396.481 1083.16ZM409.986 1124.19C412.331 1127.26 416.723 1127.85 419.797 1125.5C422.871 1123.16 423.462 1118.77 421.117 1115.69L415.551 1119.94L409.986 1124.19ZM445.277 1147.15C442.913 1144.09 438.516 1143.53 435.458 1145.89C432.399 1148.26 431.836 1152.66 434.201 1155.71L439.739 1151.43L445.277 1147.15ZM458.42 1186.85C460.802 1189.9 465.201 1190.43 468.246 1188.05C471.291 1185.67 471.828 1181.27 469.446 1178.23L463.933 1182.54L458.42 1186.85ZM494.528 1210.1C492.129 1207.07 487.727 1206.56 484.695 1208.96C481.664 1211.36 481.151 1215.76 483.55 1218.79L489.039 1214.45L494.528 1210.1ZM508.755 1250.48C511.169 1253.49 515.574 1253.99 518.593 1251.57C521.613 1249.16 522.104 1244.75 519.689 1241.73L514.222 1246.1L508.755 1250.48ZM544.118 1272.14C541.69 1269.13 537.283 1268.66 534.275 1271.09C531.266 1273.52 530.795 1277.93 533.223 1280.94L538.671 1276.54L544.118 1272.14ZM558.472 1312.08C560.913 1315.08 565.322 1315.53 568.32 1313.09C571.318 1310.65 571.77 1306.24 569.329 1303.25L563.9 1307.66L558.472 1312.08ZM595.33 1335.05C592.877 1332.06 588.467 1331.63 585.479 1334.08C582.49 1336.53 582.057 1340.94 584.51 1343.93L589.92 1339.49L595.33 1335.05ZM609.571 1374.34C612.034 1377.32 616.447 1377.74 619.426 1375.28C622.405 1372.81 622.823 1368.4 620.359 1365.42L614.965 1369.88L609.571 1374.34ZM645.485 1395.69C643.011 1392.72 638.597 1392.32 635.626 1394.79C632.656 1397.27 632.253 1401.68 634.727 1404.65L640.106 1400.17L645.485 1395.69ZM660.562 1435.57C663.046 1438.53 667.461 1438.92 670.424 1436.43C673.386 1433.95 673.774 1429.54 671.29 1426.57L665.926 1431.07L660.562 1435.57ZM697.782 1458.07C695.289 1455.11 690.872 1454.74 687.918 1457.23C684.963 1459.72 684.589 1464.14 687.082 1467.1L692.432 1462.58L697.782 1458.07ZM712.446 1497.07C714.948 1500.01 719.365 1500.38 722.313 1497.87C725.261 1495.37 725.622 1490.96 723.121 1488.01L717.784 1492.54L712.446 1497.07ZM748.608 1517.96C746.099 1515.02 741.681 1514.67 738.74 1517.18C735.799 1519.69 735.449 1524.11 737.958 1527.05L743.283 1522.5L748.608 1517.96ZM764.061 1557.56C766.578 1560.49 770.998 1560.83 773.932 1558.31C776.866 1555.8 777.205 1551.38 774.688 1548.44L769.375 1553L764.061 1557.56ZM801.365 1579.47C798.84 1576.54 794.42 1576.21 791.492 1578.74C788.564 1581.26 788.236 1585.68 790.761 1588.61L796.063 1584.04L801.365 1579.47ZM586.5 -7L581.173 -11.541C576.806 -6.41762 572.399 -1.39348 567.955 3.5355L573.155 8.22243L578.354 12.9094C582.883 7.88566 587.375 2.76423 591.827 -2.45902L586.5 -7ZM545.657 37.1304L540.715 32.1739C531.243 41.6198 521.645 50.6934 511.954 59.4304L516.641 64.6296L521.328 69.8287C531.186 60.9417 540.954 51.7066 550.6 42.087L545.657 37.1304ZM486.222 90.7741L481.782 85.3623C471.417 93.8659 460.982 102.038 450.516 109.92L454.727 115.512L458.938 121.104C469.547 113.114 480.135 104.822 490.662 96.186L486.222 90.7741ZM422.326 138.994L418.317 133.255C407.311 140.945 396.311 148.363 385.359 155.557L389.202 161.407L393.045 167.258C404.093 160.001 415.205 152.509 426.335 144.732L422.326 138.994ZM355.545 182.987L351.824 177.059C340.394 184.233 329.071 191.211 317.896 198.053L321.552 204.023L325.207 209.993C336.402 203.138 347.775 196.13 359.267 188.916L355.545 182.987ZM287.434 224.871L283.777 218.902C272.164 226.017 260.78 233.047 249.701 240.056L253.444 245.972L257.186 251.887C268.182 244.931 279.501 237.941 291.091 230.84L287.434 224.871ZM219.917 267.872L215.984 262.082C204.558 269.842 193.567 277.681 183.105 285.69L187.361 291.249L191.616 296.807C201.824 288.992 212.593 281.309 223.85 273.663L219.917 267.872ZM156.578 316.904L151.846 311.746C141.581 321.161 132.071 330.93 123.45 341.183L128.808 345.688L134.166 350.193C142.343 340.467 151.422 331.132 161.309 322.063L156.578 316.904ZM105.743 378.247L99.6931 374.727C92.8049 386.566 87.0378 399.059 82.5361 412.35L89.1661 414.595L95.796 416.841C99.9843 404.476 105.355 392.834 111.794 381.768L105.743 378.247ZM80.1943 453.434L73.2542 452.52C71.5488 465.473 70.904 479.087 71.3937 493.451L78.3896 493.213L85.3856 492.974C84.9205 479.332 85.5357 466.49 87.1344 454.348L80.1943 453.434ZM82.4316 532.974L75.524 534.108C77.6204 546.882 80.5029 560.2 84.2107 574.111L90.9746 572.309L97.7384 570.506C94.138 556.997 91.3554 544.127 89.3392 531.841L82.4316 532.974ZM102.68 610.31L96.067 612.605C100.236 624.623 104.959 637.054 110.256 649.923L116.729 647.259L123.202 644.594C117.998 631.95 113.37 619.766 109.294 608.016L102.68 610.31ZM132.947 684.152L126.602 687.109C132.06 698.822 137.954 710.876 144.297 723.285L150.53 720.099L156.763 716.913C150.492 704.645 144.674 692.745 139.292 681.196L132.947 684.152ZM169.113 755.122L162.977 758.491C169.312 770.026 176.007 781.851 183.071 793.977L189.119 790.453L195.167 786.929C188.159 774.9 181.523 763.178 175.249 751.752L169.113 755.122ZM209.284 824.234L203.311 827.882C210.176 839.123 217.339 850.609 224.807 862.347L230.713 858.59L236.619 854.833C229.195 843.163 222.077 831.75 215.258 820.585L209.284 824.234ZM252.264 891.88L246.417 895.729C253.581 906.613 260.991 917.703 268.654 929.005L274.448 925.077L280.242 921.149C272.614 909.898 265.238 898.86 258.111 888.032L252.264 891.88ZM297.486 958.606L291.741 962.604C299.049 973.104 306.563 983.778 314.286 994.631L319.989 990.573L325.692 986.514C317.996 975.699 310.511 965.065 303.232 954.607L297.486 958.606ZM343.751 1023.61L338.088 1027.73C345.756 1038.28 353.612 1049 361.66 1059.88L367.288 1055.72L372.916 1051.56C364.891 1040.71 357.058 1030.02 349.415 1019.5L343.751 1023.61ZM390.885 1087.37L385.289 1091.57C393.342 1102.29 401.574 1113.16 409.986 1124.19L415.551 1119.94L421.117 1115.69C412.724 1104.69 404.513 1093.85 396.481 1083.16L390.885 1087.37ZM439.739 1151.43L434.201 1155.71C442.123 1165.96 450.195 1176.34 458.42 1186.85L463.933 1182.54L469.446 1178.23C461.238 1167.74 453.182 1157.38 445.277 1147.15L439.739 1151.43ZM489.039 1214.45L483.55 1218.79C491.807 1229.22 500.208 1239.79 508.755 1250.48L514.222 1246.1L519.689 1241.73C511.157 1231.06 502.77 1220.52 494.528 1210.1L489.039 1214.45ZM538.671 1276.54L533.223 1280.94C541.509 1291.2 549.925 1301.59 558.472 1312.08L563.9 1307.66L569.329 1303.25C560.794 1292.76 552.391 1282.39 544.118 1272.14L538.671 1276.54ZM589.92 1339.49L584.51 1343.93C592.747 1353.97 601.1 1364.1 609.571 1374.34L614.965 1369.88L620.359 1365.42C611.899 1355.19 603.556 1345.07 595.33 1335.05L589.92 1339.49ZM640.106 1400.17L634.727 1404.65C643.225 1414.86 651.837 1425.16 660.562 1435.57L665.926 1431.07L671.29 1426.57C662.574 1416.18 653.973 1405.89 645.485 1395.69L640.106 1400.17ZM692.432 1462.58L687.082 1467.1C695.436 1477 703.891 1486.99 712.446 1497.07L717.784 1492.54L723.121 1488.01C714.573 1477.94 706.127 1467.96 697.782 1458.07L692.432 1462.58ZM743.283 1522.5L737.958 1527.05C746.561 1537.13 755.261 1547.3 764.061 1557.56L769.375 1553L774.688 1548.44C765.896 1538.19 757.203 1528.03 748.608 1517.96L743.283 1522.5ZM796.063 1584.04L790.761 1588.61C795.26 1593.83 799.785 1599.07 804.335 1604.34L809.632 1599.76L814.928 1595.18C810.382 1589.92 805.861 1584.68 801.365 1579.47L796.063 1584.04Z" fill="#D2BCAE" fill-opacity="0.1"/>
</g>
<defs>
<clipPath id="clip0_265_167">
<rect width="1191" height="1601" fill="white"/>
</clipPath>
</defs>
</svg>
