<svg width="423" height="1265" viewBox="0 0 423 1265" fill="none" xmlns="http://www.w3.org/2000/svg">
<path d="M9.61808 0.614965C6.03266 -0.830961 1.95396 0.903438 0.508031 4.48885C-0.937894 8.07427 0.796505 12.153 4.38192 13.5989L7 7.10693L9.61808 0.614965ZM23.3554 21.3188C26.9317 22.7872 31.0212 21.0784 32.4895 17.5021C33.9579 13.9258 32.2491 9.83632 28.6728 8.36797L26.0141 14.8434L23.3554 21.3188ZM65.1805 23.6382C61.6243 22.1218 57.5121 23.7754 55.9958 27.3316C54.4794 30.8878 56.133 34.9999 59.6892 36.5163L62.4348 30.0773L65.1805 23.6382ZM94.6903 51.7484C98.223 53.3187 102.36 51.7278 103.93 48.1951C105.5 44.6624 103.91 40.5256 100.377 38.9553L97.5336 45.3518L94.6903 51.7484ZM136.918 55.5984C133.415 53.962 129.249 55.4749 127.613 58.9775C125.977 62.4801 127.489 66.646 130.992 68.2824L133.955 61.9404L136.918 55.5984ZM165.283 84.74C168.75 86.4512 172.947 85.0282 174.659 81.5616C176.37 78.095 174.947 73.8975 171.48 72.1862L168.382 78.4631L165.283 84.74ZM207.25 90.4361C203.832 88.6304 199.597 89.9377 197.791 93.3561C195.985 96.7744 197.293 101.009 200.711 102.815L203.981 96.6256L207.25 90.4361ZM234.501 121.36C237.857 123.279 242.133 122.113 244.052 118.756C245.97 115.4 244.804 111.124 241.448 109.206L237.974 115.283L234.501 121.36ZM275.099 129.359C271.827 127.3 267.505 128.283 265.446 131.554C263.386 134.826 264.369 139.148 267.641 141.207L271.37 135.283L275.099 129.359ZM300.222 162.977C303.371 165.221 307.742 164.487 309.985 161.339C312.229 158.19 311.495 153.819 308.347 151.576L304.284 157.276L300.222 162.977ZM339.701 175.695C336.735 173.215 332.321 173.608 329.84 176.574C327.36 179.539 327.753 183.954 330.718 186.434L335.21 181.065L339.701 175.695ZM358.691 212.399C361.366 215.19 365.797 215.285 368.589 212.61C371.38 209.935 371.475 205.504 368.8 202.713L363.746 207.556L358.691 212.399ZM394.308 233.75C392.121 230.563 387.763 229.753 384.576 231.94C381.388 234.128 380.578 238.486 382.766 241.673L388.537 237.712L394.308 233.75ZM400.36 274.561C401.75 278.168 405.801 279.966 409.409 278.576C413.016 277.186 414.814 273.134 413.423 269.527L406.892 272.044L400.36 274.561ZM422.544 309.285C422.238 305.431 418.866 302.555 415.012 302.861C411.158 303.168 408.282 306.54 408.588 310.394L415.566 309.839L422.544 309.285ZM406.352 347.375C405.625 351.172 408.114 354.839 411.911 355.566C415.708 356.292 419.375 353.803 420.102 350.006L413.227 348.69L406.352 347.375ZM408.494 388.702C409.93 385.113 408.184 381.039 404.595 379.603C401.005 378.167 396.931 379.912 395.495 383.502L401.994 386.102L408.494 388.702ZM378.923 418.173C377.066 421.564 378.31 425.818 381.701 427.675C385.092 429.531 389.346 428.288 391.203 424.897L385.063 421.535L378.923 418.173ZM370.811 458.932C372.904 455.682 371.967 451.351 368.717 449.257C365.467 447.163 361.135 448.101 359.041 451.351L364.926 455.142L370.811 458.932ZM337.303 483.524C335.082 486.688 335.847 491.054 339.012 493.275C342.176 495.496 346.542 494.731 348.763 491.566L343.033 487.545L337.303 483.524ZM325.848 523.486C328.127 520.363 327.443 515.984 324.32 513.705C321.197 511.426 316.818 512.11 314.539 515.233L320.194 519.36L325.848 523.486ZM291.362 546.818C289.073 549.934 289.744 554.315 292.859 556.603C295.975 558.892 300.356 558.222 302.645 555.106L297.003 550.962L291.362 546.818ZM279.622 586.673C281.884 583.537 281.177 579.162 278.041 576.9C274.906 574.638 270.531 575.346 268.269 578.481L273.946 582.577L279.622 586.673ZM245.592 610.465C243.387 613.641 244.173 618.003 247.348 620.208C250.523 622.413 254.885 621.627 257.091 618.452L251.341 614.459L245.592 610.465ZM235.282 650.697C237.404 647.465 236.504 643.125 233.273 641.003C230.041 638.881 225.701 639.78 223.579 643.012L229.43 646.854L235.282 650.697ZM202.495 676.262C200.481 679.562 201.523 683.87 204.823 685.884C208.123 687.898 212.431 686.856 214.445 683.556L208.47 679.909L202.495 676.262ZM194.817 717.14C196.7 713.763 195.489 709.5 192.113 707.617C188.737 705.733 184.473 706.944 182.59 710.32L188.703 713.73L194.817 717.14ZM164.097 745.262C162.367 748.719 163.768 752.924 167.225 754.654C170.682 756.384 174.888 754.984 176.617 751.526L170.357 748.394L164.097 745.262ZM160.107 786.646C161.663 783.107 160.056 778.976 156.517 777.42C152.978 775.864 148.848 777.472 147.292 781.011L153.699 783.828L160.107 786.646ZM132.386 817.504C131.022 821.121 132.848 825.159 136.465 826.524C140.082 827.888 144.121 826.062 145.485 822.444L138.936 819.974L132.386 817.504ZM132.849 859.036C134.006 855.347 131.953 851.419 128.264 850.262C124.575 849.105 120.647 851.158 119.491 854.847L126.17 856.942L132.849 859.036ZM108.746 893.02C107.809 896.77 110.091 900.57 113.842 901.507C117.593 902.443 121.392 900.161 122.329 896.41L115.537 894.715L108.746 893.02ZM114.087 934.234C114.796 930.434 112.289 926.778 108.489 926.07C104.688 925.361 101.033 927.867 100.324 931.668L107.206 932.951L114.087 934.234ZM94.2735 970.587C93.7947 974.424 96.5165 977.922 100.353 978.4C104.189 978.879 107.687 976.157 108.166 972.321L101.22 971.454L94.2735 970.587ZM104.517 1010.96C104.766 1007.1 101.84 1003.77 97.9816 1003.52C94.1236 1003.28 90.7945 1006.2 90.5459 1010.06L97.5314 1010.51L104.517 1010.96ZM89.156 1049.64C89.1321 1053.51 92.2467 1056.66 96.1126 1056.69C99.9785 1056.71 103.132 1053.6 103.156 1049.73L96.1558 1049.69L89.156 1049.64ZM103.993 1088.21C103.803 1084.35 100.518 1081.37 96.657 1081.56C92.7957 1081.75 89.8199 1085.04 90.0104 1088.9L97.0019 1088.55L103.993 1088.21ZM93.0507 1128.65C93.4478 1132.5 96.8871 1135.29 100.733 1134.89C104.578 1134.5 107.374 1131.06 106.977 1127.21L100.014 1127.93L93.0507 1128.65ZM111.88 1165.32C111.293 1161.5 107.719 1158.88 103.898 1159.46C100.077 1160.05 97.4553 1163.63 98.0428 1167.45L104.962 1166.38L111.88 1165.32ZM104.99 1206.43C105.756 1210.21 109.45 1212.66 113.239 1211.9C117.028 1211.13 119.478 1207.44 118.711 1203.65L111.851 1205.04L104.99 1206.43ZM127.235 1241.44C126.303 1237.69 122.506 1235.4 118.754 1236.34C115.002 1237.27 112.715 1241.06 113.647 1244.82L120.441 1243.13L127.235 1241.44ZM7 7.10693L4.38192 13.5989C10.797 16.186 17.1212 18.7592 23.3554 21.3188L26.0141 14.8434L28.6728 8.36797C22.4109 5.79695 16.0596 3.21271 9.61808 0.614965L7 7.10693ZM62.4348 30.0773L59.6892 36.5163C71.7222 41.6473 83.3863 46.7238 94.6903 51.7484L97.5336 45.3518L100.377 38.9553C89.0048 33.9004 77.2755 28.7956 65.1805 23.6382L62.4348 30.0773ZM133.955 61.9404L130.992 68.2824C142.866 73.83 154.293 79.3146 165.283 84.74L168.382 78.4631L171.48 72.1862C160.394 66.7139 148.878 61.1859 136.918 55.5984L133.955 61.9404ZM203.981 96.6256L200.711 102.815C212.558 109.073 223.814 115.253 234.501 121.36L237.974 115.283L241.448 109.206C230.616 103.015 219.224 96.7609 207.25 90.4361L203.981 96.6256ZM271.37 135.283L267.641 141.207C279.326 148.564 290.173 155.817 300.222 162.977L304.284 157.276L308.347 151.576C298.06 144.246 286.989 136.844 275.099 129.359L271.37 135.283ZM335.21 181.065L330.718 186.434C341.223 195.221 350.518 203.869 358.691 212.399L363.746 207.556L368.8 202.713C360.231 193.77 350.553 184.773 339.701 175.695L335.21 181.065ZM388.537 237.712L382.766 241.673C390.401 252.796 396.19 263.74 400.36 274.561L406.892 272.044L413.423 269.527C408.825 257.595 402.503 245.689 394.308 233.75L388.537 237.712ZM415.566 309.839L408.588 310.394C409.558 322.607 408.739 334.897 406.352 347.375L413.227 348.69L420.102 350.006C422.7 336.43 423.624 322.877 422.544 309.285L415.566 309.839ZM401.994 386.102L395.495 383.502C390.959 394.84 385.382 406.375 378.923 418.173L385.063 421.535L391.203 424.897C397.873 412.713 403.708 400.665 408.494 388.702L401.994 386.102ZM364.926 455.142L359.041 451.351C352.273 461.859 344.992 472.568 337.303 483.524L343.033 487.545L348.763 491.566C356.525 480.506 363.916 469.637 370.811 458.932L364.926 455.142ZM320.194 519.36L314.539 515.233C307.017 525.542 299.272 536.049 291.362 546.818L297.003 550.962L302.645 555.106C310.537 544.362 318.309 533.818 325.848 523.486L320.194 519.36ZM273.946 582.577L268.269 578.481C260.747 588.906 253.165 599.562 245.592 610.465L251.341 614.459L257.091 618.452C264.604 607.634 272.136 597.048 279.622 586.673L273.946 582.577ZM229.43 646.854L223.579 643.012C216.464 653.846 209.417 664.924 202.495 676.262L208.47 679.909L214.445 683.556C221.277 672.364 228.241 661.417 235.282 650.697L229.43 646.854ZM188.703 713.73L182.59 710.32C176.239 721.706 170.058 733.348 164.097 745.262L170.357 748.394L176.617 751.526C182.478 739.812 188.561 728.355 194.817 717.14L188.703 713.73ZM153.699 783.828L147.292 781.011C142.06 792.909 137.076 805.069 132.386 817.504L138.936 819.974L145.485 822.444C150.083 810.254 154.972 798.326 160.107 786.646L153.699 783.828ZM126.17 856.942L119.491 854.847C115.585 867.303 111.99 880.023 108.746 893.02L115.537 894.715L122.329 896.41C125.504 883.689 129.024 871.235 132.849 859.036L126.17 856.942ZM107.206 932.951L100.324 931.668C97.9527 944.386 95.9249 957.355 94.2735 970.587L101.22 971.454L108.166 972.321C109.782 959.372 111.766 946.679 114.087 934.234L107.206 932.951ZM97.5314 1010.51L90.5459 1010.06C89.7113 1023.01 89.2389 1036.2 89.156 1049.64L96.1558 1049.69L103.156 1049.73C103.237 1036.56 103.7 1023.64 104.517 1010.96L97.5314 1010.51ZM97.0019 1088.55L90.0104 1088.9C90.653 1101.92 91.6591 1115.17 93.0507 1128.65L100.014 1127.93L106.977 1127.21C105.611 1113.98 104.624 1100.98 103.993 1088.21L97.0019 1088.55ZM104.962 1166.38L98.0428 1167.45C100.009 1180.24 102.319 1193.23 104.99 1206.43L111.851 1205.04L118.711 1203.65C116.084 1190.67 113.813 1177.89 111.88 1165.32L104.962 1166.38ZM120.441 1243.13L113.647 1244.82C115.26 1251.31 116.958 1257.85 118.744 1264.44L125.5 1262.61L132.256 1260.78C130.496 1254.28 128.823 1247.84 127.235 1241.44L120.441 1243.13Z" fill="#D2BCAE" fill-opacity="0.1"/>
</svg>
