<svg width="662" height="347" viewBox="0 0 662 347" fill="none" xmlns="http://www.w3.org/2000/svg">
<g clip-path="url(#clip0_295_11)">
<path d="M212.618 -837.385C209.033 -838.831 204.954 -837.097 203.508 -833.511C202.062 -829.926 203.797 -825.847 207.382 -824.401L210 -830.893L212.618 -837.385ZM226.355 -816.681C229.932 -815.213 234.021 -816.922 235.49 -820.498C236.958 -824.074 235.249 -828.164 231.673 -829.632L229.014 -823.157L226.355 -816.681ZM268.18 -814.362C264.624 -815.878 260.512 -814.225 258.996 -810.668C257.479 -807.112 259.133 -803 262.689 -801.484L265.435 -807.923L268.18 -814.362ZM297.69 -786.252C301.223 -784.681 305.36 -786.272 306.93 -789.805C308.5 -793.338 306.91 -797.474 303.377 -799.045L300.534 -792.648L297.69 -786.252ZM339.918 -782.402C336.415 -784.038 332.249 -782.525 330.613 -779.023C328.977 -775.52 330.489 -771.354 333.992 -769.718L336.955 -776.06L339.918 -782.402ZM368.283 -753.26C371.75 -751.549 375.947 -752.972 377.659 -756.438C379.37 -759.905 377.947 -764.103 374.48 -765.814L371.382 -759.537L368.283 -753.26ZM410.25 -747.564C406.832 -749.37 402.597 -748.062 400.791 -744.644C398.985 -741.226 400.293 -736.991 403.711 -735.185L406.981 -741.374L410.25 -747.564ZM437.501 -716.64C440.857 -714.721 445.133 -715.887 447.052 -719.244C448.97 -722.6 447.804 -726.876 444.448 -728.794L440.974 -722.717L437.501 -716.64ZM478.099 -708.641C474.827 -710.7 470.505 -709.717 468.446 -706.446C466.386 -703.174 467.369 -698.852 470.641 -696.793L474.37 -702.717L478.099 -708.641ZM503.222 -675.023C506.371 -672.779 510.742 -673.513 512.985 -676.661C515.229 -679.81 514.495 -684.181 511.347 -686.424L507.284 -680.724L503.222 -675.023ZM542.701 -662.305C539.735 -664.785 535.321 -664.392 532.84 -661.426C530.36 -658.461 530.753 -654.046 533.718 -651.566L538.21 -656.935L542.701 -662.305ZM561.691 -625.601C564.366 -622.81 568.797 -622.715 571.589 -625.39C574.38 -628.065 574.475 -632.496 571.8 -635.287L566.746 -630.444L561.691 -625.601ZM597.308 -604.25C595.121 -607.437 590.763 -608.247 587.576 -606.06C584.388 -603.872 583.578 -599.514 585.766 -596.327L591.537 -600.288L597.308 -604.25ZM603.36 -563.439C604.75 -559.832 608.801 -558.034 612.409 -559.424C616.016 -560.814 617.814 -564.866 616.423 -568.473L609.892 -565.956L603.36 -563.439ZM625.544 -528.715C625.238 -532.569 621.866 -535.445 618.012 -535.139C614.158 -534.832 611.282 -531.46 611.588 -527.606L618.566 -528.161L625.544 -528.715ZM609.352 -490.625C608.625 -486.828 611.114 -483.161 614.911 -482.434C618.708 -481.708 622.375 -484.197 623.102 -487.994L616.227 -489.31L609.352 -490.625ZM611.494 -449.298C612.93 -452.887 611.184 -456.961 607.595 -458.397C604.005 -459.833 599.931 -458.088 598.495 -454.498L604.994 -451.898L611.494 -449.298ZM581.923 -419.827C580.066 -416.436 581.31 -412.182 584.701 -410.325C588.092 -408.469 592.346 -409.712 594.203 -413.103L588.063 -416.465L581.923 -419.827ZM573.811 -379.068C575.904 -382.318 574.967 -386.649 571.717 -388.743C568.467 -390.837 564.135 -389.899 562.041 -386.649L567.926 -382.858L573.811 -379.068ZM540.303 -354.476C538.082 -351.312 538.847 -346.946 542.012 -344.725C545.176 -342.504 549.542 -343.269 551.763 -346.434L546.033 -350.455L540.303 -354.476ZM528.848 -314.514C531.127 -317.637 530.443 -322.016 527.32 -324.295C524.197 -326.574 519.818 -325.89 517.539 -322.767L523.194 -318.64L528.848 -314.514ZM494.362 -291.182C492.073 -288.066 492.744 -283.685 495.859 -281.397C498.975 -279.108 503.356 -279.778 505.645 -282.894L500.003 -287.038L494.362 -291.182ZM482.622 -251.327C484.884 -254.463 484.177 -258.838 481.041 -261.1C477.906 -263.362 473.531 -262.654 471.269 -259.519L476.946 -255.423L482.622 -251.327ZM448.592 -227.535C446.387 -224.359 447.173 -219.997 450.348 -217.792C453.523 -215.587 457.885 -216.373 460.091 -219.548L454.341 -223.541L448.592 -227.535ZM438.282 -187.303C440.404 -190.535 439.504 -194.875 436.273 -196.997C433.041 -199.119 428.701 -198.22 426.579 -194.988L432.43 -191.146L438.282 -187.303ZM405.495 -161.738C403.481 -158.438 404.523 -154.13 407.823 -152.116C411.123 -150.102 415.431 -151.144 417.445 -154.444L411.47 -158.091L405.495 -161.738ZM397.817 -120.86C399.7 -124.237 398.489 -128.5 395.113 -130.383C391.737 -132.267 387.473 -131.056 385.59 -127.68L391.703 -124.27L397.817 -120.86ZM367.097 -92.738C365.367 -89.2805 366.768 -85.0755 370.225 -83.3457C373.682 -81.6159 377.888 -83.0164 379.617 -86.4738L373.357 -89.6059L367.097 -92.738ZM363.107 -51.3543C364.663 -54.8933 363.056 -59.0237 359.517 -60.5798C355.978 -62.1358 351.848 -60.5283 350.292 -56.9893L356.699 -54.1718L363.107 -51.3543ZM335.386 -20.4964C334.022 -16.8791 335.848 -12.8407 339.465 -11.4764C343.082 -10.112 347.121 -11.9383 348.485 -15.5555L341.936 -18.026L335.386 -20.4964ZM335.849 21.036C337.006 17.3471 334.953 13.419 331.264 12.2622C327.575 11.1055 323.647 13.1582 322.491 16.847L329.17 18.9415L335.849 21.036ZM311.746 55.0196C310.809 58.7705 313.091 62.5702 316.842 63.5065C320.593 64.4428 324.392 62.1611 325.329 58.4103L318.537 56.7149L311.746 55.0196ZM317.087 96.2341C317.796 92.4336 315.289 88.7782 311.489 88.0695C307.688 87.3609 304.033 89.8673 303.324 93.6678L310.206 94.951L317.087 96.2341ZM297.274 132.587C296.795 136.424 299.516 139.922 303.353 140.4C307.189 140.879 310.687 138.157 311.166 134.321L304.22 133.454L297.274 132.587ZM307.517 172.96C307.766 169.102 304.84 165.773 300.982 165.524C297.124 165.275 293.795 168.201 293.546 172.059L300.531 172.51L307.517 172.96ZM292.156 211.643C292.132 215.509 295.247 218.662 299.113 218.686C302.979 218.71 306.132 215.596 306.156 211.73L299.156 211.686L292.156 211.643ZM306.993 250.21C306.803 246.348 303.518 243.372 299.657 243.563C295.796 243.753 292.82 247.038 293.01 250.899L300.002 250.554L306.993 250.21ZM296.051 290.65C296.448 294.496 299.887 297.291 303.733 296.894C307.578 296.497 310.374 293.058 309.977 289.212L303.014 289.931L296.051 290.65ZM314.88 327.32C314.293 323.499 310.719 320.877 306.898 321.465C303.077 322.052 300.455 325.626 301.043 329.447L307.962 328.384L314.88 327.32ZM307.99 368.425C308.756 372.214 312.45 374.665 316.239 373.898C320.028 373.131 322.478 369.438 321.711 365.648L314.851 367.037L307.99 368.425ZM330.235 403.443C329.303 399.691 325.506 397.405 321.754 398.336C318.002 399.268 315.715 403.065 316.647 406.817L323.441 405.13L330.235 403.443ZM210 -830.893L207.382 -824.401C213.797 -821.814 220.121 -819.241 226.355 -816.681L229.014 -823.157L231.673 -829.632C225.411 -832.203 219.06 -834.787 212.618 -837.385L210 -830.893ZM265.435 -807.923L262.689 -801.484C274.722 -796.353 286.386 -791.276 297.69 -786.252L300.534 -792.648L303.377 -799.045C292.005 -804.1 280.275 -809.204 268.18 -814.362L265.435 -807.923ZM336.955 -776.06L333.992 -769.718C345.866 -764.17 357.293 -758.685 368.283 -753.26L371.382 -759.537L374.48 -765.814C363.394 -771.286 351.878 -776.814 339.918 -782.402L336.955 -776.06ZM406.981 -741.374L403.711 -735.185C415.558 -728.927 426.814 -722.747 437.501 -716.64L440.974 -722.717L444.448 -728.794C433.616 -734.985 422.224 -741.239 410.25 -747.564L406.981 -741.374ZM474.37 -702.717L470.641 -696.793C482.326 -689.436 493.173 -682.183 503.222 -675.023L507.284 -680.724L511.347 -686.424C501.06 -693.754 489.989 -701.156 478.099 -708.641L474.37 -702.717ZM538.21 -656.935L533.718 -651.566C544.223 -642.779 553.518 -634.131 561.691 -625.601L566.746 -630.444L571.8 -635.287C563.231 -644.23 553.553 -653.227 542.701 -662.305L538.21 -656.935ZM591.537 -600.288L585.766 -596.327C593.401 -585.204 599.19 -574.26 603.36 -563.439L609.892 -565.956L616.423 -568.473C611.825 -580.405 605.503 -592.311 597.308 -604.25L591.537 -600.288ZM618.566 -528.161L611.588 -527.606C612.558 -515.393 611.739 -503.103 609.352 -490.625L616.227 -489.31L623.102 -487.994C625.7 -501.57 626.624 -515.123 625.544 -528.715L618.566 -528.161ZM604.994 -451.898L598.495 -454.498C593.959 -443.16 588.382 -431.625 581.923 -419.827L588.063 -416.465L594.203 -413.103C600.873 -425.287 606.708 -437.335 611.494 -449.298L604.994 -451.898ZM567.926 -382.858L562.041 -386.649C555.273 -376.141 547.992 -365.432 540.303 -354.476L546.033 -350.455L551.763 -346.434C559.525 -357.494 566.916 -368.363 573.811 -379.068L567.926 -382.858ZM523.194 -318.64L517.539 -322.767C510.017 -312.458 502.272 -301.951 494.362 -291.182L500.003 -287.038L505.645 -282.894C513.537 -293.638 521.309 -304.182 528.848 -314.514L523.194 -318.64ZM476.946 -255.423L471.269 -259.519C463.747 -249.094 456.165 -238.438 448.592 -227.535L454.341 -223.541L460.091 -219.548C467.604 -230.366 475.136 -240.952 482.622 -251.327L476.946 -255.423ZM432.43 -191.146L426.579 -194.988C419.464 -184.154 412.417 -173.076 405.495 -161.738L411.47 -158.091L417.445 -154.444C424.277 -165.636 431.241 -176.583 438.282 -187.303L432.43 -191.146ZM391.703 -124.27L385.59 -127.68C379.239 -116.294 373.058 -104.652 367.097 -92.738L373.357 -89.6059L379.617 -86.4738C385.478 -98.1877 391.561 -109.645 397.817 -120.86L391.703 -124.27ZM356.699 -54.1718L350.292 -56.9893C345.06 -45.091 340.076 -32.9312 335.386 -20.4964L341.936 -18.026L348.485 -15.5555C353.083 -27.7461 357.972 -39.6745 363.107 -51.3543L356.699 -54.1718ZM329.17 18.9415L322.491 16.847C318.585 29.303 314.99 42.0232 311.746 55.0196L318.537 56.7149L325.329 58.4103C328.504 45.6894 332.024 33.2354 335.849 21.036L329.17 18.9415ZM310.206 94.951L303.324 93.6678C300.953 106.386 298.925 119.355 297.274 132.587L304.22 133.454L311.166 134.321C312.782 121.372 314.766 108.679 317.087 96.2341L310.206 94.951ZM300.531 172.51L293.546 172.059C292.711 185.012 292.239 198.204 292.156 211.643L299.156 211.686L306.156 211.73C306.237 198.562 306.7 185.641 307.517 172.96L300.531 172.51ZM300.002 250.554L293.01 250.899C293.653 263.925 294.659 277.173 296.051 290.65L303.014 289.931L309.977 289.212C308.611 275.982 307.624 262.983 306.993 250.21L300.002 250.554ZM307.962 328.384L301.043 329.447C303.009 342.24 305.319 355.231 307.99 368.425L314.851 367.037L321.711 365.648C319.084 352.667 316.813 339.892 314.88 327.32L307.962 328.384ZM323.441 405.13L316.647 406.817C318.26 413.31 319.958 419.85 321.744 426.439L328.5 424.607L335.256 422.775C333.496 416.282 331.823 409.838 330.235 403.443L323.441 405.13Z" fill="#D2BCAE" fill-opacity="0.1"/>
</g>
<defs>
<clipPath id="clip0_295_11">
<rect width="662" height="347" fill="white"/>
</clipPath>
</defs>
</svg>
