<svg width="668" height="920" viewBox="0 0 668 920" fill="none" xmlns="http://www.w3.org/2000/svg">
<g clip-path="url(#clip0_279_23)">
<path d="M263.618 -284.385C260.033 -285.831 255.954 -284.096 254.508 -280.511C253.062 -276.925 254.797 -272.847 258.382 -271.401L261 -277.893L263.618 -284.385ZM277.795 -263.45C281.364 -261.965 285.462 -263.654 286.947 -267.224C288.432 -270.793 286.742 -274.891 283.173 -276.376L280.484 -269.913L277.795 -263.45ZM320.405 -260.382C316.871 -261.951 312.735 -260.358 311.167 -256.824C309.598 -253.291 311.191 -249.155 314.724 -247.586L317.565 -253.984L320.405 -260.382ZM350.281 -231.242C353.771 -229.579 357.948 -231.06 359.611 -234.55C361.274 -238.04 359.793 -242.218 356.303 -243.881L353.292 -237.561L350.281 -231.242ZM393.024 -225.654C389.591 -227.431 385.367 -226.09 383.589 -222.657C381.812 -219.224 383.153 -214.999 386.586 -213.222L389.805 -219.438L393.024 -225.654ZM421.003 -194.574C424.365 -192.665 428.637 -193.843 430.547 -197.204C432.456 -200.566 431.279 -204.839 427.917 -206.748L424.46 -200.661L421.003 -194.574ZM462.875 -185.791C459.611 -187.862 455.286 -186.894 453.215 -183.63C451.144 -180.365 452.111 -176.04 455.376 -173.969L459.126 -179.88L462.875 -185.791ZM488.234 -151.755C491.366 -149.489 495.742 -150.193 498.008 -153.325C500.273 -156.458 499.57 -160.834 496.437 -163.099L492.335 -157.427L488.234 -151.755ZM527.742 -138.682C524.79 -141.178 520.373 -140.808 517.877 -137.856C515.381 -134.904 515.75 -130.487 518.703 -127.991L523.222 -133.337L527.742 -138.682ZM547.847 -100.807C550.53 -98.0229 554.961 -97.9401 557.745 -100.622C560.53 -103.304 560.612 -107.736 557.93 -110.52L552.889 -105.664L547.847 -100.807ZM584.476 -79.205C582.187 -82.3202 577.806 -82.9895 574.69 -80.7C571.575 -78.4105 570.906 -74.0292 573.196 -70.914L578.836 -75.0595L584.476 -79.205ZM593.496 -37.9668C595.226 -34.5096 599.431 -33.1097 602.889 -34.84C606.346 -36.5702 607.746 -40.7755 606.015 -44.2326L599.756 -41.0997L593.496 -37.9668ZM620.727 -5.70768C619.727 -9.44221 615.889 -11.6593 612.155 -10.6597C608.42 -9.66005 606.203 -5.82228 607.203 -2.08775L613.965 -3.89771L620.727 -5.70768ZM613.12 35.8101C613.311 39.6714 616.596 42.6465 620.458 42.4553C624.319 42.2641 627.294 38.9789 627.103 35.1177L620.112 35.4639L613.12 35.8101ZM625.104 76.3123C625.647 72.4846 622.984 68.9416 619.157 68.3988C615.329 67.856 611.786 70.5189 611.243 74.3466L618.174 75.3295L625.104 76.3123ZM602.747 112.326C601.633 116.028 603.732 119.932 607.434 121.046C611.136 122.16 615.04 120.061 616.154 116.359L609.45 114.343L602.747 112.326ZM602.113 154.65C603.636 151.097 601.991 146.982 598.437 145.458C594.884 143.935 590.769 145.581 589.246 149.134L595.679 151.892L602.113 154.65ZM572.158 184.675C570.349 188.091 571.652 192.328 575.069 194.136C578.485 195.945 582.721 194.642 584.53 191.225L578.344 187.95L572.158 184.675ZM564.486 226.386C566.494 223.083 565.444 218.777 562.14 216.769C558.836 214.761 554.53 215.812 552.522 219.115L558.504 222.751L564.486 226.386ZM531.065 252.699C528.918 255.915 529.785 260.261 533.001 262.408C536.216 264.554 540.563 263.687 542.709 260.472L536.887 256.585L531.065 252.699ZM519.709 293.773C521.951 290.623 521.214 286.252 518.064 284.011C514.914 281.769 510.544 282.506 508.302 285.656L514.006 289.714L519.709 293.773ZM484.882 317.832C482.578 320.937 483.226 325.321 486.331 327.625C489.435 329.929 493.82 329.28 496.124 326.176L490.503 322.004L484.882 317.832ZM472.022 358.193C474.364 355.118 473.77 350.726 470.694 348.383C467.619 346.041 463.227 346.635 460.884 349.711L466.453 353.952L472.022 358.193ZM436.467 381.535C434.106 384.596 434.673 388.992 437.735 391.353C440.796 393.714 445.191 393.147 447.553 390.086L442.01 385.811L436.467 381.535ZM422.985 421.886C425.348 418.826 424.784 414.43 421.725 412.067C418.665 409.703 414.269 410.268 411.906 413.327L417.445 417.606L422.985 421.886ZM387.522 445.001C385.171 448.07 385.754 452.464 388.823 454.815C391.892 457.166 396.285 456.584 398.636 453.515L393.079 449.258L387.522 445.001ZM374.404 485.403C376.729 482.315 376.11 477.926 373.021 475.601C369.932 473.276 365.544 473.895 363.218 476.984L368.811 481.194L374.404 485.403ZM339.207 509.276C336.921 512.394 337.595 516.775 340.712 519.061C343.829 521.347 348.21 520.673 350.496 517.556L344.852 513.416L339.207 509.276ZM327.165 549.897C329.401 546.742 328.655 542.373 325.501 540.138C322.347 537.903 317.978 538.648 315.743 541.802L321.454 545.85L327.165 549.897ZM292.799 574.862C290.628 578.06 291.462 582.414 294.66 584.585C297.859 586.756 302.212 585.922 304.383 582.723L298.591 578.792L292.799 574.862ZM282.35 616.02C284.443 612.77 283.506 608.438 280.256 606.344C277.006 604.251 272.674 605.188 270.58 608.438L276.465 612.229L282.35 616.02ZM249.252 642.558C247.25 645.865 248.308 650.169 251.615 652.171C254.922 654.174 259.226 653.116 261.228 649.809L255.24 646.183L249.252 642.558ZM241.116 684.225C243.012 680.856 241.818 676.587 238.449 674.691C235.08 672.795 230.812 673.989 228.916 677.358L235.016 680.791L241.116 684.225ZM209.76 712.835C207.986 716.269 209.331 720.492 212.766 722.267C216.201 724.041 220.424 722.696 222.198 719.261L215.979 716.048L209.76 712.835ZM204.635 754.947C206.272 751.444 204.759 747.278 201.257 745.641C197.754 744.005 193.588 745.517 191.952 749.02L198.293 751.983L204.635 754.947ZM175.648 785.964C174.167 789.534 175.86 793.63 179.431 795.112C183.001 796.594 187.097 794.901 188.579 791.33L182.114 788.647L175.648 785.964ZM174.222 828.361C175.532 824.723 173.645 820.713 170.008 819.403C166.371 818.093 162.36 819.979 161.05 823.617L167.636 825.989L174.222 828.361ZM148.332 861.95C147.211 865.65 149.3 869.558 153 870.68C156.7 871.801 160.608 869.712 161.73 866.012L155.031 863.981L148.332 861.95ZM151.235 904.346C152.152 900.591 149.851 896.803 146.095 895.885C142.34 894.968 138.552 897.269 137.634 901.024L144.435 902.685L151.235 904.346ZM129.18 940.489C128.48 944.291 130.995 947.941 134.797 948.641C138.599 949.341 142.248 946.826 142.949 943.024L136.064 941.757L129.18 940.489ZM136.935 982.185C137.407 978.348 134.679 974.855 130.842 974.383C127.004 973.911 123.511 976.64 123.04 980.477L129.987 981.331L136.935 982.185ZM119.324 1020.87C119.089 1024.73 122.026 1028.05 125.885 1028.28C129.744 1028.52 133.063 1025.58 133.298 1021.72L126.311 1021.29L119.324 1020.87ZM132.107 1061.14C132.105 1057.27 128.969 1054.14 125.103 1054.14C121.237 1054.15 118.105 1057.28 118.107 1061.15L125.107 1061.14L132.107 1061.14ZM119.391 1101.84C119.632 1105.7 122.956 1108.63 126.814 1108.39C130.673 1108.15 133.605 1104.82 133.364 1100.97L126.377 1101.4L119.391 1101.84ZM137.001 1140.16C136.529 1136.32 133.035 1133.59 129.198 1134.06C125.361 1134.53 122.633 1138.03 123.105 1141.86L130.053 1141.01L137.001 1140.16ZM129.242 1181.95C129.938 1185.75 133.585 1188.27 137.388 1187.57C141.191 1186.88 143.709 1183.23 143.013 1179.43L136.127 1180.69L129.242 1181.95ZM151.236 1218.14C150.327 1214.38 146.545 1212.07 142.787 1212.98C139.029 1213.88 136.719 1217.67 137.627 1221.42L144.431 1219.78L151.236 1218.14ZM261 -277.893L258.382 -271.401C264.96 -268.748 271.43 -266.098 277.795 -263.45L280.484 -269.913L283.173 -276.376C276.76 -279.044 270.242 -281.714 263.618 -284.385L261 -277.893ZM317.565 -253.984L314.724 -247.586C327.015 -242.13 338.863 -236.683 350.281 -231.242L353.292 -237.561L356.303 -243.881C344.767 -249.378 332.804 -254.878 320.405 -260.382L317.565 -253.984ZM389.805 -219.438L386.586 -213.222C398.605 -206.998 410.072 -200.783 421.003 -194.574L424.46 -200.661L427.917 -206.748C416.819 -213.051 405.193 -219.352 393.024 -225.654L389.805 -219.438ZM459.126 -179.88L455.376 -173.969C467.061 -166.556 478.004 -159.152 488.234 -151.755L492.335 -157.427L496.437 -163.099C485.961 -170.675 474.782 -178.238 462.875 -185.791L459.126 -179.88ZM523.222 -133.337L518.703 -127.991C529.43 -118.921 539.126 -109.861 547.847 -100.807L552.889 -105.664L557.93 -110.52C548.85 -119.946 538.802 -129.33 527.742 -138.682L523.222 -133.337ZM578.836 -75.0595L573.196 -70.914C581.266 -59.9338 587.997 -48.9551 593.496 -37.9668L599.756 -41.0997L606.015 -44.2326C600.139 -55.9749 592.985 -67.628 584.476 -79.205L578.836 -75.0595ZM613.965 -3.89771L607.203 -2.08775C610.56 10.4554 612.49 23.0788 613.12 35.8101L620.112 35.4639L627.103 35.1177C626.425 21.4238 624.347 7.81784 620.727 -5.70768L613.965 -3.89771ZM618.174 75.3295L611.243 74.3466C609.47 86.8518 606.604 99.5046 602.747 112.326L609.45 114.343L616.154 116.359C620.191 102.938 623.221 89.5926 625.104 76.3123L618.174 75.3295ZM595.679 151.892L589.246 149.134C584.227 160.843 578.505 172.685 572.158 184.675L578.344 187.95L584.53 191.225C591.032 178.944 596.924 166.755 602.113 154.65L595.679 151.892ZM558.504 222.751L552.522 219.115C545.793 230.188 538.62 241.38 531.065 252.699L536.887 256.585L542.709 260.472C550.358 249.012 557.639 237.653 564.486 226.386L558.504 222.751ZM514.006 289.714L508.302 285.656C500.75 296.269 492.928 306.992 484.882 317.832L490.503 322.004L496.124 326.176C504.214 315.276 512.092 304.477 519.709 293.773L514.006 289.714ZM466.453 353.952L460.884 349.711C452.888 360.209 444.737 370.814 436.467 381.535L442.01 385.811L447.553 390.086C455.83 379.354 464.002 368.724 472.022 358.193L466.453 353.952ZM417.445 417.606L411.906 413.327C403.835 423.775 395.694 434.333 387.522 445.001L393.079 449.258L398.636 453.515C406.791 442.868 414.919 432.328 422.985 421.886L417.445 417.606ZM368.811 481.194L363.218 476.984C355.201 487.634 347.186 498.397 339.207 509.276L344.852 513.416L350.496 517.556C358.435 506.731 366.415 496.016 374.404 485.403L368.811 481.194ZM321.454 545.85L315.743 541.802C308.017 552.704 300.359 563.723 292.799 574.862L298.591 578.792L304.383 582.723C311.885 571.67 319.489 560.73 327.165 549.897L321.454 545.85ZM276.465 612.229L270.58 608.438C263.333 619.688 256.214 631.06 249.252 642.558L255.24 646.183L261.228 649.809C268.118 638.43 275.168 627.168 282.35 616.02L276.465 612.229ZM235.016 680.791L228.916 677.358C222.334 689.053 215.938 700.878 209.76 712.835L215.979 716.048L222.198 719.261C228.295 707.46 234.611 695.783 241.116 684.225L235.016 680.791ZM198.293 751.983L191.952 749.02C186.261 761.197 180.817 773.51 175.648 785.964L182.114 788.647L188.579 791.33C193.665 779.074 199.027 766.947 204.635 754.947L198.293 751.983ZM167.636 825.989L161.05 823.617C156.499 836.252 152.25 849.028 148.332 861.95L155.031 863.981L161.73 866.012C165.576 853.328 169.749 840.779 174.222 828.361L167.636 825.989ZM144.435 902.685L137.634 901.024C134.457 914.034 131.629 927.188 129.18 940.489L136.064 941.757L142.949 943.024C145.348 929.994 148.119 917.103 151.235 904.346L144.435 902.685ZM129.987 981.331L123.04 980.477C121.402 993.796 120.155 1007.26 119.324 1020.87L126.311 1021.29L133.298 1021.72C134.111 1008.4 135.332 995.224 136.935 982.185L129.987 981.331ZM125.107 1061.14L118.107 1061.15C118.114 1074.57 118.535 1088.14 119.391 1101.84L126.377 1101.4L133.364 1100.97C132.525 1087.55 132.114 1074.28 132.107 1061.14L125.107 1061.14ZM130.053 1141.01L123.105 1141.86C124.733 1155.1 126.772 1168.46 129.242 1181.95L136.127 1180.69L143.013 1179.43C140.592 1166.21 138.595 1153.12 137.001 1140.16L130.053 1141.01ZM144.431 1219.78L137.627 1221.42C139.232 1228.07 140.942 1234.74 142.758 1241.44L149.515 1239.61L156.271 1237.78C154.487 1231.2 152.81 1224.65 151.236 1218.14L144.431 1219.78Z" fill="#BDAD83" fill-opacity="0.1"/>
</g>
<defs>
<clipPath id="clip0_279_23">
<rect width="668" height="920" fill="white"/>
</clipPath>
</defs>
</svg>
