<svg width="390" height="1170" viewBox="0 0 390 1170" fill="none" xmlns="http://www.w3.org/2000/svg">
<path fill-rule="evenodd" clip-rule="evenodd" d="M-128.151 1082.86C-117.035 1078.69 -112.058 1079.1 -110.576 1063.67C-110.576 1046.46 -79.5549 1052.51 -79.5549 1031.65C-53.2979 1022.99 -39.64 989.413 -21.112 968.659C-15.183 962.089 -6.92474 956.457 -0.360504 949.991C9.8035 939.979 21.3438 943.629 21.3438 926.63C27.9081 926.63 43.5775 922.563 47.6008 917.035C49.4007 914.115 56.4943 900.036 58.2942 898.784C62.5291 895.864 69.1993 895.343 74.2812 892.631C84.2335 887.312 95.0327 881.263 107.526 881.263C120.125 881.263 122.984 875.423 133.042 872.92C148.923 868.957 143.1 868.331 154.746 859.884C163.534 853.522 159.616 842.154 174.015 842.154C177.297 842.154 177.615 836.522 179.309 834.541C181.638 831.621 184.92 830.473 188.308 828.388C196.143 823.486 182.803 821.296 194.555 814.83C203.343 810.032 200.166 805.652 212.342 801.272C215.201 800.229 222.718 793.137 223.882 793.137C220.812 797.205 218.059 806.799 215.412 811.597C210.013 821.191 215.624 821.4 224.624 820.461C237.54 819.21 254.48 814.517 263.903 804.505C270.361 798.143 275.338 786.984 277.879 777.911C280.631 768.42 286.878 763.206 294.077 756.01C298.842 751.316 285.184 747.145 283.066 742.452C278.302 731.814 297.36 737.446 301.806 736.298C312.923 733.483 297.042 712.311 303.818 710.747C305.512 715.649 319.17 717.735 324.04 717.109C334.31 715.962 346.062 730.458 346.062 714.919C356.861 718.465 359.19 727.747 373.06 722.532C381.636 719.299 383.542 707.931 390 706.263C389.259 704.177 365.331 702.612 361.308 701.048C356.755 699.379 332.722 689.68 333.78 684.049C334.416 681.024 347.332 678.521 350.72 679.877C367.449 686.239 351.885 671.116 352.203 668.092C352.52 665.276 365.437 667.571 368.19 666.841C375.178 664.963 369.46 661 369.46 657.037C366.178 656.203 342.674 655.264 341.192 657.037C333.992 666.006 317.052 674.141 305.724 676.957C294.289 679.877 305.3 681.65 308.476 683.631C318.323 689.68 316.629 699.171 304.03 694.686C293.76 691.036 272.373 687.699 296.83 679.668C295.877 675.81 278.09 684.049 277.349 683.84C274.596 683.214 274.279 680.19 270.573 681.65C266.444 683.214 266.55 688.012 263.374 690.723C239.234 711.269 243.787 684.361 258.08 679.668C257.551 677.374 245.481 673.515 242.305 671.742C239.34 668.092 241.669 661.939 240.293 657.976C237.434 657.976 235.105 661.522 231.823 662.147C229.494 662.565 225.682 661.417 225.047 659.227H224.518C224.2 660.687 219.965 669.031 218.8 669.031C218.8 666.215 215.307 663.399 215.307 660.166C215.307 657.246 218.483 656.307 220.283 654.221C221.553 652.866 221.341 650.78 222.294 649.528C223.247 648.172 227.482 650.05 229.07 650.05C230.553 650.05 232.247 649.841 233.517 649.841C234.152 647.547 231.4 645.252 232.247 643.166C232.882 641.706 237.328 636.805 236.693 635.762C236.164 634.719 233.305 635.24 232.247 635.553C229.494 636.283 227.8 636.596 225.259 635.032C223.247 633.78 220.812 635.24 219.012 637.222C216.471 639.933 213.824 645.565 210.013 645.565C210.013 640.038 212.342 629.296 210.542 625.646C216.154 625.646 227.906 630.86 222.083 619.284C218.8 612.818 225.471 603.327 219.33 600.303C213.189 597.278 207.578 594.358 202.39 589.978C195.931 584.659 193.285 576.42 192.438 568.077C191.485 559.316 190.002 539.814 184.92 533.139C180.262 526.882 175.18 529.698 169.145 526.465C165.439 524.483 160.357 522.502 162.898 529.385C164.91 535.016 164.698 542.108 164.698 549.096C162.581 548.366 153.476 541.483 153.476 538.25C153.052 538.145 153.052 538.25 152.946 537.728C150.829 537.728 152.417 549.409 152.417 551.286C152.417 558.378 153.687 556.5 157.393 560.672C159.299 562.862 156.969 565.261 157.605 567.555C158.769 571.623 165.969 572.457 168.616 577.672C174.015 588.414 161.204 582.052 156.864 586.328C155.487 587.684 151.782 589.144 150.088 588.309C145.217 585.911 128.807 583.095 137.065 572.77C139.183 570.163 152.735 554.102 144.582 552.12C144.582 550.347 143.1 547.114 143.1 545.758H142.359C141.512 542.525 135.159 542.943 143.1 538.145C147.441 535.538 149.347 532.618 149.347 527.09C149.347 520.416 146.911 504.981 137.594 504.981C132.936 504.981 117.902 519.894 111.655 523.232C100.856 528.863 104.138 524.17 95.4562 524.17C91.2212 524.17 89.739 527.612 86.6686 528.342C83.5982 519.373 92.7035 515.514 95.668 509.152C99.1618 501.435 105.197 499.453 108.902 491.214C111.126 486.208 120.125 486.417 121.925 481.828C124.678 474.736 116.949 467.749 131.136 470.252C137.806 471.399 134.206 472.65 140.135 466.81C151.041 456.068 157.287 448.142 174.121 448.142C178.462 448.142 186.297 455.129 189.897 447.203C193.285 439.694 194.979 430.412 199.425 423.842C205.354 414.873 210.648 405.487 213.189 395.579C205.46 395.579 201.86 400.794 194.237 400.794C187.144 400.794 178.568 403.505 172.215 402.045C164.698 400.272 165.545 396.726 160.993 393.18C156.44 389.635 153.582 388.383 146.7 387.549C134.312 389.947 120.337 388.696 108.691 393.493C99.3736 397.352 77.7751 399.959 84.9746 383.899C90.3742 372.009 94.6092 374.408 106.255 372.114C116.208 370.132 113.773 362.31 111.232 354.906C108.161 354.906 105.091 349.274 102.232 348.961C98.5266 348.544 94.7151 351.151 90.4801 350.212L63.6938 344.268C56.8119 342.703 49.5066 335.612 43.1541 334.465C42.9423 333.63 40.8248 329.771 39.8719 329.563C39.4485 327.894 35.8487 329.041 34.3665 328.311C33.2018 327.686 31.6137 325.391 30.6608 324.348C26.9552 320.281 24.5201 317.674 18.9087 315.692C9.8035 312.459 -5.44247 312.042 -15.0771 314.962C-23.5471 317.569 -20.5826 311.416 -22.806 305.889C-25.6646 298.901 -23.5471 293.895 -23.5471 286.699C-28.3115 285.135 -24.0764 277.834 -24.0764 274.914C-24.0764 270.847 -29.5819 267.51 -30.5348 263.546C-31.2759 263.338 -31.0642 262.921 -31.0642 262.295C-16.2417 262.295 -1.52512 261.565 13.4032 264.277C18.1676 265.111 22.932 262.399 26.8493 263.755C33.8371 266.258 38.8132 275.019 46.1186 278.773C52.8945 282.319 67.0818 284.613 74.8106 286.699C79.575 287.951 84.4453 287.012 89.5272 288.472C98.5266 291.079 99.1618 285.969 105.514 285.969C113.031 285.969 119.278 289.932 126.795 289.932C132.936 289.932 135.689 293.269 138.441 296.607L139.183 294.625C139.712 291.079 140.982 288.994 140.559 285.239C140.135 281.797 139.818 280.65 141.088 277.417C144.582 268.344 139.818 264.589 130.924 262.295C122.666 260.209 127.325 258.958 129.124 253.222C129.866 250.823 131.242 250.302 133.995 250.823C136.747 251.344 140.771 252.074 143.523 251.553C144.159 249.78 142.359 245.191 141.618 243.105C140.559 239.977 137.7 239.038 136.006 236.535C134.948 235.909 130.077 232.676 129.76 231.425C127.43 230.799 129.866 222.664 130.289 221.1C131.454 216.303 131.454 211.818 131.454 206.708C131.454 196.592 129.548 192.211 121.713 185.954C118.643 183.451 109.326 183.347 104.667 181.052C96.1974 176.881 87.4097 178.862 79.3633 172.709C76.187 170.31 74.0695 164.053 69.7286 164.574C65.0702 165.096 60.094 171.04 57.553 163.01C57.1295 158.525 57.8707 153.206 56.9178 148.93C55.9649 144.342 52.0475 141.421 51.2006 136.833C50.777 134.747 51.5182 132.452 50.4594 130.68C44.4246 129.219 44.4246 125.778 36.9074 126.925C30.2373 127.968 23.779 127.759 17.003 127.759C11.921 127.759 9.48587 131.305 5.14499 132.348C-0.148743 133.6 -6.07773 132.348 -10.948 130.158C-18.1475 126.821 -22.5942 126.716 -30.5348 125.986C-32.3347 125.986 -33.0758 127.029 -34.4522 127.342C-34.6639 128.698 -37.6284 130.68 -37.8402 132.452C-42.6046 133.6 -42.9222 127.759 -45.5691 127.759C-45.6749 127.968 -45.6749 127.864 -45.7808 127.968C-48.6394 127.968 -51.1804 135.477 -55.4154 135.477C-58.274 135.477 -64.9442 135.373 -67.4851 134.017C-70.6614 132.244 -71.0849 131.722 -74.4729 132.765C-78.602 134.017 -82.4135 136.207 -86.7544 137.146C-92.6833 138.293 -92.154 125.048 -92.154 121.502C-92.154 116.496 -93.3186 115.87 -95.4361 111.803C-97.5536 107.735 -100.836 105.337 -98.7182 100.331C-98.0829 98.8707 -93.2127 89.1716 -94.4832 88.4416C-95.8596 87.7115 -99.0358 89.0673 -100.624 88.233C-106.129 85.3128 -102.212 79.3682 -106.659 75.0923C-108.353 70.5035 -112.058 66.019 -112.058 61.2216C-112.058 58.51 -118.199 55.9027 -120.105 53.1912C-121.799 50.6882 -121.587 47.8723 -124.022 45.8908C-125.822 44.3264 -131.328 43.0749 -130.587 39.8419C-129.845 36.7131 -126.881 33.5844 -125.399 30.7685C-123.811 27.6398 -123.281 30.0385 -120.528 30.6643C-118.729 31.0814 -114.07 32.8544 -113.011 30.56C-111.635 27.4312 -108.67 27.9527 -106.659 25.8669C-104.647 23.8853 -110.576 23.4682 -112.376 22.0081C-114.705 20.2351 -116.929 16.7935 -116.929 13.6648C-116.082 10.0146 -116.293 3.54854 -114.07 0.106934H-603V1169.11L-599.718 1167.86C-596.224 1166.19 -589.342 1160.45 -586.378 1157.74C-583.201 1154.71 -581.402 1147.1 -578.437 1143.03C-575.896 1139.49 -571.343 1137.82 -569.226 1134.8C-564.991 1128.75 -565.52 1127.18 -556.733 1128.12C-552.392 1128.54 -552.286 1126.35 -549.321 1125.3C-546.251 1124.26 -543.498 1129.58 -540.005 1129.06C-526.982 1126.97 -538.205 1141.37 -522.959 1132.19C-516.183 1128.12 -497.76 1121.24 -497.76 1112.48C-497.549 1112.27 -497.443 1112.27 -497.337 1112.06C-493.949 1112.06 -489.714 1114.67 -486.538 1116.13C-481.032 1117.38 -475.527 1122.7 -470.551 1122.7C-463.139 1122.7 -461.763 1114.98 -453.081 1119.05C-437.518 1126.45 -424.813 1124.47 -411.155 1114.25C-410.837 1114.25 -410.625 1114.15 -410.308 1114.35C-409.037 1114.35 -408.19 1115.71 -407.132 1116.23C-403.002 1122.7 -397.073 1124.05 -391.25 1118.32C-389.345 1118 -388.498 1117.59 -386.38 1117.59C-381.192 1121.03 -376.851 1113.31 -371.452 1117.48C-369.44 1117.69 -368.805 1118.63 -366.476 1118.21L-349.43 1103.82C-345.512 1100.48 -337.042 1097.98 -335.772 1092.45C-331.96 1091.51 -328.996 1095.48 -325.29 1096.1C-320.738 1096.83 -319.573 1091.41 -316.291 1089.53C-313.75 1088.07 -297.445 1082.13 -295.751 1082.86C-291.305 1084.84 -286.011 1089.53 -283.787 1082.65C-283.046 1080.46 -276.8 1072.95 -274.682 1073.78C-272.247 1074.72 -269.071 1081.71 -267.165 1075.35C-266.106 1071.91 -262.189 1071.07 -261.342 1067.84C-259.86 1062.1 -257.53 1063.77 -252.131 1065.23C-244.931 1065.23 -234.873 1053.55 -228.944 1050.63C-221.533 1046.98 -206.499 1061.37 -200.04 1052.41C-192.841 1051.47 -174.313 1051.78 -169.019 1046.46C-161.925 1039.47 -150.385 1049.69 -142.762 1050.74C-138.21 1058.66 -130.269 1065.23 -129.951 1074.72L-128.151 1083.07V1082.86Z" fill="#D5E5E9"/>
</svg>
