<svg width="478" height="944" viewBox="0 0 478 944" fill="none" xmlns="http://www.w3.org/2000/svg">
<g clip-path="url(#clip0_253_3)">
<path fill-rule="evenodd" clip-rule="evenodd" d="M518.151 969.751C507.035 965.58 502.058 965.997 500.576 950.562C500.576 933.354 469.555 939.402 469.555 918.544C443.298 909.888 429.64 876.306 411.112 855.552C405.183 848.982 396.925 843.35 390.36 836.884C380.197 826.872 368.656 830.522 368.656 813.523C362.092 813.523 346.422 809.456 342.399 803.928C340.599 801.008 333.506 786.929 331.706 785.677C327.471 782.757 320.801 782.236 315.719 779.524C305.767 774.205 294.967 768.156 282.474 768.156C269.875 768.156 267.016 762.316 256.958 759.813C241.077 755.85 246.9 755.224 235.254 746.777C226.466 740.415 230.384 729.047 215.985 729.047C212.703 729.047 212.385 723.415 210.691 721.434C208.362 718.514 205.08 717.366 201.692 715.281C193.857 710.379 207.197 708.189 195.445 701.723C186.657 696.925 189.834 692.545 177.658 688.165C174.799 687.122 167.282 680.03 166.118 680.03C169.188 684.098 171.941 693.692 174.588 698.49C179.987 708.085 174.376 708.293 165.376 707.355C152.46 706.103 135.52 701.41 126.097 691.398C119.639 685.036 114.662 673.877 112.121 664.804C109.369 655.313 103.122 650.099 95.9226 642.903C91.1582 638.209 104.816 634.038 106.934 629.345C111.698 618.707 92.6405 624.339 88.1937 623.192C77.0769 620.376 92.9581 599.205 86.1821 597.64C84.4881 602.542 70.8303 604.628 65.96 604.002C55.6902 602.855 43.9381 617.351 43.9381 601.812C33.1388 605.358 30.8096 614.64 16.94 609.425C8.36411 606.192 6.45836 594.824 0 593.156C0.741124 591.07 24.6688 589.505 28.6921 587.941C33.2447 586.272 57.2783 576.573 56.2195 570.942C55.5843 567.917 42.6676 565.414 39.2796 566.77C22.5513 573.132 38.1149 558.01 37.7973 554.985C37.4797 552.169 24.563 554.464 21.8102 553.734C14.8225 551.856 20.5397 547.893 20.5397 543.93C23.8218 543.096 47.326 542.157 48.8083 543.93C56.0078 552.899 72.9478 561.034 84.2764 563.85C95.7108 566.77 84.6999 568.543 81.5236 570.524C71.6773 576.573 73.3713 586.064 85.9704 581.579C96.2402 577.929 117.627 574.592 93.1698 566.561C94.1227 562.703 111.91 570.942 112.651 570.733C115.404 570.107 115.721 567.083 119.427 568.543C123.556 570.107 123.45 574.905 126.626 577.616C150.766 598.162 146.213 571.255 131.92 566.561C132.449 564.267 144.519 560.408 147.695 558.635C150.66 554.985 148.331 548.832 149.707 544.869C152.566 544.869 154.895 548.415 158.177 549.04C160.506 549.458 164.318 548.31 164.953 546.12H165.482C165.8 547.58 170.035 555.924 171.2 555.924C171.2 553.108 174.693 550.292 174.693 547.059C174.693 544.139 171.517 543.2 169.717 541.114C168.447 539.759 168.659 537.673 167.706 536.421C166.753 535.065 162.518 536.943 160.93 536.943C159.447 536.943 157.753 536.734 156.483 536.734C155.848 534.44 158.6 532.145 157.753 530.059C157.118 528.599 152.672 523.698 153.307 522.655C153.836 521.612 156.695 522.133 157.753 522.446C160.506 523.176 162.2 523.489 164.741 521.925C166.753 520.673 169.188 522.133 170.988 524.115C173.529 526.826 176.176 532.458 179.987 532.458C179.987 526.931 177.658 516.189 179.458 512.539C173.846 512.539 162.094 517.753 167.917 506.177C171.2 499.711 164.529 490.22 170.67 487.196C176.811 484.171 182.422 481.251 187.61 476.871C194.069 471.552 196.715 463.313 197.562 454.97C198.515 446.209 199.998 426.707 205.08 420.032C209.738 413.775 214.82 416.591 220.855 413.358C224.561 411.376 229.643 409.395 227.102 416.278C225.09 421.91 225.302 429.001 225.302 435.989C227.419 435.259 236.524 428.376 236.524 425.143C236.948 425.038 236.948 425.143 237.054 424.621C239.171 424.621 237.583 436.302 237.583 438.179C237.583 445.271 236.313 443.394 232.607 447.565C230.701 449.755 233.03 452.154 232.395 454.448C231.231 458.516 224.031 459.35 221.384 464.565C215.985 475.307 228.796 468.945 233.136 473.221C234.513 474.577 238.218 476.037 239.912 475.202C244.783 472.804 261.193 469.988 252.935 459.663C250.817 457.056 237.265 440.995 245.418 439.013C245.418 437.24 246.9 434.007 246.9 432.652H247.641C248.488 429.418 254.841 429.836 246.9 425.038C242.559 422.431 240.653 419.511 240.653 413.983C240.653 407.309 243.089 391.874 252.406 391.874C257.064 391.874 272.098 406.787 278.345 410.125C289.144 415.756 285.862 411.063 294.544 411.063C298.779 411.063 300.261 414.505 303.331 415.235C306.402 406.266 297.297 402.407 294.332 396.045C290.838 388.328 284.803 386.346 281.098 378.107C278.874 373.101 269.875 373.31 268.075 368.721C265.322 361.629 273.051 354.642 258.864 357.145C252.194 358.292 255.794 359.543 249.865 353.703C238.959 342.961 232.713 335.035 215.879 335.035C211.538 335.035 203.703 342.022 200.103 334.096C196.715 326.587 195.021 317.305 190.575 310.735C184.646 301.766 179.352 292.38 176.811 282.472C184.54 282.472 188.14 287.687 195.763 287.687C202.856 287.687 211.432 290.398 217.785 288.938C225.302 287.165 224.455 283.619 229.007 280.074C233.56 276.528 236.418 275.276 243.3 274.442C255.688 276.84 269.663 275.589 281.309 280.386C290.626 284.245 312.225 286.852 305.025 270.792C299.626 258.902 295.391 261.301 283.745 259.007C273.792 257.025 276.227 249.203 278.768 241.799C281.839 241.799 284.909 236.167 287.768 235.854C291.473 235.437 295.285 238.044 299.52 237.106L326.306 231.161C333.188 229.597 340.493 222.505 346.846 221.358C347.058 220.523 349.175 216.664 350.128 216.456C350.552 214.787 354.151 215.934 355.634 215.204C356.798 214.579 358.386 212.284 359.339 211.241C363.045 207.174 365.48 204.567 371.091 202.585C380.197 199.352 395.442 198.935 405.077 201.855C413.547 204.462 410.583 198.309 412.806 192.782C415.665 185.794 413.547 180.788 413.547 173.592C418.311 172.028 414.076 164.727 414.076 161.807C414.076 157.74 419.582 154.403 420.535 150.44C421.276 150.231 421.064 149.814 421.064 149.188C406.242 149.188 391.525 148.458 376.597 151.17C371.832 152.004 367.068 149.292 363.151 150.648C356.163 153.151 351.187 161.912 343.881 165.666C337.105 169.212 322.918 171.506 315.189 173.592C310.425 174.844 305.555 173.905 300.473 175.365C291.473 177.972 290.838 172.862 284.486 172.862C276.969 172.862 270.722 176.825 263.205 176.825C257.064 176.825 254.311 180.163 251.559 183.5L250.817 181.518C250.288 177.972 249.018 175.887 249.441 172.132C249.865 168.691 250.182 167.543 248.912 164.31C245.418 155.237 250.182 151.482 259.076 149.188C267.334 147.102 262.675 145.851 260.876 140.115C260.134 137.716 258.758 137.195 256.005 137.716C253.253 138.237 249.229 138.968 246.477 138.446C245.841 136.673 247.641 132.084 248.382 129.998C249.441 126.87 252.3 125.931 253.994 123.428C255.052 122.802 259.923 119.569 260.24 118.318C262.57 117.692 260.134 109.557 259.711 107.993C258.546 103.196 258.546 98.7111 258.546 93.6009C258.546 83.4846 260.452 79.1044 268.287 72.8469C271.357 70.3439 280.674 70.2396 285.333 67.9452C293.803 63.7736 302.59 65.7551 310.637 59.6019C313.813 57.2032 315.93 50.9458 320.271 51.4672C324.93 51.9887 329.906 57.9333 332.447 49.9028C332.87 45.4183 332.129 40.0995 333.082 35.8235C334.035 31.2347 337.952 28.3146 338.799 23.7258C339.223 21.6399 338.482 19.3455 339.541 17.5726C345.575 16.1125 345.575 12.6709 353.093 13.8181C359.763 14.861 366.221 14.6524 372.997 14.6524C378.079 14.6524 380.514 18.1983 384.855 19.2412C390.149 20.4927 396.078 19.2412 400.948 17.0511C408.147 13.7138 412.594 13.6095 420.535 12.8795C422.335 12.8795 423.076 13.9224 424.452 14.2353C424.664 15.591 427.628 17.5726 427.84 19.3455C432.605 20.4927 432.922 14.6524 435.569 14.6524C435.675 14.861 435.675 14.7567 435.781 14.861C438.639 14.861 441.18 22.37 445.415 22.37C448.274 22.37 454.944 22.2657 457.485 20.9099C460.661 19.1369 461.085 18.6155 464.473 19.6584C468.602 20.9099 472.413 23.1 476.754 24.0386C482.683 25.1858 482.154 11.9408 482.154 8.39495C482.154 3.38897 483.319 2.76322 485.436 -1.30413C487.554 -5.37149 490.836 -7.77019 488.718 -12.7762C488.083 -14.2362 483.213 -23.9353 484.483 -24.6654C485.86 -25.3954 489.036 -24.0396 490.624 -24.8739C496.129 -27.7941 492.212 -33.7387 496.659 -38.0146C498.353 -42.6034 502.058 -47.088 502.058 -51.8854C502.058 -54.5969 508.199 -57.2042 510.105 -59.9158C511.799 -62.4188 511.587 -65.2346 514.022 -67.2162C515.822 -68.7805 521.328 -70.032 520.587 -73.2651C519.845 -76.3938 516.881 -79.5225 515.399 -82.3384C513.811 -85.4671 513.281 -83.0684 510.528 -82.4427C508.729 -82.0255 504.07 -80.2526 503.011 -82.547C501.635 -85.6757 498.67 -85.1543 496.659 -87.2401C494.647 -89.2216 500.576 -89.6388 502.376 -91.0988C504.705 -92.8718 506.929 -96.3134 506.929 -99.4421C506.082 -103.092 506.293 -109.558 504.07 -113H993V1056L989.718 1054.75C986.224 1053.08 979.342 1047.34 976.378 1044.63C973.201 1041.61 971.402 1033.99 968.437 1029.93C965.896 1026.38 961.343 1024.71 959.226 1021.69C954.991 1015.64 955.52 1014.07 946.733 1015.01C942.392 1015.43 942.286 1013.24 939.321 1012.2C936.251 1011.15 933.498 1016.47 930.004 1015.95C916.982 1013.87 928.205 1028.26 912.959 1019.08C906.183 1015.01 887.76 1008.13 887.76 999.37C887.549 999.161 887.443 999.161 887.337 998.953C883.949 998.953 879.714 1001.56 876.538 1003.02C871.032 1004.27 865.527 1009.59 860.551 1009.59C853.139 1009.59 851.763 1001.87 843.081 1005.94C827.518 1013.34 814.813 1011.36 801.155 1001.14C800.837 1001.14 800.625 1001.04 800.308 1001.25C799.037 1001.25 798.19 1002.6 797.132 1003.12C793.002 1009.59 787.073 1010.95 781.25 1005.21C779.345 1004.9 778.498 1004.48 776.38 1004.48C771.192 1007.92 766.851 1000.2 761.452 1004.38C759.44 1004.58 758.805 1005.52 756.476 1005.11L739.43 990.714C735.512 987.376 727.042 984.873 725.772 979.346C721.96 978.407 718.996 982.37 715.29 982.996C710.738 983.726 709.573 978.303 706.291 976.426C703.75 974.966 687.445 969.021 685.751 969.751C681.305 971.733 676.011 976.426 673.787 969.543C673.046 967.352 666.8 959.844 664.682 960.678C662.247 961.616 659.071 968.604 657.165 962.242C656.106 958.801 652.189 957.966 651.342 954.733C649.86 948.997 647.53 950.666 642.131 952.126C634.931 952.126 624.873 940.445 618.944 937.525C611.533 933.875 596.499 948.267 590.04 939.298C582.841 938.36 564.313 938.672 559.019 933.354C551.925 926.366 540.385 936.587 532.762 937.629C528.21 945.556 520.269 952.126 519.951 961.616L518.151 969.96V969.751Z" fill="#D5E5E9"/>
</g>
<defs>
<clipPath id="clip0_253_3">
<rect width="478" height="944" fill="white"/>
</clipPath>
</defs>
</svg>
