<svg width="40" height="41" viewBox="0 0 40 41" fill="none" xmlns="http://www.w3.org/2000/svg">
<path fill-rule="evenodd" clip-rule="evenodd" d="M22.4274 8.10932H20.1071C20.0266 7.82159 19.8543 7.56802 19.6165 7.38713C19.3787 7.20625 19.0883 7.10795 18.7896 7.10718H15.9225C15.5592 7.10757 15.2109 7.25207 14.954 7.50898C14.6971 7.76589 14.5526 8.11422 14.5522 8.47754V10.1513C13.5813 10.244 12.6798 10.695 12.0233 11.4163C11.3669 12.1375 11.0025 13.0774 11.0013 14.0527V15.4182C10.6824 15.5073 10.4066 15.7088 10.2249 15.9856C10.0431 16.2623 9.96774 16.5955 10.0127 16.9235C10.0576 17.2516 10.2198 17.5522 10.4693 17.7699C10.7188 17.9875 11.0387 18.1075 11.3697 18.1075H23.3411C23.6722 18.1075 23.992 17.9875 24.2415 17.7699C24.491 17.5522 24.6532 17.2516 24.6981 16.9235C24.7431 16.5955 24.6677 16.2623 24.486 15.9856C24.3042 15.7088 24.0284 15.5073 23.7095 15.4182V14.0527C23.709 13.4298 23.5599 12.8161 23.2745 12.2624C22.9892 11.7088 22.5758 11.2312 22.0688 10.8694H22.4267C23.6302 10.8707 24.784 11.3493 25.635 12.2003C26.486 13.0512 26.9647 14.205 26.966 15.4085V21.4822C26.576 21.567 26.2267 21.7825 25.9761 22.0931C25.7254 22.4037 25.5884 22.7907 25.5879 23.1898V25.8973H24.943V25.4994C24.9496 25.3461 24.9251 25.1931 24.871 25.0495C24.8169 24.9059 24.7343 24.7748 24.6282 24.664C24.5221 24.5532 24.3946 24.4651 24.2535 24.4048C24.1124 24.3446 23.9606 24.3136 23.8072 24.3136C23.6538 24.3136 23.502 24.3446 23.3609 24.4048C23.2198 24.4651 23.0923 24.5532 22.9862 24.664C22.8801 24.7748 22.7975 24.9059 22.7434 25.0495C22.6893 25.1931 22.6648 25.3461 22.6714 25.4994V29.2868C22.6648 29.4401 22.6893 29.5931 22.7434 29.7367C22.7975 29.8803 22.8801 30.0114 22.9862 30.1222C23.0923 30.233 23.2198 30.3211 23.3609 30.3814C23.502 30.4416 23.6538 30.4726 23.8072 30.4726C23.9606 30.4726 24.1124 30.4416 24.2535 30.3814C24.3946 30.3211 24.5221 30.233 24.6282 30.1222C24.7343 30.0114 24.8169 29.8803 24.871 29.7367C24.9251 29.5931 24.9496 29.4401 24.943 29.2868V28.8868H25.5879V32.1406C25.5884 32.3968 25.6904 32.6424 25.8715 32.8235C26.0527 33.0047 26.2983 33.1067 26.5544 33.1072H28.7608C29.0171 33.1067 29.2627 33.0048 29.4439 32.8236C29.6251 32.6424 29.7271 32.3968 29.7276 32.1406V15.4085C29.7253 13.4732 28.9554 11.6177 27.5868 10.2493C26.2182 8.88095 24.3627 8.11132 22.4274 8.10932ZM15.9219 7.84404H18.7896C18.9572 7.84477 19.1178 7.91183 19.2361 8.03058C19.3545 8.14932 19.421 8.31009 19.4212 8.47775V10.1325H15.2888V8.47775C15.289 8.30973 15.3558 8.14864 15.4746 8.02984C15.5934 7.91103 15.7545 7.84421 15.9225 7.84404H15.9219ZM23.9746 16.737C23.9744 16.9049 23.9076 17.066 23.7889 17.1848C23.6701 17.3036 23.5091 17.3704 23.3411 17.3707H11.3697C11.2017 17.3707 11.0405 17.3039 10.9216 17.1851C10.8028 17.0662 10.736 16.905 10.736 16.737C10.736 16.5689 10.8028 16.4077 10.9216 16.2889C11.0405 16.17 11.2017 16.1033 11.3697 16.1033H23.3411C23.5091 16.1035 23.6701 16.1703 23.7889 16.2891C23.9076 16.4079 23.9744 16.569 23.9746 16.737ZM22.9726 14.0527V15.3664H11.7382V14.0527C11.739 13.2089 12.0744 12.3998 12.6709 11.8031C13.2675 11.2063 14.0764 10.8705 14.9202 10.8694H19.7902C20.6341 10.8705 21.4431 11.2062 22.0397 11.803C22.6363 12.3998 22.9718 13.2088 22.9726 14.0527ZM22.4274 10.1325H20.158V8.84618H22.4274C24.1673 8.84808 25.8354 9.54005 27.0658 10.7703C28.2961 12.0005 28.9883 13.6686 28.9903 15.4085V21.4424H27.7029V15.4085C27.7014 14.0098 27.1451 12.6687 26.1561 11.6796C25.1671 10.6905 23.8261 10.1342 22.4274 10.1325ZM24.2062 29.2868C24.2062 29.3927 24.1641 29.4941 24.0893 29.5689C24.0145 29.6438 23.913 29.6858 23.8072 29.6858C23.7014 29.6858 23.5999 29.6438 23.5251 29.5689C23.4503 29.4941 23.4082 29.3927 23.4082 29.2868V25.4991C23.4043 25.4443 23.4116 25.3892 23.4299 25.3374C23.4481 25.2855 23.4768 25.238 23.5143 25.1977C23.5517 25.1575 23.597 25.1254 23.6474 25.1034C23.6978 25.0815 23.7522 25.0701 23.8072 25.0701C23.8622 25.0701 23.9166 25.0815 23.967 25.1034C24.0174 25.1254 24.0627 25.1575 24.1001 25.1977C24.1376 25.238 24.1663 25.2855 24.1845 25.3374C24.2028 25.3892 24.2101 25.4443 24.2062 25.4991V29.2868ZM24.943 28.1519V26.6341H25.5879V28.15L24.943 28.1519ZM28.9907 32.1425C28.9899 32.2032 28.9654 32.2612 28.9225 32.3041C28.8795 32.347 28.8215 32.3714 28.7608 32.3722H26.5544C26.4938 32.3714 26.4358 32.3469 26.3929 32.304C26.35 32.2611 26.3256 32.2032 26.3248 32.1425V23.1898C26.3248 22.9218 26.4312 22.6647 26.6207 22.4752C26.8103 22.2857 27.0673 22.1792 27.3353 22.1792H28.9916L28.9907 32.1425Z" fill="#00577A"/>
<path fill-rule="evenodd" clip-rule="evenodd" d="M13.3434 19.04C12.4343 19.04 11.944 20.5837 11.944 21.2148C11.9417 21.4001 11.9762 21.5839 12.0455 21.7556C12.1148 21.9274 12.2175 22.0837 12.3477 22.2155C12.4778 22.3472 12.6329 22.4518 12.8038 22.5233C12.9747 22.5947 13.158 22.6314 13.3433 22.6314C13.5285 22.6314 13.7119 22.5947 13.8828 22.5233C14.0537 22.4518 14.2087 22.3472 14.3388 22.2155C14.469 22.0837 14.5717 21.9274 14.641 21.7556C14.7103 21.5839 14.7448 21.4001 14.7426 21.2148C14.7426 20.5837 14.2522 19.04 13.3434 19.04ZM13.3434 21.878C13.1676 21.8777 12.9992 21.8078 12.875 21.6834C12.7507 21.5591 12.6809 21.3906 12.6808 21.2148C12.6808 20.6651 13.1267 19.7769 13.3434 19.7769C13.56 19.7769 14.0057 20.6651 14.0057 21.2148C14.0056 21.3906 13.9359 21.5591 13.8117 21.6834C13.6875 21.8078 13.5191 21.8777 13.3434 21.878ZM18.7547 21.2148C18.7547 20.5832 18.2644 19.04 17.3555 19.04C16.4466 19.04 15.9561 20.5837 15.9561 21.2148C15.9538 21.4001 15.9883 21.5839 16.0576 21.7556C16.1269 21.9274 16.2296 22.0837 16.3598 22.2155C16.49 22.3472 16.645 22.4518 16.8159 22.5233C16.9868 22.5947 17.1702 22.6314 17.3554 22.6314C17.5406 22.6314 17.724 22.5947 17.8949 22.5233C18.0658 22.4518 18.2208 22.3472 18.351 22.2155C18.4811 22.0837 18.5838 21.9274 18.6532 21.7556C18.7225 21.5839 18.757 21.4001 18.7547 21.2148ZM16.6929 21.2148C16.6929 20.6651 17.1391 19.7769 17.3555 19.7769C17.5719 19.7769 18.0178 20.6651 18.0178 21.2148C18.0194 21.3028 18.0034 21.3903 17.9708 21.472C17.9383 21.5537 17.8897 21.6282 17.828 21.691C17.7664 21.7537 17.6928 21.8036 17.6117 21.8376C17.5305 21.8717 17.4434 21.8892 17.3554 21.8892C17.2674 21.8892 17.1803 21.8717 17.0991 21.8376C17.018 21.8036 16.9444 21.7537 16.8827 21.691C16.8211 21.6282 16.7725 21.5537 16.7399 21.472C16.7074 21.3903 16.6914 21.3028 16.6929 21.2148ZM22.7668 21.2148C22.7668 20.5832 22.2765 19.04 21.3676 19.04C20.4588 19.04 19.9686 20.5837 19.9686 21.2148C19.9664 21.4001 20.0009 21.5839 20.0702 21.7556C20.1395 21.9274 20.2422 22.0837 20.3724 22.2155C20.5025 22.3472 20.6575 22.4518 20.8284 22.5233C20.9993 22.5947 21.1827 22.6314 21.3679 22.6314C21.5532 22.6314 21.7365 22.5947 21.9074 22.5233C22.0783 22.4518 22.2334 22.3472 22.3635 22.2155C22.4937 22.0837 22.5964 21.9274 22.6657 21.7556C22.735 21.5839 22.7695 21.4001 22.7673 21.2148H22.7668ZM20.7055 21.2148C20.7055 20.6651 21.1514 19.7769 21.368 19.7769C21.5847 19.7769 22.0304 20.6651 22.0304 21.2148C22.032 21.3028 22.016 21.3903 21.9834 21.472C21.9508 21.5537 21.9023 21.6282 21.8406 21.691C21.7789 21.7537 21.7054 21.8036 21.6242 21.8376C21.5431 21.8717 21.4559 21.8892 21.3679 21.8892C21.2799 21.8892 21.1928 21.8717 21.1117 21.8376C21.0305 21.8036 20.957 21.7537 20.8953 21.691C20.8336 21.6282 20.7851 21.5537 20.7525 21.472C20.7199 21.3903 20.7039 21.3028 20.7055 21.2148ZM15.3493 26.7064C15.7202 26.706 16.0758 26.5585 16.3381 26.2963C16.6004 26.0341 16.748 25.6785 16.7485 25.3076C16.7485 24.676 16.2582 23.1332 15.3493 23.1332C14.4405 23.1332 13.9501 24.676 13.9501 25.3076C13.9507 25.6785 14.0983 26.034 14.3606 26.2962C14.6229 26.5584 14.9784 26.7059 15.3493 26.7064ZM15.3493 23.8697C15.5658 23.8697 16.0117 24.7577 16.0117 25.3072C16.0117 25.4829 15.9419 25.6513 15.8177 25.7755C15.6935 25.8997 15.525 25.9695 15.3493 25.9695C15.1737 25.9695 15.0052 25.8997 14.881 25.7755C14.7568 25.6513 14.687 25.4829 14.687 25.3072C14.687 24.7577 15.1327 23.8697 15.3493 23.8697ZM19.3615 26.7064C19.7323 26.7059 20.0879 26.5584 20.3502 26.2962C20.6125 26.034 20.7601 25.6785 20.7607 25.3076C20.7607 24.676 20.2703 23.1332 19.3615 23.1332C18.4526 23.1332 17.9623 24.676 17.9623 25.3076C17.9628 25.6785 18.1103 26.0341 18.3726 26.2963C18.635 26.5585 18.9906 26.706 19.3615 26.7064ZM19.3615 23.8697C19.5781 23.8697 20.0238 24.7577 20.0238 25.3072C20.0238 25.4829 19.954 25.6513 19.8298 25.7755C19.7056 25.8997 19.5371 25.9695 19.3615 25.9695C19.1858 25.9695 19.0173 25.8997 18.8931 25.7755C18.7689 25.6513 18.6991 25.4829 18.6991 25.3072C18.6991 24.7577 19.145 23.8697 19.3615 23.8697Z" fill="#00577A"/>
</svg>
