<svg width="40" height="41" viewBox="0 0 40 41" fill="none" xmlns="http://www.w3.org/2000/svg">
<path d="M38.0176 15.0778H37.2229V12.1242C37.2229 10.3782 35.8024 8.95776 34.0564 8.95776H22.5805C21.5167 8.95776 20.5745 9.48565 20 10.2926C19.4255 9.48558 18.4833 8.95776 17.4195 8.95776H10.2099C10.0545 8.95776 9.90549 9.0195 9.7956 9.12938C9.68572 9.23927 9.62398 9.3883 9.62398 9.5437C9.62398 9.6991 9.68572 9.84814 9.7956 9.95802C9.90549 10.0679 10.0545 10.1296 10.2099 10.1296H17.4195C18.5193 10.1296 19.4141 11.0244 19.4141 12.1242V17.9844C19.4018 17.9726 19.3888 17.9616 19.3764 17.95C18.6819 17.3024 17.7405 16.9291 16.7904 16.9291H7.03039C6.97875 16.1424 6.44242 15.4504 5.70234 15.1881C5.49347 15.1146 5.2736 15.0773 5.05219 15.0778H3.94898V12.1242C3.94898 11.0244 4.84375 10.1296 5.94359 10.1296H7.86617C8.02157 10.1296 8.17061 10.0679 8.28049 9.95802C8.39038 9.84814 8.45211 9.6991 8.45211 9.5437C8.45211 9.3883 8.39038 9.23927 8.28049 9.12938C8.17061 9.0195 8.02157 8.95776 7.86617 8.95776H5.94359C4.19758 8.95776 2.77711 10.3782 2.77711 12.1242V15.0778H1.98242C0.889297 15.0778 0 15.9672 0 17.0602V23.1782C0 25.4546 1.85203 27.3067 4.12844 27.3067H4.42289L3.78086 29.0336C3.37609 30.1222 4.20922 31.3181 5.36875 31.3181H6.31141C6.83906 31.3181 7.34414 31.0668 7.6625 30.646L10.1884 27.3067H29.8118L32.3377 30.646C32.656 31.0668 33.1611 31.3181 33.6887 31.3181H34.6312C35.7922 31.3181 36.6238 30.122 36.2191 29.0336L35.577 27.3067H35.8716C38.148 27.3067 40 25.4546 40 23.1782V17.0602C40 15.9672 39.1107 15.0778 38.0176 15.0778ZM20.5859 12.1244C20.5859 11.0245 21.4807 10.1297 22.5805 10.1297H34.0564C35.1562 10.1297 36.051 11.0245 36.051 12.1243V15.0778H34.9477C34.1687 15.0778 33.4213 15.5778 33.1191 16.2952C33.0345 16.4968 32.9839 16.7111 32.9696 16.9292H23.2096C22.2448 16.9292 21.2831 17.3175 20.5859 17.9846V12.1244ZM7.03469 18.101H16.7904C18.2371 18.1011 19.4141 19.2781 19.4141 20.7248V21.558H7.03469V18.101ZM6.72789 29.939C6.67905 30.0032 6.61606 30.0553 6.54381 30.0913C6.47157 30.1272 6.39201 30.146 6.31133 30.1462H5.36867C5.00992 30.1462 4.75422 29.7782 4.87922 29.4421L5.67312 27.3067H8.71891L6.72789 29.939ZM34.6312 30.1461H33.6887C33.608 30.1459 33.5285 30.1271 33.4562 30.0912C33.384 30.0553 33.321 30.0032 33.2722 29.939L31.2811 27.3067H34.3269L35.1208 29.442C35.246 29.7789 34.9885 30.1461 34.6312 30.1461ZM35.8716 26.1348H4.12844C2.4982 26.1349 1.17188 24.8085 1.17188 23.1782V17.0602C1.17188 16.6132 1.53547 16.2496 1.98242 16.2496H5.05219C5.49914 16.2496 5.86273 16.6132 5.86273 17.0602V22.1439C5.86273 22.2993 5.92447 22.4483 6.03435 22.5582C6.14424 22.6681 6.29327 22.7298 6.44867 22.7298H27.9703C28.1257 22.7298 28.2747 22.6681 28.3846 22.5582C28.4945 22.4483 28.5562 22.2993 28.5562 22.1439C28.5562 21.9885 28.4945 21.8394 28.3846 21.7295C28.2747 21.6197 28.1257 21.5579 27.9703 21.5579H20.5859V20.7247C20.5859 19.278 21.7629 18.101 23.2096 18.101H32.9653V21.558H30.3141C30.1587 21.558 30.0096 21.6197 29.8997 21.7296C29.7899 21.8395 29.7281 21.9885 29.7281 22.1439C29.7281 22.2993 29.7899 22.4484 29.8997 22.5583C30.0096 22.6681 30.1587 22.7299 30.3141 22.7299H33.5513C33.7066 22.7299 33.8557 22.6681 33.9656 22.5583C34.0755 22.4484 34.1372 22.2993 34.1372 22.1439V17.0603C34.1372 16.6133 34.5008 16.2497 34.9477 16.2497H38.0175C38.4645 16.2497 38.828 16.6133 38.828 17.0603V23.1782H38.8281C38.8281 24.8085 37.5018 26.1348 35.8716 26.1348Z" fill="#00577A"/>
</svg>
