<svg width="40" height="41" viewBox="0 0 40 41" fill="none" xmlns="http://www.w3.org/2000/svg">
<path d="M26.7692 9.44043H21.1154C20.9012 9.44043 20.6957 9.52553 20.5443 9.677C20.3928 9.82847 20.3077 10.0339 20.3077 10.2481C20.3077 10.4623 20.3928 10.6678 20.5443 10.8192C20.6957 10.9707 20.9012 11.0558 21.1154 11.0558H26.7692C27.1977 11.0558 27.6085 11.226 27.9115 11.5289C28.2144 11.8319 28.3846 12.2428 28.3846 12.6712V18.325C28.3846 18.5393 28.4697 18.7447 28.6212 18.8962C28.7727 19.0476 28.9781 19.1327 29.1923 19.1327C29.4065 19.1327 29.612 19.0476 29.7634 18.8962C29.9149 18.7447 30 18.5393 30 18.325V12.6712C30 11.8143 29.6596 10.9926 29.0537 10.3867C28.4478 9.78081 27.6261 9.44043 26.7692 9.44043ZM9.80769 19.1327C10.0219 19.1327 10.2273 19.0476 10.3788 18.8962C10.5303 18.7447 10.6154 18.5393 10.6154 18.325V12.6712C10.6154 12.2428 10.7856 11.8319 11.0885 11.5289C11.3915 11.226 11.8023 11.0558 12.2308 11.0558H17.8846C18.0988 11.0558 18.3043 10.9707 18.4557 10.8192C18.6072 10.6678 18.6923 10.4623 18.6923 10.2481C18.6923 10.0339 18.6072 9.82847 18.4557 9.677C18.3043 9.52553 18.0988 9.44043 17.8846 9.44043H12.2308C11.3739 9.44043 10.5522 9.78081 9.94627 10.3867C9.34038 10.9926 9 11.8143 9 12.6712V18.325C9 18.5393 9.0851 18.7447 9.23657 18.8962C9.38804 19.0476 9.59348 19.1327 9.80769 19.1327ZM29.1923 20.7481C28.9781 20.7481 28.7727 20.8332 28.6212 20.9847C28.4697 21.1362 28.3846 21.3416 28.3846 21.5558V27.2097C28.3846 27.6381 28.2144 28.049 27.9115 28.3519C27.6085 28.6549 27.1977 28.825 26.7692 28.825H21.1154C20.9012 28.825 20.6957 28.9101 20.5443 29.0616C20.3928 29.2131 20.3077 29.4185 20.3077 29.6327C20.3077 29.847 20.3928 30.0524 20.5443 30.2039C20.6957 30.3553 20.9012 30.4404 21.1154 30.4404H26.7692C27.6261 30.4404 28.4478 30.1 29.0537 29.4942C29.6596 28.8883 30 28.0665 30 27.2097V21.5558C30 21.3416 29.9149 21.1362 29.7634 20.9847C29.612 20.8332 29.4065 20.7481 29.1923 20.7481ZM16.2692 19.9404H12.2308C11.3739 19.9404 10.5522 20.2808 9.94627 20.8867C9.34038 21.4926 9 22.3143 9 23.1712V27.2097C9 28.0665 9.34038 28.8883 9.94627 29.4942C10.5522 30.1 11.3739 30.4404 12.2308 30.4404H16.2692C17.1261 30.4404 17.9478 30.1 18.5537 29.4942C19.1596 28.8883 19.5 28.0665 19.5 27.2097V23.1712C19.5 22.3143 19.1596 21.4926 18.5537 20.8867C17.9478 20.2808 17.1261 19.9404 16.2692 19.9404ZM17.8846 27.2097C17.8846 27.6381 17.7144 28.049 17.4115 28.3519C17.1085 28.6549 16.6977 28.825 16.2692 28.825H12.2308C11.8023 28.825 11.3915 28.6549 11.0885 28.3519C10.7856 28.049 10.6154 27.6381 10.6154 27.2097V23.1712C10.6154 22.7428 10.7856 22.3319 11.0885 22.0289C11.3915 21.726 11.8023 21.5558 12.2308 21.5558H16.2692C16.6977 21.5558 17.1085 21.726 17.4115 22.0289C17.7144 22.3319 17.8846 22.7428 17.8846 23.1712V27.2097Z" fill="#00577A"/>
</svg>
