<svg width="1440" height="248" viewBox="0 0 1440 248" fill="none" xmlns="http://www.w3.org/2000/svg">
<g clip-path="url(#clip0_272_26)">
<path fill-rule="evenodd" clip-rule="evenodd" d="M0 73.2515H60C120 73.2515 240 73.2515 360 101.079C480 128.906 600 184.56 720 195.691C840 206.822 960 173.429 1080 140.037C1200 106.644 1320 73.2515 1380 56.5552L1440 39.8589V247.5H1380C1320 247.5 1200 247.5 1080 247.5C960 247.5 840 247.5 720 247.5C600 247.5 480 247.5 360 247.5C240 247.5 120 247.5 60 247.5H0V73.2515Z" fill="#D5E5E9"/>
<path fill-rule="evenodd" clip-rule="evenodd" d="M0 33.3926H60C120 33.3926 240 33.3926 360 61.2198C480 89.047 600 144.701 720 155.832C840 166.963 960 133.571 1080 100.178C1200 66.7853 1320 33.3926 1380 16.6963L1440 0V247.5H1380C1320 247.5 1200 247.5 1080 247.5C960 247.5 840 247.5 720 247.5C600 247.5 480 247.5 360 247.5C240 247.5 120 247.5 60 247.5H0V33.3926Z" fill="#D5E5E9" fill-opacity="0.6"/>
</g>
<defs>
<clipPath id="clip0_272_26">
<rect width="1440" height="248" fill="white"/>
</clipPath>
</defs>
</svg>
