<svg width="60" height="44" viewBox="0 0 60 44" fill="none" xmlns="http://www.w3.org/2000/svg">
<g clip-path="url(#clip0_19_113)">
<path d="M13.4002 58.2655H46.6009V68.0253H13.4002V58.2655ZM25.3141 26.3684V34.7597H34.6859V26.3684C34.6859 25.6452 34.5647 24.9292 34.3292 24.2611C34.0937 23.593 33.7486 22.986 33.3135 22.4747C32.8783 21.9633 32.3618 21.5577 31.7932 21.281C31.2247 21.0043 30.6154 20.8618 30 20.8618C29.3846 20.8618 28.7753 21.0043 28.2068 21.281C27.6383 21.5577 27.1217 21.9633 26.6866 22.4747C26.2514 22.986 25.9063 23.593 25.6708 24.2611C25.4353 24.9292 25.3141 25.6452 25.3141 26.3684ZM48.7523 45.9789H53.9957V68.0253H48.7523V45.9789ZM2.96288 37.2891C2.2769 37.3054 1.62371 37.6371 1.14349 38.213C0.663266 38.7889 0.394293 39.563 0.394293 40.3693C0.394293 41.1756 0.663266 41.9497 1.14349 42.5256C1.62371 43.1015 2.2769 43.4332 2.96288 43.4495H57.0371C57.7231 43.4332 58.3763 43.1015 58.8565 42.5256C59.3368 41.9497 59.6057 41.1756 59.6057 40.3693C59.6057 39.563 59.3368 38.7889 58.8565 38.213C58.3763 37.6371 57.7231 37.3054 57.0371 37.2891H2.96288ZM52.6321 0.596191H7.3679C5.56514 0.599007 3.82331 1.36324 2.4601 2.74949C1.0969 4.13575 0.203155 6.05165 -0.0581055 8.14775H60.0581C59.7969 6.05165 58.9031 4.13575 57.5399 2.74949C56.1767 1.36324 54.4349 0.599007 52.6321 0.596191ZM6.00432 45.9789H11.2477V68.0253H6.00432V45.9789ZM13.4002 45.9789H46.6009V49.5277H13.4002V45.9789ZM41.5545 16.9033H49.7597V26.5454H41.5545V16.9033ZM10.2404 16.9033H18.4456V26.5454H10.2404V16.9033Z" fill="#00577A"/>
<path d="M54.2852 34.7597V10.6771H5.71484V34.7597H23.1617V26.3683C23.1617 24.2371 23.8821 22.1931 25.1646 20.6861C26.447 19.179 28.1864 18.3324 30 18.3324C31.8137 18.3324 33.5531 19.179 34.8355 20.6861C36.118 22.1931 36.8384 24.2371 36.8384 26.3683V34.7597H54.2852ZM20.5991 27.8101C20.5991 28.1455 20.4858 28.4672 20.2839 28.7044C20.0821 28.9416 19.8084 29.0748 19.5229 29.0748H9.16417C8.87874 29.0748 8.60499 28.9416 8.40316 28.7044C8.20133 28.4672 8.08794 28.1455 8.08794 27.8101V15.6386C8.08794 15.3031 8.20133 14.9815 8.40316 14.7443C8.60499 14.5071 8.87874 14.3739 9.16417 14.3739H19.5218C19.8073 14.3739 20.081 14.5071 20.2829 14.7443C20.4847 14.9815 20.5981 15.3031 20.5981 15.6386L20.5991 27.8101ZM39.4031 15.6386C39.4031 15.3031 39.5165 14.9815 39.7183 14.7443C39.9202 14.5071 40.1939 14.3739 40.4793 14.3739H50.8359C51.1214 14.3739 51.3951 14.5071 51.5969 14.7443C51.7988 14.9815 51.9122 15.3031 51.9122 15.6386V27.8101C51.9122 28.1455 51.7988 28.4672 51.5969 28.7044C51.3951 28.9416 51.1214 29.0748 50.8359 29.0748H40.4783C40.1928 29.0748 39.9191 28.9416 39.7172 28.7044C39.5154 28.4672 39.402 28.1455 39.402 27.8101L39.4031 15.6386ZM13.4002 52.057H46.6009V55.7361H13.4002V52.057Z" fill="#00577A"/>
</g>
<defs>
<clipPath id="clip0_19_113">
<rect width="60" height="43" fill="white" transform="translate(0 0.637939)"/>
</clipPath>
</defs>
</svg>
