<svg width="24" height="24" viewBox="0 0 24 24" fill="none" xmlns="http://www.w3.org/2000/svg">
<g clip-path="url(#clip0_166_12)">
<mask id="mask0_166_12" style="mask-type:luminance" maskUnits="userSpaceOnUse" x="0" y="0" width="24" height="24">
<path d="M24 0H0V24H24V0Z" fill="white"/>
</mask>
<g mask="url(#mask0_166_12)">
<path d="M10.2943 11.6544C10.8565 11.8795 11.4577 11.9911 12.0632 11.9827C12.6687 11.9744 13.2666 11.8462 13.8223 11.6056C13.9685 11.5427 14.0837 11.4243 14.1426 11.2764C14.2015 11.1286 14.1992 10.9634 14.1363 10.8172C14.0734 10.671 13.955 10.5558 13.8071 10.4969C13.6593 10.438 13.4941 10.4403 13.3479 10.5032C12.6741 10.7933 11.9246 10.8585 11.2108 10.6889C10.497 10.5193 9.85692 10.1241 9.38559 9.56184C8.91425 8.99961 8.63678 8.30038 8.59438 7.56795C8.55197 6.83552 8.74689 6.10894 9.1502 5.49607C9.5535 4.88321 10.1437 4.41675 10.8332 4.16593C11.5226 3.91511 12.2746 3.89331 12.9774 4.10376C13.6802 4.31422 14.2964 4.74571 14.7346 5.33418C15.1727 5.92265 15.4094 6.63672 15.4095 7.37038V7.81518C15.4091 7.82184 15.4091 7.82852 15.4095 7.83518C15.4233 8.03561 15.3591 8.23362 15.2303 8.38779C15.1014 8.54195 14.918 8.64035 14.7183 8.66238C14.6324 8.66061 14.5477 8.64192 14.469 8.60738C14.3903 8.57284 14.3192 8.52313 14.2598 8.46108C14.2003 8.39904 14.1537 8.32588 14.1226 8.2458C14.0914 8.16572 14.0764 8.08028 14.0783 7.99438V6.06238C14.0783 5.90325 14.0151 5.75063 13.9026 5.63811C13.79 5.52559 13.6374 5.46238 13.4783 5.46238C13.336 5.46426 13.1991 5.51737 13.0927 5.61198C12.7738 5.4124 12.4065 5.30332 12.0304 5.29642C11.6542 5.28952 11.2832 5.38506 10.9572 5.5728C10.6311 5.76054 10.3623 6.03343 10.1794 6.36223C9.99654 6.69104 9.90654 7.06339 9.91905 7.43942C9.93155 7.81545 10.0461 8.181 10.2504 8.49693C10.4547 8.81286 10.7411 9.06728 11.0789 9.23295C11.4167 9.39861 11.7932 9.46929 12.1681 9.43741C12.543 9.40553 12.9021 9.2723 13.2071 9.05198C13.3807 9.30022 13.6115 9.50313 13.8799 9.6436C14.1483 9.78407 14.4465 9.858 14.7495 9.85918C15.2654 9.82698 15.7483 9.59465 16.0954 9.21167C16.4425 8.82869 16.6264 8.32532 16.6079 7.80878V7.37038C16.6076 6.53302 16.3792 5.71156 15.9473 4.9942C15.5154 4.27684 14.8962 3.69068 14.1563 3.29867C13.4164 2.90666 12.5836 2.7236 11.7475 2.76916C10.9114 2.81471 10.1035 3.08715 9.41052 3.55723C8.71756 4.02731 8.16574 4.67726 7.81431 5.4373C7.46287 6.19734 7.3251 7.03875 7.41579 7.87117C7.50648 8.7036 7.8222 9.49561 8.32906 10.1621C8.83591 10.8287 9.51475 11.3445 10.2927 11.6544H10.2943ZM11.9999 8.24558C11.827 8.24463 11.6583 8.19249 11.515 8.09575C11.3717 7.99901 11.2603 7.86199 11.1947 7.70199C11.1292 7.54199 11.1126 7.36616 11.1469 7.19671C11.1812 7.02726 11.2649 6.87176 11.3875 6.74984C11.5101 6.62792 11.6661 6.54504 11.8357 6.51166C12.0054 6.47828 12.1811 6.49589 12.3407 6.56227C12.5004 6.62865 12.6368 6.74082 12.7327 6.88464C12.8287 7.02846 12.8799 7.19748 12.8799 7.37038C12.8798 7.48568 12.8569 7.59984 12.8126 7.70629C12.7683 7.81274 12.7034 7.90939 12.6216 7.9907C12.5399 8.07201 12.4429 8.13639 12.3362 8.18012C12.2295 8.22386 12.1152 8.2461 11.9999 8.24558Z" fill="#254C60"/>
<path d="M23.6848 8.12875C23.5995 7.8662 23.4657 7.62198 23.2904 7.40875L20.0712 3.54155V2.40715C20.0705 1.82387 19.8385 1.26466 19.4261 0.85222C19.0136 0.439778 18.4544 0.207789 17.8712 0.207153H6.12555C5.54227 0.207789 4.98306 0.439778 4.57062 0.85222C4.15818 1.26466 3.92619 1.82387 3.92555 2.40715V3.54635L0.708751 7.40955C0.380356 7.805 0.200392 8.30273 0.199951 8.81675V19.9928C0.201221 21.0002 0.601985 21.966 1.31435 22.6784C2.02671 23.3907 2.99252 23.7915 3.99995 23.7928H20C20.9863 23.7935 21.9337 23.4085 22.64 22.72L22.6504 22.7128C23.0147 22.3596 23.3043 21.9369 23.502 21.4696C23.6998 21.0024 23.8017 20.5001 23.8016 19.9928V8.81675C23.7994 8.59952 23.7649 8.38381 23.6992 8.17675L23.6848 8.12875ZM22.1336 21.4712L14.9744 15.2624L22.6 9.44955V19.9928C22.6 20.5218 22.4371 21.0379 22.1336 21.4712ZM22.3376 8.13995L20.0712 9.86715V5.41755L22.3376 8.13995ZM6.12555 1.40715H17.8712C18.1362 1.40758 18.3903 1.51307 18.5778 1.70051C18.7652 1.88796 18.8707 2.14207 18.8712 2.40715V10.7824L14.048 14.4624L13.3152 13.8224C12.9481 13.5087 12.4811 13.3364 11.9984 13.3364C11.5156 13.3364 11.0486 13.5087 10.6816 13.8224L9.95355 14.4544L5.12555 10.7744V2.40715C5.12597 2.14207 5.23147 1.88796 5.41891 1.70051C5.60636 1.51307 5.86047 1.40758 6.12555 1.40715ZM1.86795 21.4736C1.56352 21.0398 1.40011 20.5227 1.39995 19.9928V9.44555L9.02715 15.26L1.86795 21.4736ZM3.92555 9.86075L1.66475 8.13755L3.92555 5.41755V9.86075ZM12 22.5928H3.99995C3.5719 22.5899 3.15138 22.4799 2.77675 22.2728L11.4664 14.7328C11.6148 14.6066 11.8032 14.5373 11.998 14.5373C12.1927 14.5373 12.3811 14.6066 12.5296 14.7328L21.2256 22.2728C20.8502 22.4802 20.4288 22.5902 20 22.5928H12Z" fill="#254C60"/>
</g>
</g>
<defs>
<clipPath id="clip0_166_12">
<rect width="24" height="24" fill="white"/>
</clipPath>
</defs>
</svg>
