<svg width="61" height="61" viewBox="0 0 61 61" fill="none" xmlns="http://www.w3.org/2000/svg">
<path d="M35.2567 42.752V48.8891C33.7087 48.9629 32.1149 49.0004 30.4872 49.0004C28.8595 49.0004 27.2657 48.9629 25.7177 48.8891V42.752C25.7177 42.3934 25.7575 42.043 25.8325 41.7079C25.9626 41.1219 26.2005 40.577 26.5251 40.0954C27.3817 38.8204 28.836 37.9813 30.4872 37.9813C32.1384 37.9813 33.5927 38.8204 34.4493 40.0954C34.7739 40.577 35.0118 41.1219 35.1419 41.7079C35.2169 42.043 35.2567 42.3934 35.2567 42.752ZM51.3255 22.1879C47.4794 23.4149 42.1204 24.2961 36.0067 24.6313C34.229 24.7297 32.3868 24.7813 30.5001 24.7813H30.4872C28.6052 24.7813 26.7688 24.7309 24.9958 24.6336C18.8704 24.2997 13.5009 23.4161 9.64893 22.1879C9.81064 22.1364 9.97588 22.0848 10.1435 22.0344C10.2267 22.0086 10.3122 21.984 10.3966 21.9594C10.4681 21.9383 10.5396 21.9172 10.611 21.8973C10.6614 21.8821 10.7118 21.868 10.7634 21.854C10.8595 21.8258 10.9556 21.8 11.0528 21.7731C11.1513 21.7461 11.2497 21.7192 11.3481 21.6934C11.92 21.5422 12.5177 21.3969 13.1376 21.2598C13.236 21.2375 13.3333 21.2165 13.4317 21.1954C13.7271 21.1321 14.0282 21.07 14.3341 21.009C14.436 20.9891 14.5392 20.9692 14.6423 20.9493C14.7489 20.9282 14.8579 20.9083 14.9669 20.8883C15.0665 20.8696 15.1661 20.8508 15.2669 20.8333L15.404 20.8086C15.5692 20.7793 15.7368 20.75 15.9044 20.7208C16.0321 20.6997 16.1622 20.6774 16.2923 20.6563C16.413 20.6375 16.5337 20.6176 16.6544 20.5989C16.8958 20.5602 17.1407 20.5227 17.388 20.4864C17.7583 20.4325 18.1345 20.3797 18.5153 20.3305L18.8985 20.2813C19.0216 20.2649 19.1458 20.2497 19.27 20.2344C19.6626 20.1875 20.0599 20.1418 20.4618 20.0997C20.8603 20.0575 21.2634 20.0176 21.67 19.9813C21.9806 19.952 22.2935 19.925 22.6087 19.9004C22.7657 19.8875 22.9239 19.8758 23.0833 19.8641C23.8134 19.809 24.5552 19.7622 25.3087 19.7235C25.5185 19.7129 25.7282 19.7024 25.9392 19.693C26.1513 19.6836 26.3634 19.6754 26.5755 19.6672C26.7583 19.6602 26.9411 19.6532 27.1239 19.6473C27.7544 19.6262 28.3919 19.6122 29.0353 19.6028C29.1923 19.6004 29.3493 19.5993 29.5075 19.5969H29.5497C29.8603 19.5934 30.1731 19.5922 30.4872 19.5922H30.5001C30.8095 19.5922 31.1177 19.5934 31.4247 19.5969C31.597 19.5981 31.7692 19.6004 31.9403 19.6028C32.2837 19.6075 32.6247 19.6133 32.9646 19.6227C33.0759 19.625 33.186 19.6286 33.2962 19.6309C33.4169 19.6333 33.5376 19.6368 33.6571 19.6415C33.772 19.645 33.8856 19.6485 33.9981 19.6532C34.2606 19.6614 34.522 19.6719 34.781 19.6825C35.3409 19.7067 35.9007 19.7352 36.4603 19.768C36.9489 19.7973 37.4317 19.8301 37.9099 19.8665C38.0692 19.8782 38.2274 19.8911 38.3856 19.9028C38.7021 19.9286 39.0161 19.9555 39.3278 19.9836C39.7345 20.0211 40.1376 20.061 40.5349 20.1032C40.9368 20.1454 41.3341 20.1911 41.7255 20.2391C42.0759 20.2801 42.4216 20.3247 42.7638 20.3715C42.8774 20.3879 42.9911 20.4032 43.1036 20.4184C43.2161 20.4348 43.3286 20.45 43.4411 20.4665L43.7763 20.5157C43.9978 20.5485 44.2181 20.5825 44.436 20.6176C44.545 20.6352 44.654 20.6528 44.7618 20.6704C45.7345 20.8309 46.6649 21.0067 47.5497 21.1977C47.6481 21.2188 47.7466 21.2399 47.8438 21.2622C48.3302 21.3688 48.8013 21.4813 49.2571 21.5985C49.3485 21.6208 49.4399 21.6442 49.529 21.6688C49.5759 21.6805 49.6228 21.6934 49.6696 21.7051C49.7552 21.7286 49.8396 21.7508 49.9239 21.7743C50.4103 21.9067 50.8778 22.045 51.3255 22.1879ZM29.5626 10.427L29.552 17.9563C26.3622 17.9833 23.2509 18.1555 20.2884 18.4684C20.2485 18.4731 20.2099 18.4766 20.17 18.4813L13.6649 11.9762C18.0595 11.0504 23.5638 10.4797 29.5626 10.427ZM57.5646 17.6024C57.5646 18.9372 56.1923 20.1864 53.8028 21.2563L51.8247 20.6247C49.4235 19.8583 46.4728 19.2278 43.1903 18.7743L49.4798 12.4848C49.8396 12.5786 50.1899 12.6758 50.5298 12.7743C50.6763 12.8165 50.8192 12.8598 50.961 12.9032C51.0325 12.9243 51.1028 12.9465 51.1731 12.9688C51.7603 13.1528 52.3122 13.345 52.8278 13.5442L53.0247 13.6215C53.0247 13.6215 53.1548 13.6731 53.2181 13.6989C53.2825 13.7258 53.3458 13.7516 53.4079 13.7786C53.5966 13.8571 53.7782 13.9368 53.9552 14.0188C54.0149 14.0458 54.0724 14.0727 54.1298 14.0997C54.3642 14.211 54.5868 14.3235 54.7978 14.4372C54.847 14.4641 54.8962 14.4899 54.9442 14.5168C55.5876 14.8743 56.122 15.2493 56.5368 15.6372C56.5591 15.6571 56.5813 15.6782 56.6024 15.6981C56.6563 15.7508 56.7091 15.8036 56.7571 15.8563C56.7853 15.8856 56.8134 15.9161 56.8403 15.9454C57.0981 16.236 57.2903 16.5325 57.411 16.8348C57.4192 16.8547 57.4274 16.8747 57.4333 16.8934C57.4485 16.9321 57.4614 16.9719 57.4731 17.0118C57.4837 17.0422 57.4919 17.0715 57.4989 17.102C57.5001 17.1032 57.5001 17.1055 57.5013 17.1067C57.5071 17.1313 57.513 17.1559 57.5188 17.1817C57.5493 17.3211 57.5646 17.4618 57.5646 17.6024Z" fill="#00577A"/>
<path d="M57.5644 20.8496V24.7812C57.5644 28.7469 45.4413 31.9602 30.487 31.9602C15.5327 31.9602 3.40967 28.7469 3.40967 24.7812V20.8496C4.63896 21.9523 6.55615 22.9227 9.15068 23.7512C13.2042 25.0437 18.7999 25.9391 24.9054 26.2719C26.7218 26.3715 28.5991 26.4219 30.487 26.4219H30.4999C32.3866 26.4219 34.2698 26.3703 36.0968 26.2695C42.1952 25.9355 47.7804 25.0402 51.8245 23.7512C54.419 22.9227 56.3362 21.9523 57.5644 20.8496Z" fill="#00577A"/>
<path d="M57.5644 28.0332V32.9926C57.5644 36.4309 48.4507 39.3043 36.2796 40.0074C35.2495 37.8418 33.0405 36.3406 30.487 36.3406C27.9335 36.3406 25.7245 37.8418 24.6944 40.0074C12.5233 39.3043 3.40967 36.4309 3.40967 32.9926V28.0332C4.90381 29.3727 7.41162 30.5141 10.9202 31.4434C16.1667 32.8344 23.1159 33.6008 30.487 33.6008C37.8581 33.6008 44.8073 32.8344 50.0538 31.4434C53.5624 30.5141 56.0702 29.3727 57.5644 28.0332Z" fill="#00577A"/>
<path d="M10.9202 39.6547C14.6362 40.6403 19.2077 41.3118 24.1776 41.6188C24.1108 41.9868 24.0769 42.3653 24.0769 42.752V48.7965C12.2163 48.0336 3.40967 45.2001 3.40967 41.8204V36.2458C4.90381 37.584 7.41162 38.7254 10.9202 39.6547ZM57.5644 36.2458V41.8204C57.5644 45.2001 48.7577 48.0336 36.8972 48.7965V42.752C36.8972 42.3653 36.8632 41.9868 36.7964 41.6188C41.7663 41.3118 46.3378 40.6403 50.0538 39.6547C53.5624 38.7254 56.0702 37.584 57.5644 36.2458ZM17.8062 18.7708C14.5085 19.2254 11.5519 19.8571 9.14951 20.6247L7.17256 21.2575C4.78193 20.1864 3.40967 18.9372 3.40967 17.6024C3.40967 17.4583 3.42607 17.3141 3.45771 17.1723C3.4624 17.15 3.46709 17.1278 3.47295 17.1067C3.47412 17.1043 3.47412 17.1032 3.47529 17.102C3.48232 17.0715 3.49053 17.0411 3.50107 17.0118C3.51748 16.9567 3.53623 16.9016 3.5585 16.8465C3.5667 16.8243 3.57607 16.8008 3.58662 16.7786C3.58662 16.7774 3.58662 16.7762 3.58779 16.775C3.59951 16.7458 3.61357 16.7165 3.62764 16.6883C3.70264 16.5301 3.79873 16.3731 3.91357 16.2172C3.9335 16.1903 3.95342 16.1633 3.97568 16.1352L4.05186 16.0415C4.07764 16.0098 4.10459 15.9782 4.13271 15.9477C4.15967 15.9172 4.18662 15.8879 4.21357 15.8586C4.21709 15.8551 4.22061 15.8516 4.22295 15.8481C4.25225 15.8188 4.28037 15.7895 4.30967 15.7602C4.33779 15.7309 4.36826 15.7028 4.39873 15.6723C4.49717 15.5786 4.60264 15.486 4.71631 15.3934C4.75264 15.3629 4.79014 15.3336 4.82881 15.3032C4.94365 15.2129 5.06436 15.1227 5.19326 15.0348C5.23545 15.0055 5.27881 14.9762 5.32334 14.9469C5.36787 14.9176 5.4124 14.8883 5.45811 14.859C5.50264 14.8297 5.54834 14.8004 5.59639 14.7711C5.64326 14.743 5.69014 14.7137 5.73936 14.6844C5.7874 14.6563 5.83662 14.627 5.88584 14.5989C5.93506 14.5708 5.98545 14.5415 6.03701 14.5133C6.0874 14.4852 6.14014 14.4571 6.1917 14.429C6.24443 14.4008 6.29717 14.3727 6.35107 14.3446L6.50928 14.2637C6.84092 14.0961 7.19717 13.9333 7.57568 13.7739C7.70107 13.7211 7.82998 13.6684 7.96006 13.6168C8.52842 13.3918 9.14365 13.175 9.80107 12.9688C9.87139 12.9465 9.9417 12.9243 10.0132 12.9032C10.0413 12.8938 10.0706 12.8856 10.1011 12.8762C10.2136 12.8422 10.3284 12.8083 10.4444 12.7743C10.7913 12.6735 11.1487 12.575 11.5155 12.4801L17.8062 18.7708ZM47.3315 11.9797L40.8265 18.4848C40.7878 18.4801 40.7479 18.4766 40.7081 18.4719C37.7409 18.1567 34.6249 17.9833 31.4269 17.9563L31.4374 10.427C37.4362 10.4821 42.9394 11.0551 47.3315 11.9797Z" fill="#00577A"/>
</svg>
