<svg width="138" height="29" viewBox="0 0 138 29" fill="none" xmlns="http://www.w3.org/2000/svg">
<g clip-path="url(#clip0_302_6)">
<mask id="mask0_302_6" style="mask-type:luminance" maskUnits="userSpaceOnUse" x="0" y="0" width="138" height="29">
<path d="M138 0H0V29H138V0Z" fill="white"/>
</mask>
<g mask="url(#mask0_302_6)">
<path d="M41.4761 12.8744H33.6222V0.210693H30.8337V15.2426H41.4761V12.8744Z" fill="#00577A"/>
<path d="M54.9474 12.9045H46.4716V8.76017H53.7237V6.46225H46.4716V2.54875H54.6565V0.210693H43.6831V15.2426H54.9474V12.9045Z" fill="#00577A"/>
<path d="M70.8959 7.55606H68.2578V12.2322C67.3752 12.7439 66.342 13.0048 65.1684 13.0048C64.1253 13.0048 63.1924 12.774 62.3699 12.3225C61.5474 11.8609 60.9055 11.2388 60.434 10.436C59.9726 9.63321 59.7319 8.7301 59.7319 7.72664C59.7319 6.72318 59.9626 5.77993 60.434 4.97716C60.8954 4.17439 61.5374 3.55225 62.3699 3.11073C63.1924 2.6692 64.1353 2.44844 65.1885 2.44844C66.8034 2.44844 68.1876 3.02041 69.3311 4.16435L71.0864 2.44844C70.3843 1.64567 69.5217 1.04359 68.4885 0.622141C67.4554 0.210722 66.3119 0 65.0581 0C63.5134 0 62.1192 0.331142 60.8854 1.00346C59.6516 1.66574 58.6787 2.58893 57.9765 3.76298C57.2744 4.93703 56.9233 6.26159 56.9233 7.73668C56.9233 9.21177 57.2744 10.5363 57.9765 11.7104C58.6787 12.8844 59.6416 13.8076 60.8754 14.4699C62.1091 15.1322 63.4833 15.4734 65.018 15.4734C66.1013 15.4734 67.1645 15.3128 68.1977 14.9817C69.2308 14.6505 70.1335 14.1789 70.9059 13.5668V7.57612L70.8959 7.55606Z" fill="#00577A"/>
<path d="M85.8314 12.9045H77.3556V8.76017H84.6077V6.46225H77.3556V2.54875H85.5305V0.210693H74.5671V15.2426H85.8314V12.9045Z" fill="#00577A"/>
<path d="M91.7091 5.06744L99.9943 15.2426H102.291V0.210693H99.5229V10.3858L91.2377 0.210693H88.9407V15.2426H91.7091V5.06744Z" fill="#00577A"/>
<path d="M117.156 1.14391C115.913 0.521766 114.488 0.210693 112.883 0.210693H106.313V15.2426H112.883C114.488 15.2426 115.913 14.9315 117.156 14.3093C118.4 13.6872 119.363 12.8042 120.055 11.6702C120.737 10.5363 121.088 9.22177 121.088 7.72661C121.088 6.23145 120.747 4.92696 120.055 3.78301C119.373 2.6491 118.4 1.76606 117.156 1.14391ZM117.598 10.446C117.146 11.2287 116.505 11.8308 115.662 12.2522C114.829 12.6737 113.856 12.8844 112.753 12.8844H109.102V2.57886H112.753C113.856 2.57886 114.819 2.78958 115.662 3.21104C116.494 3.63249 117.146 4.23457 117.598 5.01727C118.049 5.79997 118.27 6.70308 118.27 7.73665C118.27 8.77021 118.049 9.67332 117.598 10.4561V10.446Z" fill="#00577A"/>
<path d="M126.064 11.7605H133.577L135.081 15.2426H138L131.219 0.210693H128.471L121.71 15.2426H124.589L126.074 11.7605H126.064ZM129.825 3.00031L132.654 9.57297H127.007L129.815 3.00031H129.825Z" fill="#00577A"/>
<path d="M2.2669 0H0V28.9799H22.9398V26.5817H2.2669V0Z" fill="#00577A"/>
<path d="M4.66406 0V24.2737H23.0199V21.6647C21.385 22.628 19.4792 23.19 17.443 23.19C11.3544 23.19 6.39934 18.2329 6.39934 12.1419C6.39934 6.05086 11.3544 1.09377 17.443 1.09377C19.4792 1.09377 21.3749 1.6557 23.0199 2.61902V0.0100291H4.66406V0Z" fill="#00577A"/>
<path d="M20.6527 17.6708L19.9605 18.3632L19.2684 17.6708C18.5663 16.9684 17.6335 16.5771 16.6304 16.5771H15.828V14.6002H16.6304C17.8441 14.6002 18.9976 14.9816 19.9605 15.6739C20.8533 15.0317 21.9165 14.6705 23.0299 14.6203V12.784C22.1372 12.8442 21.2946 13.2054 20.6527 13.8477L19.9605 14.54L19.2684 13.8477C18.5663 13.1452 17.6335 12.7539 16.6304 12.7539H15.828V10.7771H16.6304C17.8441 10.7771 18.9976 11.1584 19.9605 11.8508C20.8533 11.2086 21.9165 10.8473 23.0299 10.7971V8.96083C22.1372 9.02103 21.2946 9.38228 20.6527 10.0245L19.9605 10.7169L19.2684 10.0245C18.5663 9.32208 17.6335 8.93072 16.6304 8.93072H15.828V6.9539H16.6304C17.8441 6.9539 18.9976 7.33523 19.9605 8.02761C20.8533 7.3854 21.9165 7.02415 23.0299 6.97398V5.53903C21.5253 4.26463 19.5794 3.48193 17.4529 3.48193C12.6984 3.48193 8.82666 7.3553 8.82666 12.1117C8.82666 16.8681 12.6984 20.7414 17.4529 20.7414C19.5794 20.7414 21.5253 19.9688 23.0299 18.6843V16.5771C22.1372 16.6373 21.2946 16.9985 20.6527 17.6407V17.6708Z" fill="#00577A"/>
<path d="M33.7327 22.4975C34.164 22.2566 34.6455 22.1463 35.1871 22.1463C36.0196 22.1463 36.7218 22.4573 37.2935 23.0695L38.2364 22.1764C37.8653 21.7449 37.4139 21.4238 36.8823 21.193C36.3507 20.9622 35.7588 20.8518 35.1169 20.8518C34.3245 20.8518 33.6023 21.0224 32.9603 21.3736C32.3184 21.7248 31.8068 22.2065 31.4457 22.8186C31.0746 23.4307 30.894 24.1331 30.894 24.9058C30.894 25.6785 31.0746 26.3809 31.4357 26.993C31.7968 27.6051 32.3083 28.0968 32.9503 28.438C33.5923 28.7892 34.3145 28.9598 35.1069 28.9598C35.7488 28.9598 36.3406 28.8494 36.8823 28.6186C37.4239 28.3978 37.8753 28.0667 38.2364 27.6352L37.2935 26.7321C36.7218 27.3542 36.0196 27.6653 35.1871 27.6653C34.6455 27.6653 34.164 27.5449 33.7327 27.3141C33.3014 27.0733 32.9704 26.7522 32.7296 26.3307C32.4889 25.9092 32.3685 25.4276 32.3685 24.8958C32.3685 24.3639 32.4889 23.8823 32.7296 23.4608C32.9704 23.0393 33.3014 22.7082 33.7327 22.4774V22.4975Z" fill="#00577A"/>
<path d="M42.3789 20.9724L38.8281 28.8697H40.3427L41.1251 27.0434H45.0771L45.8696 28.8697H47.4042L43.8434 20.9724H42.399H42.3789ZM41.6166 25.8894L43.0911 22.4375L44.5756 25.8894H41.6066H41.6166Z" fill="#00577A"/>
<path d="M56.6223 20.9724L53.5429 26.2004L50.4034 20.9724H49.1997V28.8697H50.5939V23.7018L53.1919 27.9665H53.8438L56.4417 23.6316L56.4518 28.8697H57.836L57.826 20.9724H56.6223Z" fill="#00577A"/>
<path d="M64.6769 21.3036C64.1654 21.0828 63.5736 20.9624 62.8915 20.9624H59.6416V28.8596H61.1061V26.5818H62.8915C63.5736 26.5818 64.1754 26.4714 64.6769 26.2406C65.1885 26.0098 65.5696 25.6887 65.8405 25.2672C66.1113 24.8458 66.2417 24.3441 66.2417 23.7721C66.2417 23.2001 66.1013 22.6883 65.8405 22.2669C65.5696 21.8454 65.1785 21.5243 64.6769 21.2935V21.3036ZM64.2857 24.9361C63.9547 25.207 63.4733 25.3375 62.8313 25.3375H61.1161V22.1966H62.8313C63.4733 22.1966 63.9547 22.3271 64.2857 22.598C64.6167 22.869 64.7772 23.2603 64.7772 23.762C64.7772 24.2638 64.6167 24.6551 64.2857 24.9261V24.9361Z" fill="#00577A"/>
<path d="M73.0024 24.7452C72.6313 24.5947 72.1498 24.4542 71.558 24.3238C71.1267 24.2234 70.7957 24.1231 70.5449 24.0428C70.2942 23.9625 70.0936 23.8521 69.9331 23.7016C69.7726 23.5611 69.6923 23.3705 69.6923 23.1497C69.6923 22.8286 69.8328 22.5677 70.1136 22.367C70.3945 22.1663 70.8258 22.076 71.4076 22.076C71.7586 22.076 72.1297 22.1262 72.5009 22.2366C72.872 22.3369 73.2331 22.4975 73.5842 22.6982L74.0456 21.5542C73.7045 21.3335 73.3033 21.1528 72.8419 21.0324C72.3805 20.912 71.899 20.8518 71.4176 20.8518C70.7255 20.8518 70.1437 20.9622 69.6622 21.1729C69.1808 21.3836 68.8297 21.6646 68.589 22.0259C68.3482 22.3871 68.2379 22.7785 68.2379 23.22C68.2379 23.7418 68.3683 24.1532 68.6391 24.4542C68.9099 24.7553 69.2209 24.9861 69.6021 25.1265C69.9732 25.267 70.4647 25.4075 71.0665 25.558C71.4978 25.6584 71.8288 25.7587 72.0796 25.839C72.3304 25.9193 72.531 26.0397 72.6915 26.1802C72.8519 26.3307 72.9322 26.5113 72.9322 26.7421C72.9322 27.0532 72.7918 27.294 72.5009 27.4847C72.21 27.6753 71.7686 27.7656 71.1869 27.7656C70.7154 27.7656 70.244 27.6854 69.7726 27.5248C69.3011 27.3643 68.9099 27.1535 68.5789 26.9027L68.0674 28.0466C68.3984 28.3276 68.8498 28.5584 69.4115 28.739C69.9832 28.9096 70.565 28.9999 71.1768 28.9999C71.869 28.9999 72.4507 28.8895 72.9322 28.6788C73.4137 28.4681 73.7748 28.1871 74.0055 27.8359C74.2462 27.4847 74.3565 27.0833 74.3565 26.6518C74.3565 26.14 74.2261 25.7387 73.9553 25.4376C73.6845 25.1366 73.3635 24.9158 72.9924 24.7653L73.0024 24.7452Z" fill="#00577A"/>
</g>
</g>
<defs>
<clipPath id="clip0_302_6">
<rect width="138" height="29" fill="white"/>
</clipPath>
</defs>
</svg>
