<svg width="174" height="37" viewBox="0 0 174 37" fill="none" xmlns="http://www.w3.org/2000/svg">
<path d="M52.29 16.24H42.39V0.27002H38.87V19.21H52.29V16.24Z" fill="white"/>
<path d="M69.28 16.26H58.59V11.04H67.74V8.15002H58.59V3.22002H68.9V0.27002H55.08V19.21H69.28V16.26Z" fill="white"/>
<path d="M89.38 9.53H86.05V15.43C84.93 16.08 83.63 16.4 82.15 16.4C80.83 16.4 79.66 16.11 78.62 15.53C77.58 14.95 76.77 14.16 76.18 13.15C75.59 12.14 75.3 11 75.3 9.74C75.3 8.48 75.59 7.29 76.18 6.28C76.77 5.27 77.58 4.49 78.62 3.93C79.66 3.37 80.84 3.09 82.18 3.09C84.22 3.09 85.96 3.81 87.4 5.25L89.62 3.09C88.74 2.08 87.65 1.31 86.35 0.790001C85.05 0.270001 83.61 0 82.02 0C80.07 0 78.32 0.419995 76.76 1.25999C75.2 2.09999 73.98 3.26 73.09 4.74C72.21 6.22 71.76 7.89 71.76 9.75C71.76 11.61 72.2 13.28 73.09 14.76C73.97 16.24 75.19 17.4 76.74 18.24C78.29 19.08 80.03 19.5 81.96 19.5C83.33 19.5 84.67 19.29 85.96 18.88C87.26 18.47 88.4 17.87 89.37 17.09V9.54L89.38 9.53Z" fill="white"/>
<path d="M108.22 16.26H97.53V11.04H106.67V8.15002H97.53V3.22002H107.84V0.27002H94.01V19.21H108.22V16.26Z" fill="white"/>
<path d="M115.63 6.39002L126.07 19.21H128.97V0.27002H125.48V13.1L115.03 0.27002H112.14V19.21H115.63V6.39002Z" fill="white"/>
<path d="M147.72 1.45002C146.15 0.67002 144.36 0.27002 142.34 0.27002H134.06V19.21H142.34C144.36 19.21 146.15 18.82 147.72 18.03C149.29 17.24 150.51 16.14 151.37 14.7C152.24 13.27 152.67 11.61 152.67 9.73002C152.67 7.85002 152.24 6.20002 151.37 4.77002C150.5 3.34002 149.29 2.23002 147.72 1.44002V1.45002ZM148.27 13.16C147.7 14.14 146.89 14.9 145.83 15.43C144.78 15.96 143.55 16.23 142.16 16.23H137.56V3.24002H142.16C143.55 3.24002 144.77 3.51002 145.83 4.04002C146.89 4.57002 147.7 5.33002 148.27 6.31002C148.84 7.29002 149.12 8.43002 149.12 9.73002C149.12 11.03 148.84 12.17 148.27 13.15V13.16Z" fill="white"/>
<path d="M158.95 14.83H168.42L170.31 19.21H173.99L165.44 0.27002H161.98L153.46 19.21H157.09L158.96 14.83H158.95ZM163.68 3.79002L167.25 12.07H160.13L163.67 3.79002H163.68Z" fill="white"/>
<path d="M2.86 0.0100098H0V36.53H28.92V33.51H2.86V0.0100098Z" fill="white"/>
<path d="M5.88 0V30.59H29.03V27.3C26.96 28.51 24.57 29.22 22 29.22C14.32 29.22 8.08001 22.97 8.08001 15.3C8.08001 7.63 14.33 1.38 22 1.38C24.56 1.38 26.96 2.09 29.03 3.3V0.00999451H5.88V0Z" fill="white"/>
<path d="M26.03 22.2699L25.15 23.1499L24.27 22.2699C23.38 21.3799 22.2 20.8899 20.95 20.8899H19.93V18.3999H20.95C22.48 18.3999 23.94 18.8799 25.15 19.7499C26.28 18.9399 27.62 18.4899 29.02 18.4199V16.1099C27.89 16.1899 26.84 16.6399 26.03 17.4599L25.15 18.3399L24.27 17.4599C23.38 16.5699 22.2 16.0799 20.95 16.0799H19.93V13.5899H20.95C22.48 13.5899 23.94 14.0699 25.15 14.9399C26.28 14.1299 27.62 13.6799 29.02 13.6099V11.2999C27.89 11.3799 26.84 11.8299 26.03 12.6499L25.15 13.5299L24.27 12.6499C23.38 11.7599 22.2 11.2699 20.95 11.2699H19.93V8.7799H20.95C22.48 8.7799 23.94 9.2599 25.15 10.1299C26.28 9.3199 27.62 8.8699 29.02 8.7999V6.9899C27.12 5.3799 24.67 4.3999 21.99 4.3999C15.99 4.3999 11.11 9.2799 11.11 15.2799C11.11 21.2799 15.99 26.1599 21.99 26.1599C24.67 26.1599 27.12 25.1799 29.02 23.5699V20.9099C27.89 20.9899 26.84 21.4399 26.03 22.2599V22.2699Z" fill="white"/>
<path d="M42.53 28.36C43.07 28.06 43.68 27.91 44.36 27.91C45.41 27.91 46.3 28.3 47.02 29.08L48.21 27.96C47.75 27.42 47.18 27.01 46.5 26.72C45.82 26.43 45.08 26.29 44.27 26.29C43.26 26.29 42.36 26.51 41.55 26.95C40.74 27.39 40.1 28 39.64 28.78C39.18 29.56 38.94 30.43 38.94 31.41C38.94 32.39 39.17 33.26 39.63 34.04C40.09 34.82 40.73 35.43 41.54 35.87C42.35 36.31 43.26 36.53 44.26 36.53C45.08 36.53 45.82 36.39 46.5 36.1C47.18 35.82 47.75 35.4 48.21 34.86L47.02 33.72C46.3 34.51 45.41 34.9 44.36 34.9C43.68 34.9 43.07 34.75 42.53 34.45C41.99 34.15 41.57 33.74 41.26 33.21C40.96 32.68 40.8 32.08 40.8 31.4C40.8 30.72 40.95 30.13 41.26 29.59C41.56 29.06 41.98 28.64 42.53 28.35V28.36Z" fill="white"/>
<path d="M53.43 26.4299L48.95 36.3799H50.86L51.84 34.0799H56.82L57.82 36.3799H59.75L55.26 26.4299H53.44H53.43ZM52.46 32.6299L54.32 28.2799L56.2 32.6299H52.46Z" fill="white"/>
<path d="M71.38 26.4299L67.5 33.0299L63.55 26.4299H62.03V36.3899H63.79V29.8799L67.06 35.2499H67.88L71.15 29.7899L71.17 36.3899H72.92L72.9 26.4299H71.38Z" fill="white"/>
<path d="M81.55 26.8599C80.91 26.5799 80.16 26.4299 79.3 26.4299H75.2V36.3799H77.05V33.5099H79.3C80.16 33.5099 80.91 33.3699 81.55 33.0799C82.19 32.7999 82.68 32.3899 83.02 31.8499C83.36 31.3099 83.53 30.6899 83.53 29.9699C83.53 29.2499 83.36 28.6099 83.02 28.0799C82.68 27.5499 82.19 27.1399 81.55 26.8599ZM81.04 31.4399C80.62 31.7799 80.01 31.9499 79.21 31.9499H77.05V27.9999H79.21C80.02 27.9999 80.63 28.1699 81.04 28.5099C81.46 28.8499 81.67 29.3399 81.67 29.9699C81.67 30.5999 81.46 31.0899 81.04 31.4299V31.4399Z" fill="white"/>
<path d="M92.04 31.19C91.57 31.01 90.96 30.83 90.22 30.66C89.68 30.53 89.25 30.41 88.94 30.3C88.63 30.2 88.37 30.05 88.17 29.87C87.97 29.69 87.86 29.46 87.86 29.17C87.86 28.76 88.04 28.44 88.39 28.19C88.74 27.94 89.29 27.82 90.02 27.82C90.47 27.82 90.93 27.89 91.4 28.02C91.87 28.15 92.33 28.35 92.77 28.6L93.35 27.16C92.92 26.88 92.42 26.66 91.83 26.51C91.24 26.36 90.64 26.28 90.04 26.28C89.17 26.28 88.43 26.41 87.83 26.68C87.23 26.95 86.78 27.3 86.48 27.75C86.18 28.2 86.03 28.7 86.03 29.25C86.03 29.9 86.2 30.42 86.54 30.81C86.88 31.19 87.28 31.48 87.75 31.66C88.22 31.84 88.83 32.02 89.59 32.2C90.13 32.33 90.56 32.45 90.87 32.56C91.18 32.66 91.44 32.81 91.64 32.99C91.84 33.17 91.95 33.41 91.95 33.69C91.95 34.08 91.77 34.39 91.4 34.63C91.03 34.87 90.48 34.99 89.74 34.99C89.14 34.99 88.55 34.89 87.96 34.68C87.37 34.48 86.87 34.21 86.46 33.89L85.82 35.33C86.24 35.69 86.8 35.98 87.52 36.2C88.24 36.42 88.98 36.53 89.75 36.53C90.62 36.53 91.36 36.4 91.97 36.13C92.58 35.86 93.03 35.51 93.33 35.06C93.63 34.61 93.78 34.12 93.78 33.57C93.78 32.93 93.61 32.41 93.27 32.03C92.93 31.65 92.53 31.37 92.05 31.18L92.04 31.19Z" fill="white"/>
</svg>
