<?xml version="1.0" encoding="UTF-8"?>
<svg xmlns="http://www.w3.org/2000/svg" version="1.1" viewBox="0 0 216 177.09">
  <defs>
    <style>
      .cls-1 {
        fill: #fff;
      }

      .cls-2 {
        fill: #00577a;
      }
    </style>
  </defs>
  <!-- Generator: Adobe Illustrator 28.6.0, SVG Export Plug-In . SVG Version: 1.2.0 Build 709)  -->
  <g>
    <g id="_Слой_1" data-name="Слой_1">
      <g>
        <polygon class="cls-1" points="99.67 57.89 94.96 57.89 94.96 117.95 142.53 117.95 142.53 112.98 99.67 112.98 99.67 57.89"/>
        <g>
          <path class="cls-1" d="M104.63,57.88v50.3h38.06v-5.42c-3.4,2-7.34,3.16-11.56,3.16-12.63,0-22.9-10.27-22.9-22.9s10.27-22.9,22.9-22.9c4.22,0,8.16,1.17,11.56,3.16v-5.42h-38.06Z"/>
          <path class="cls-1" d="M137.78,94.5l-1.44,1.44h-.01l-1.44-1.44c-1.46-1.46-3.4-2.27-5.46-2.27h-1.67v-4.09h1.67c2.51,0,4.91.78,6.91,2.23,1.85-1.34,4.06-2.08,6.37-2.19v-3.8c-1.86.13-3.59.88-4.92,2.21l-1.44,1.44h-.01l-1.44-1.44c-1.46-1.46-3.4-2.27-5.46-2.27h-1.67v-4.09h1.67c2.51,0,4.91.78,6.91,2.23,1.85-1.34,4.06-2.08,6.37-2.19v-3.8c-1.86.13-3.59.88-4.92,2.21l-1.44,1.44h-.01l-1.44-1.44c-1.46-1.46-3.4-2.27-5.46-2.27h-1.67v-4.09h1.67c2.51,0,4.91.78,6.91,2.23,1.85-1.34,4.06-2.08,6.37-2.19v-2.98c-3.12-2.65-7.15-4.26-11.56-4.26-9.86,0-17.89,8.02-17.89,17.89s8.02,17.89,17.89,17.89c4.4,0,8.44-1.61,11.56-4.26v-4.37c-1.86.13-3.59.88-4.92,2.21Z"/>
        </g>
      </g>
      <g>
        <g>
          <polygon class="cls-1" points="-391.44 86.94 -399.27 86.94 -399.27 74.32 -402.05 74.32 -402.05 89.29 -391.44 89.29 -391.44 86.94"/>
          <polygon class="cls-1" points="-378.01 86.96 -386.46 86.96 -386.46 82.83 -379.23 82.83 -379.23 80.54 -386.46 80.54 -386.46 76.65 -378.31 76.65 -378.31 74.32 -389.24 74.32 -389.24 89.29 -378.01 89.29 -378.01 86.96"/>
          <path class="cls-1" d="M-362.11,81.64h-2.63v4.66c-.88.51-1.91.77-3.08.77-1.04,0-1.97-.23-2.79-.68-.82-.46-1.46-1.08-1.93-1.88-.46-.8-.7-1.7-.7-2.7s.23-1.94.7-2.74c.46-.8,1.1-1.42,1.93-1.86.82-.44,1.76-.66,2.81-.66,1.61,0,2.99.57,4.13,1.71l1.75-1.71c-.7-.8-1.56-1.4-2.59-1.82-1.03-.41-2.17-.62-3.42-.62-1.54,0-2.93.33-4.16,1-1.23.66-2.2,1.58-2.9,2.75s-1.05,2.49-1.05,3.96.35,2.79,1.05,3.96c.7,1.17,1.66,2.09,2.89,2.75,1.23.66,2.6,1,4.13,1,1.08,0,2.14-.16,3.17-.49,1.03-.33,1.93-.8,2.7-1.41v-5.97Z"/>
          <polygon class="cls-1" points="-347.22 86.96 -355.67 86.96 -355.67 82.83 -348.44 82.83 -348.44 80.54 -355.67 80.54 -355.67 76.65 -347.52 76.65 -347.52 74.32 -358.45 74.32 -358.45 89.29 -347.22 89.29 -347.22 86.96"/>
          <polygon class="cls-1" points="-341.36 79.15 -333.1 89.29 -330.81 89.29 -330.81 74.32 -333.57 74.32 -333.57 84.46 -341.83 74.32 -344.12 74.32 -344.12 89.29 -341.36 89.29 -341.36 79.15"/>
          <path class="cls-1" d="M-315.98,75.25c-1.24-.62-2.66-.93-4.26-.93h-6.55v14.98h6.55c1.6,0,3.02-.31,4.26-.93s2.2-1.5,2.89-2.63c.68-1.13,1.03-2.44,1.03-3.93s-.34-2.79-1.03-3.93c-.68-1.13-1.65-2.01-2.89-2.63ZM-315.55,84.51c-.45.78-1.09,1.38-1.93,1.8-.83.42-1.8.63-2.9.63h-3.64v-10.27h3.64c1.1,0,2.06.21,2.9.63.83.42,1.48,1.02,1.93,1.8.45.78.67,1.68.67,2.71s-.22,1.93-.67,2.71Z"/>
          <path class="cls-1" d="M-307.11,85.83h7.49l1.5,3.47h2.91l-6.76-14.98h-2.74l-6.74,14.98h2.87l1.48-3.47ZM-303.36,77.1l2.82,6.55h-5.63l2.8-6.55Z"/>
        </g>
        <g>
          <polygon class="cls-1" points="-430.53 74.11 -432.79 74.11 -432.79 102.99 -409.92 102.99 -409.92 100.6 -430.53 100.6 -430.53 74.11"/>
          <g>
            <path class="cls-1" d="M-428.14,74.1v24.19h18.3v-2.6c-1.63.96-3.53,1.52-5.56,1.52-6.07,0-11.01-4.94-11.01-11.01s4.94-11.01,11.01-11.01c2.03,0,3.92.56,5.56,1.52v-2.6h-18.3Z"/>
            <path class="cls-1" d="M-412.2,91.71l-.69.69h0l-.69-.69c-.7-.7-1.63-1.09-2.63-1.09h-.8v-1.97h.8c1.21,0,2.36.38,3.32,1.07.89-.64,1.95-1,3.06-1.05v-1.83c-.89.06-1.73.42-2.37,1.06l-.69.69h0l-.69-.69c-.7-.7-1.63-1.09-2.63-1.09h-.8v-1.97h.8c1.21,0,2.36.38,3.32,1.07.89-.64,1.95-1,3.06-1.05v-1.83c-.89.06-1.73.42-2.37,1.06l-.69.69h0l-.69-.69c-.7-.7-1.63-1.09-2.63-1.09h-.8v-1.97h.8c1.21,0,2.36.38,3.32,1.07.89-.64,1.95-1,3.06-1.05v-1.43c-1.5-1.27-3.44-2.05-5.56-2.05-4.74,0-8.6,3.86-8.6,8.6s3.86,8.6,8.6,8.6c2.12,0,4.06-.77,5.56-2.05v-2.1c-.89.06-1.73.42-2.37,1.06Z"/>
          </g>
        </g>
        <g>
          <path class="cls-1" d="M-399.16,96.53c.43-.24.91-.35,1.45-.35.83,0,1.53.31,2.1.92l.94-.89c-.37-.43-.82-.75-1.35-.98s-1.12-.34-1.76-.34c-.79,0-1.51.17-2.15.52-.64.35-1.15.83-1.51,1.44-.37.61-.55,1.31-.55,2.08s.18,1.47.54,2.08c.36.61.87,1.1,1.51,1.44.64.35,1.36.52,2.15.52.64,0,1.23-.11,1.77-.34.54-.22.99-.55,1.35-.98l-.94-.9c-.57.62-1.27.93-2.1.93-.54,0-1.02-.12-1.45-.35-.43-.24-.76-.56-1-.98-.24-.42-.36-.9-.36-1.43s.12-1.01.36-1.43c.24-.42.57-.75,1-.98Z"/>
          <path class="cls-1" d="M-390.54,95l-3.54,7.87h1.51l.78-1.82h3.94l.79,1.82h1.53l-3.55-7.87h-1.44ZM-391.3,99.91l1.47-3.44,1.48,3.44h-2.96Z"/>
          <polygon class="cls-1" points="-376.34 95 -379.41 100.22 -382.54 95 -383.74 95 -383.74 102.88 -382.35 102.88 -382.35 97.73 -379.76 101.98 -379.11 101.98 -376.52 97.66 -376.51 102.88 -375.13 102.88 -375.14 95 -376.34 95"/>
          <path class="cls-1" d="M-368.31,95.34c-.51-.22-1.1-.34-1.78-.34h-3.24v7.87h1.46v-2.27h1.78c.68,0,1.28-.11,1.78-.34.51-.23.89-.55,1.16-.97.27-.42.4-.92.4-1.49s-.14-1.08-.4-1.5c-.27-.42-.66-.74-1.16-.97ZM-368.7,98.96c-.33.27-.81.4-1.45.4h-1.71v-3.13h1.71c.64,0,1.12.13,1.45.4.33.27.49.66.49,1.16s-.16.89-.49,1.16Z"/>
          <path class="cls-1" d="M-360.01,98.77c-.37-.15-.85-.29-1.44-.42-.43-.1-.76-.2-1.01-.28-.25-.08-.45-.19-.61-.34-.16-.14-.24-.33-.24-.55,0-.32.14-.58.42-.78s.71-.29,1.29-.29c.35,0,.72.05,1.09.16.37.1.73.26,1.08.46l.46-1.14c-.34-.22-.74-.4-1.2-.52-.46-.12-.94-.18-1.42-.18-.69,0-1.27.11-1.75.32-.48.21-.83.49-1.07.85-.24.36-.35.75-.35,1.19,0,.52.13.93.4,1.23.27.3.58.53.96.67.37.14.86.28,1.46.43.43.1.76.2,1.01.28.25.08.45.2.61.34.16.15.24.33.24.56,0,.31-.14.55-.43.74-.29.19-.73.28-1.31.28-.47,0-.94-.08-1.41-.24-.47-.16-.86-.37-1.19-.62l-.51,1.14c.33.28.78.51,1.34.69.57.17,1.15.26,1.76.26.69,0,1.27-.11,1.75-.32.48-.21.84-.49,1.07-.84.24-.35.35-.75.35-1.18,0-.51-.13-.91-.4-1.21-.27-.3-.59-.52-.96-.67Z"/>
        </g>
      </g>
      <g>
        <g>
          <polygon class="cls-1" points="-178.19 103.26 -188.6 103.26 -188.6 86.49 -192.29 86.49 -192.29 106.39 -178.19 106.39 -178.19 103.26"/>
          <polygon class="cls-1" points="-160.34 103.29 -171.57 103.29 -171.57 97.8 -161.96 97.8 -161.96 94.76 -171.57 94.76 -171.57 89.59 -160.74 89.59 -160.74 86.49 -175.27 86.49 -175.27 106.39 -160.34 106.39 -160.34 103.29"/>
          <path class="cls-1" d="M-139.22,96.21h-3.5v6.2c-1.18.68-2.54,1.02-4.09,1.02-1.38,0-2.62-.3-3.71-.91-1.09-.61-1.94-1.44-2.56-2.5-.62-1.06-.92-2.25-.92-3.58s.31-2.58.92-3.64c.62-1.06,1.47-1.89,2.56-2.47,1.09-.59,2.33-.88,3.74-.88,2.14,0,3.97.76,5.49,2.27l2.33-2.27c-.93-1.06-2.07-1.87-3.44-2.42-1.36-.55-2.88-.82-4.55-.82-2.05,0-3.89.44-5.53,1.32-1.64.88-2.92,2.1-3.85,3.65-.93,1.55-1.39,3.31-1.39,5.26s.46,3.71,1.39,5.26c.93,1.55,2.21,2.77,3.84,3.65,1.63.88,3.46,1.32,5.49,1.32,1.44,0,2.84-.22,4.21-.65,1.36-.44,2.56-1.06,3.58-1.88v-7.93Z"/>
          <polygon class="cls-1" points="-119.44 103.29 -130.67 103.29 -130.67 97.8 -121.06 97.8 -121.06 94.76 -130.67 94.76 -130.67 89.59 -119.84 89.59 -119.84 86.49 -134.36 86.49 -134.36 106.39 -119.44 106.39 -119.44 103.29"/>
          <polygon class="cls-1" points="-111.65 92.91 -100.68 106.39 -97.64 106.39 -97.64 86.49 -101.3 86.49 -101.3 99.96 -112.28 86.49 -115.32 86.49 -115.32 106.39 -111.65 106.39 -111.65 92.91"/>
          <path class="cls-1" d="M-77.94,87.73c-1.65-.82-3.53-1.24-5.66-1.24h-8.7v19.9h8.7c2.12,0,4.01-.41,5.66-1.24s2.93-1.99,3.84-3.5c.91-1.51,1.36-3.25,1.36-5.22s-.45-3.71-1.36-5.22c-.91-1.51-2.19-2.67-3.84-3.5ZM-77.36,100.03c-.6,1.03-1.45,1.83-2.56,2.39-1.11.56-2.39.84-3.85.84h-4.83v-13.64h4.83c1.46,0,2.74.28,3.85.84,1.11.56,1.96,1.35,2.56,2.39.6,1.03.9,2.23.9,3.6s-.3,2.56-.9,3.6Z"/>
          <path class="cls-1" d="M-66.14,101.78h9.95l1.99,4.6h3.87l-8.98-19.9h-3.64l-8.95,19.9h3.81l1.96-4.6ZM-61.17,90.18l3.75,8.7h-7.48l3.72-8.7Z"/>
        </g>
        <g>
          <polygon class="cls-1" points="-129.64 50.66 -131.69 50.66 -131.69 76.76 -111.01 76.76 -111.01 74.6 -129.64 74.6 -129.64 50.66"/>
          <g>
            <path class="cls-1" d="M-127.48,50.66v21.86h16.54v-2.35c-1.48.87-3.19,1.37-5.02,1.37-5.49,0-9.95-4.46-9.95-9.95s4.46-9.95,9.95-9.95c1.83,0,3.55.51,5.02,1.37v-2.35h-16.54Z"/>
            <path class="cls-1" d="M-113.08,66.57l-.63.63h0l-.63-.63c-.63-.63-1.48-.98-2.37-.98h-.73v-1.78h.73c1.09,0,2.13.34,3,.97.81-.58,1.76-.9,2.77-.95v-1.65c-.81.06-1.56.38-2.14.96l-.63.63h0l-.63-.63c-.63-.63-1.48-.98-2.37-.98h-.73v-1.78h.73c1.09,0,2.13.34,3,.97.81-.58,1.76-.9,2.77-.95v-1.65c-.81.06-1.56.38-2.14.96l-.63.63h0l-.63-.63c-.63-.63-1.48-.98-2.37-.98h-.73v-1.78h.73c1.09,0,2.13.34,3,.97.81-.58,1.76-.9,2.77-.95v-1.29c-1.36-1.15-3.11-1.85-5.02-1.85-4.29,0-7.77,3.49-7.77,7.77s3.49,7.77,7.77,7.77c1.91,0,3.67-.7,5.02-1.85v-1.9c-.81.06-1.56.38-2.14.96Z"/>
          </g>
        </g>
        <g>
          <path class="cls-1" d="M-143.6,117.53c.51-.28,1.08-.42,1.72-.42.98,0,1.81.36,2.49,1.09l1.12-1.05c-.43-.51-.97-.89-1.6-1.16s-1.33-.4-2.09-.4c-.94,0-1.79.21-2.55.62-.76.41-1.35.98-1.79,1.71-.43.73-.65,1.55-.65,2.46s.21,1.73.64,2.46c.43.73,1.02,1.3,1.78,1.71.76.41,1.61.62,2.55.62.76,0,1.46-.13,2.09-.4.63-.27,1.17-.65,1.6-1.16l-1.12-1.06c-.67.74-1.5,1.1-2.49,1.1-.64,0-1.21-.14-1.72-.42-.51-.28-.9-.67-1.18-1.16-.28-.5-.43-1.06-.43-1.69s.14-1.19.43-1.69c.28-.5.68-.88,1.18-1.16Z"/>
          <path class="cls-1" d="M-133.4,115.73l-4.19,9.31h1.78l.92-2.15h4.65l.93,2.15h1.81l-4.2-9.31h-1.7ZM-134.31,121.53l1.74-4.07,1.76,4.07h-3.5Z"/>
          <polygon class="cls-1" points="-116.61 115.73 -120.24 121.9 -123.94 115.73 -125.36 115.73 -125.36 125.04 -123.71 125.04 -123.71 118.95 -120.66 123.98 -119.88 123.98 -116.83 118.87 -116.81 125.04 -115.18 125.04 -115.19 115.73 -116.61 115.73"/>
          <path class="cls-1" d="M-107.1,116.13c-.6-.27-1.3-.4-2.11-.4h-3.83v9.31h1.73v-2.69h2.1c.81,0,1.51-.13,2.11-.4.6-.27,1.06-.65,1.38-1.15.32-.5.48-1.09.48-1.76s-.16-1.27-.48-1.77c-.32-.5-.78-.88-1.38-1.14ZM-107.58,120.41c-.39.32-.96.48-1.72.48h-2.02v-3.7h2.02c.75,0,1.33.16,1.72.48.39.32.59.78.59,1.37s-.2,1.05-.59,1.37Z"/>
          <path class="cls-1" d="M-97.29,120.18c-.44-.17-1.01-.34-1.7-.5-.51-.12-.9-.23-1.2-.33-.29-.1-.53-.23-.72-.4-.19-.17-.29-.39-.29-.65,0-.38.17-.69.5-.92s.84-.35,1.52-.35c.42,0,.85.06,1.29.19.44.12.87.31,1.28.55l.54-1.34c-.4-.27-.87-.47-1.42-.61-.55-.14-1.11-.21-1.68-.21-.82,0-1.51.12-2.07.37-.56.25-.98.58-1.26,1-.28.42-.42.89-.42,1.4,0,.61.16,1.1.47,1.46.31.36.69.62,1.13.79.44.17,1.01.34,1.72.51.51.12.9.23,1.2.33.29.1.53.23.72.41.19.17.29.39.29.66,0,.36-.17.66-.51.88-.34.22-.86.33-1.55.33-.56,0-1.12-.1-1.67-.29-.55-.19-1.02-.44-1.4-.74l-.6,1.34c.39.34.92.61,1.59.81.67.2,1.36.31,2.08.31.82,0,1.51-.13,2.07-.37.57-.25.99-.58,1.27-1,.28-.42.42-.88.42-1.4,0-.6-.16-1.08-.47-1.44-.31-.35-.69-.62-1.14-.79Z"/>
        </g>
      </g>
      <g>
        <polygon class="cls-2" points="-612.73 57 -617.44 57 -617.44 117.06 -569.87 117.06 -569.87 112.09 -612.73 112.09 -612.73 57"/>
        <g>
          <path class="cls-2" d="M-607.77,56.99v50.3h38.06v-5.42c-3.4,2-7.34,3.16-11.56,3.16-12.63,0-22.9-10.27-22.9-22.9s10.27-22.9,22.9-22.9c4.22,0,8.16,1.17,11.56,3.16v-5.42h-38.06Z"/>
          <path class="cls-2" d="M-574.62,93.61l-1.44,1.44h-.01l-1.44-1.44c-1.46-1.46-3.4-2.27-5.46-2.27h-1.67v-4.09h1.67c2.51,0,4.91.78,6.91,2.23,1.85-1.34,4.06-2.08,6.37-2.19v-3.8c-1.86.13-3.59.88-4.92,2.21l-1.44,1.44h-.01l-1.44-1.44c-1.46-1.46-3.4-2.27-5.46-2.27h-1.67v-4.09h1.67c2.51,0,4.91.78,6.91,2.23,1.85-1.34,4.06-2.08,6.37-2.19v-3.8c-1.86.13-3.59.88-4.92,2.21l-1.44,1.44h-.01l-1.44-1.44c-1.46-1.46-3.4-2.27-5.46-2.27h-1.67v-4.09h1.67c2.51,0,4.91.78,6.91,2.23,1.85-1.34,4.06-2.08,6.37-2.19v-2.98c-3.12-2.65-7.15-4.26-11.56-4.26-9.86,0-17.89,8.02-17.89,17.89s8.02,17.89,17.89,17.89c4.4,0,8.44-1.61,11.56-4.26v-4.37c-1.86.13-3.59.88-4.92,2.21Z"/>
        </g>
      </g>
      <g>
        <g>
          <polygon class="cls-2" points="-1099.44 89.24 -1107.27 89.24 -1107.27 76.62 -1110.05 76.62 -1110.05 91.6 -1099.44 91.6 -1099.44 89.24"/>
          <polygon class="cls-2" points="-1086.01 89.27 -1094.46 89.27 -1094.46 85.14 -1087.23 85.14 -1087.23 82.85 -1094.46 82.85 -1094.46 78.95 -1086.3 78.95 -1086.3 76.62 -1097.24 76.62 -1097.24 91.6 -1086.01 91.6 -1086.01 89.27"/>
          <path class="cls-2" d="M-1070.11,83.94h-2.63v4.66c-.88.51-1.91.77-3.08.77-1.04,0-1.97-.23-2.79-.68-.82-.46-1.46-1.08-1.93-1.88-.46-.8-.7-1.7-.7-2.7s.23-1.94.7-2.74c.46-.8,1.1-1.42,1.93-1.86.82-.44,1.76-.66,2.81-.66,1.61,0,2.99.57,4.13,1.71l1.75-1.71c-.7-.8-1.56-1.4-2.59-1.82-1.03-.41-2.17-.62-3.42-.62-1.54,0-2.93.33-4.16,1-1.23.66-2.2,1.58-2.9,2.75-.7,1.17-1.05,2.49-1.05,3.96s.35,2.79,1.05,3.96c.7,1.17,1.66,2.09,2.89,2.75,1.23.66,2.6,1,4.13,1,1.08,0,2.14-.16,3.17-.49,1.03-.33,1.93-.8,2.7-1.41v-5.97Z"/>
          <polygon class="cls-2" points="-1055.22 89.27 -1063.67 89.27 -1063.67 85.14 -1056.44 85.14 -1056.44 82.85 -1063.67 82.85 -1063.67 78.95 -1055.52 78.95 -1055.52 76.62 -1066.45 76.62 -1066.45 91.6 -1055.22 91.6 -1055.22 89.27"/>
          <polygon class="cls-2" points="-1049.36 81.46 -1041.1 91.6 -1038.81 91.6 -1038.81 76.62 -1041.57 76.62 -1041.57 86.76 -1049.83 76.62 -1052.12 76.62 -1052.12 91.6 -1049.36 91.6 -1049.36 81.46"/>
          <path class="cls-2" d="M-1023.99,77.55c-1.24-.62-2.66-.93-4.26-.93h-6.55v14.98h6.55c1.6,0,3.02-.31,4.26-.93s2.2-1.5,2.89-2.63c.68-1.13,1.03-2.44,1.03-3.93s-.34-2.79-1.03-3.93c-.68-1.13-1.65-2.01-2.89-2.63ZM-1023.55,86.82c-.45.78-1.09,1.38-1.93,1.8-.83.42-1.8.63-2.9.63h-3.64v-10.27h3.64c1.1,0,2.06.21,2.9.63.83.42,1.48,1.02,1.93,1.8.45.78.67,1.68.67,2.71s-.22,1.93-.67,2.71Z"/>
          <path class="cls-2" d="M-1015.11,88.13h7.49l1.5,3.47h2.91l-6.76-14.98h-2.74l-6.74,14.98h2.87l1.48-3.47ZM-1011.36,79.4l2.82,6.55h-5.63l2.8-6.55Z"/>
        </g>
        <g>
          <polygon class="cls-2" points="-1138.53 76.41 -1140.79 76.41 -1140.79 105.29 -1117.92 105.29 -1117.92 102.9 -1138.53 102.9 -1138.53 76.41"/>
          <g>
            <path class="cls-2" d="M-1136.14,76.41v24.19h18.3v-2.6c-1.63.96-3.53,1.52-5.56,1.52-6.07,0-11.01-4.94-11.01-11.01s4.94-11.01,11.01-11.01c2.03,0,3.92.56,5.56,1.52v-2.6h-18.3Z"/>
            <path class="cls-2" d="M-1120.2,94.02l-.69.69h0l-.69-.69c-.7-.7-1.63-1.09-2.63-1.09h-.8v-1.97h.8c1.21,0,2.36.38,3.32,1.07.89-.64,1.95-1,3.06-1.05v-1.83c-.89.06-1.73.42-2.37,1.06l-.69.69h0l-.69-.69c-.7-.7-1.63-1.09-2.63-1.09h-.8v-1.97h.8c1.21,0,2.36.38,3.32,1.07.89-.64,1.95-1,3.06-1.05v-1.83c-.89.06-1.73.42-2.37,1.06l-.69.69h0l-.69-.69c-.7-.7-1.63-1.09-2.63-1.09h-.8v-1.97h.8c1.21,0,2.36.38,3.32,1.07.89-.64,1.95-1,3.06-1.05v-1.43c-1.5-1.27-3.44-2.05-5.56-2.05-4.74,0-8.6,3.86-8.6,8.6s3.86,8.6,8.6,8.6c2.12,0,4.06-.77,5.56-2.05v-2.1c-.89.06-1.73.42-2.37,1.06Z"/>
          </g>
        </g>
        <g>
          <path class="cls-2" d="M-1107.16,98.83c.43-.24.91-.35,1.45-.35.83,0,1.53.31,2.1.92l.94-.89c-.37-.43-.82-.75-1.35-.98s-1.12-.34-1.76-.34c-.79,0-1.51.17-2.15.52-.64.35-1.15.83-1.51,1.44-.37.61-.55,1.31-.55,2.08s.18,1.47.54,2.08c.36.61.87,1.1,1.51,1.44.64.35,1.36.52,2.15.52.64,0,1.23-.11,1.77-.34.54-.22.99-.55,1.35-.98l-.94-.9c-.57.62-1.27.93-2.1.93-.54,0-1.02-.12-1.45-.35-.43-.24-.76-.56-1-.98-.24-.42-.36-.9-.36-1.43s.12-1.01.36-1.43c.24-.42.57-.75,1-.98Z"/>
          <path class="cls-2" d="M-1098.54,97.31l-3.54,7.87h1.51l.78-1.82h3.94l.79,1.82h1.53l-3.55-7.87h-1.44ZM-1099.3,102.21l1.47-3.44,1.48,3.44h-2.96Z"/>
          <polygon class="cls-2" points="-1084.34 97.31 -1087.41 102.52 -1090.54 97.31 -1091.74 97.31 -1091.74 105.18 -1090.35 105.18 -1090.35 100.03 -1087.76 104.28 -1087.11 104.28 -1084.52 99.96 -1084.51 105.18 -1083.13 105.18 -1083.14 97.31 -1084.34 97.31"/>
          <path class="cls-2" d="M-1076.31,97.64c-.51-.22-1.1-.34-1.78-.34h-3.24v7.87h1.46v-2.27h1.78c.68,0,1.28-.11,1.78-.34.51-.23.89-.55,1.16-.97.27-.42.4-.92.4-1.49s-.14-1.08-.4-1.5c-.27-.42-.66-.74-1.16-.97ZM-1076.7,101.26c-.33.27-.81.4-1.45.4h-1.71v-3.13h1.71c.64,0,1.12.13,1.45.4.33.27.49.66.49,1.16s-.16.89-.49,1.16Z"/>
          <path class="cls-2" d="M-1068.01,101.07c-.37-.15-.85-.29-1.44-.42-.43-.1-.76-.2-1.01-.28-.25-.08-.45-.19-.61-.34-.16-.14-.24-.33-.24-.55,0-.32.14-.58.42-.78s.71-.29,1.29-.29c.35,0,.72.05,1.09.16.37.1.73.26,1.08.46l.46-1.14c-.34-.22-.74-.4-1.2-.52-.46-.12-.94-.18-1.42-.18-.69,0-1.27.11-1.75.32-.48.21-.83.49-1.07.85-.24.36-.35.75-.35,1.19,0,.52.13.93.4,1.23.27.3.58.53.96.67.37.14.86.28,1.46.43.43.1.76.2,1.01.28.25.08.45.2.61.34.16.15.24.33.24.56,0,.31-.14.55-.43.74-.29.19-.73.28-1.31.28-.47,0-.94-.08-1.41-.24-.47-.16-.86-.37-1.19-.62l-.51,1.14c.33.28.78.51,1.34.69.57.17,1.15.26,1.76.26.69,0,1.27-.11,1.75-.32.48-.21.84-.49,1.07-.84.24-.35.35-.75.35-1.18,0-.51-.13-.91-.4-1.21-.27-.3-.59-.52-.96-.67Z"/>
        </g>
      </g>
      <g>
        <g>
          <polygon class="cls-2" points="-890.59 102.37 -900.99 102.37 -900.99 85.6 -904.69 85.6 -904.69 105.5 -890.59 105.5 -890.59 102.37"/>
          <polygon class="cls-2" points="-872.74 102.4 -883.97 102.4 -883.97 96.91 -874.36 96.91 -874.36 93.87 -883.97 93.87 -883.97 88.7 -873.14 88.7 -873.14 85.6 -887.66 85.6 -887.66 105.5 -872.74 105.5 -872.74 102.4"/>
          <path class="cls-2" d="M-851.62,95.32h-3.5v6.2c-1.18.68-2.54,1.02-4.09,1.02-1.38,0-2.62-.3-3.71-.91-1.09-.61-1.94-1.44-2.56-2.5-.62-1.06-.92-2.25-.92-3.58s.31-2.58.92-3.64c.62-1.06,1.47-1.89,2.56-2.47,1.09-.59,2.33-.88,3.74-.88,2.14,0,3.97.76,5.49,2.27l2.33-2.27c-.93-1.06-2.07-1.87-3.44-2.42-1.36-.55-2.88-.82-4.55-.82-2.05,0-3.89.44-5.53,1.32-1.64.88-2.92,2.1-3.85,3.65-.93,1.55-1.39,3.31-1.39,5.26s.46,3.71,1.39,5.26c.93,1.55,2.21,2.77,3.84,3.65,1.63.88,3.46,1.32,5.49,1.32,1.44,0,2.84-.22,4.21-.65,1.36-.44,2.56-1.06,3.58-1.88v-7.93Z"/>
          <polygon class="cls-2" points="-831.84 102.4 -843.06 102.4 -843.06 96.91 -833.46 96.91 -833.46 93.87 -843.06 93.87 -843.06 88.7 -832.23 88.7 -832.23 85.6 -846.76 85.6 -846.76 105.5 -831.84 105.5 -831.84 102.4"/>
          <polygon class="cls-2" points="-824.05 92.02 -813.08 105.5 -810.03 105.5 -810.03 85.6 -813.7 85.6 -813.7 99.07 -824.67 85.6 -827.71 85.6 -827.71 105.5 -824.05 105.5 -824.05 92.02"/>
          <path class="cls-2" d="M-790.34,86.84c-1.65-.82-3.53-1.24-5.66-1.24h-8.7v19.9h8.7c2.12,0,4.01-.41,5.66-1.24s2.93-1.99,3.84-3.5c.91-1.51,1.36-3.25,1.36-5.22s-.45-3.71-1.36-5.22c-.91-1.51-2.19-2.67-3.84-3.5ZM-789.75,99.14c-.6,1.03-1.45,1.83-2.56,2.39-1.11.56-2.39.84-3.85.84h-4.83v-13.64h4.83c1.46,0,2.74.28,3.85.84,1.11.56,1.96,1.35,2.56,2.39.6,1.03.9,2.23.9,3.6s-.3,2.56-.9,3.6Z"/>
          <path class="cls-2" d="M-778.54,100.89h9.95l1.99,4.6h3.87l-8.98-19.9h-3.64l-8.95,19.9h3.81l1.96-4.6ZM-773.56,89.3l3.75,8.7h-7.48l3.72-8.7Z"/>
        </g>
        <g>
          <polygon class="cls-2" points="-842.04 49.77 -844.08 49.77 -844.08 75.87 -823.41 75.87 -823.41 73.71 -842.04 73.71 -842.04 49.77"/>
          <g>
            <path class="cls-2" d="M-839.88,49.77v21.86h16.54v-2.35c-1.48.87-3.19,1.37-5.02,1.37-5.49,0-9.95-4.46-9.95-9.95s4.46-9.95,9.95-9.95c1.83,0,3.55.51,5.02,1.37v-2.35h-16.54Z"/>
            <path class="cls-2" d="M-825.48,65.68l-.63.63h0l-.63-.63c-.63-.63-1.48-.98-2.37-.98h-.73v-1.78h.73c1.09,0,2.13.34,3,.97.81-.58,1.76-.9,2.77-.95v-1.65c-.81.06-1.56.38-2.14.96l-.63.63h0l-.63-.63c-.63-.63-1.48-.98-2.37-.98h-.73v-1.78h.73c1.09,0,2.13.34,3,.97.81-.58,1.76-.9,2.77-.95v-1.65c-.81.06-1.56.38-2.14.96l-.63.63h0l-.63-.63c-.63-.63-1.48-.98-2.37-.98h-.73v-1.78h.73c1.09,0,2.13.34,3,.97.81-.58,1.76-.9,2.77-.95v-1.29c-1.36-1.15-3.11-1.85-5.02-1.85-4.29,0-7.77,3.49-7.77,7.77s3.49,7.77,7.77,7.77c1.91,0,3.67-.7,5.02-1.85v-1.9c-.81.06-1.56.38-2.14.96Z"/>
          </g>
        </g>
        <g>
          <path class="cls-2" d="M-856,116.64c.51-.28,1.08-.42,1.72-.42.98,0,1.81.36,2.49,1.09l1.12-1.05c-.43-.51-.97-.89-1.6-1.16s-1.33-.4-2.09-.4c-.94,0-1.79.21-2.55.62-.76.41-1.35.98-1.79,1.71-.43.73-.65,1.55-.65,2.46s.21,1.73.64,2.46c.43.73,1.02,1.3,1.78,1.71.76.41,1.61.62,2.55.62.76,0,1.46-.13,2.09-.4.63-.27,1.17-.65,1.6-1.16l-1.12-1.06c-.67.74-1.5,1.1-2.49,1.1-.64,0-1.21-.14-1.72-.42-.51-.28-.9-.67-1.18-1.16-.28-.5-.43-1.06-.43-1.69s.14-1.19.43-1.69c.28-.5.68-.88,1.18-1.16Z"/>
          <path class="cls-2" d="M-845.8,114.84l-4.19,9.31h1.78l.92-2.15h4.65l.93,2.15h1.81l-4.2-9.31h-1.7ZM-846.7,120.64l1.74-4.07,1.76,4.07h-3.5Z"/>
          <polygon class="cls-2" points="-829.01 114.84 -832.64 121.01 -836.34 114.84 -837.76 114.84 -837.76 124.15 -836.11 124.15 -836.11 118.06 -833.05 123.09 -832.28 123.09 -829.22 117.98 -829.21 124.15 -827.57 124.15 -827.59 114.84 -829.01 114.84"/>
          <path class="cls-2" d="M-819.5,115.24c-.6-.27-1.3-.4-2.11-.4h-3.83v9.31h1.73v-2.69h2.1c.81,0,1.51-.13,2.11-.4.6-.27,1.06-.65,1.38-1.15.32-.5.48-1.09.48-1.76s-.16-1.27-.48-1.77c-.32-.5-.78-.88-1.38-1.14ZM-819.97,119.52c-.39.32-.96.48-1.72.48h-2.02v-3.7h2.02c.75,0,1.33.16,1.72.48.39.32.59.78.59,1.37s-.2,1.05-.59,1.37Z"/>
          <path class="cls-2" d="M-809.69,119.29c-.44-.17-1.01-.34-1.7-.5-.51-.12-.9-.23-1.2-.33-.29-.1-.53-.23-.72-.4-.19-.17-.29-.39-.29-.65,0-.38.17-.69.5-.92s.84-.35,1.52-.35c.42,0,.85.06,1.29.19.44.12.87.31,1.28.55l.54-1.34c-.4-.27-.87-.47-1.42-.61-.55-.14-1.11-.21-1.68-.21-.82,0-1.51.12-2.07.37-.56.25-.98.58-1.26,1-.28.42-.42.89-.42,1.4,0,.61.16,1.1.47,1.46.31.36.69.62,1.13.79.44.17,1.01.34,1.72.51.51.12.9.23,1.2.33.29.1.53.23.72.41.19.17.29.39.29.66,0,.36-.17.66-.51.88-.34.22-.86.33-1.55.33-.56,0-1.12-.1-1.67-.29-.55-.19-1.02-.44-1.4-.74l-.6,1.34c.39.34.92.61,1.59.81.67.2,1.36.31,2.08.31.82,0,1.51-.13,2.07-.37.57-.25.99-.58,1.27-1,.28-.42.42-.88.42-1.4,0-.6-.16-1.08-.47-1.44-.31-.35-.69-.62-1.14-.79Z"/>
        </g>
      </g>
    </g>
  </g>
</svg>