<svg width="61" height="61" viewBox="0 0 61 61" fill="none" xmlns="http://www.w3.org/2000/svg">
<g clip-path="url(#clip0_40_80)">
<path d="M13.625 18.4192C16.4727 18.4192 18.7812 16.1107 18.7812 13.2629C18.7812 10.4152 16.4727 8.10669 13.625 8.10669C10.7773 8.10669 8.46875 10.4152 8.46875 13.2629C8.46875 16.1107 10.7773 18.4192 13.625 18.4192Z" fill="#00577A"/>
<path d="M13.625 7.16919C13.998 7.16919 14.3556 7.02103 14.6194 6.75731C14.8831 6.49359 15.0312 6.1359 15.0312 5.76294V3.88794C15.0312 3.51498 14.8831 3.15729 14.6194 2.89357C14.3556 2.62985 13.998 2.48169 13.625 2.48169C13.252 2.48169 12.8944 2.62985 12.6306 2.89357C12.3669 3.15729 12.2188 3.51498 12.2188 3.88794V5.76294C12.2188 6.1359 12.3669 6.49359 12.6306 6.75731C12.8944 7.02103 13.252 7.16919 13.625 7.16919ZM18.9283 9.36587C19.113 9.36613 19.296 9.32987 19.4666 9.25918C19.6373 9.18849 19.7922 9.08476 19.9227 8.95396L21.2485 7.62821C21.3791 7.49763 21.4827 7.3426 21.5534 7.17198C21.624 7.00136 21.6604 6.81849 21.6604 6.63382C21.6604 6.44914 21.624 6.26627 21.5534 6.09566C21.4827 5.92504 21.3791 5.77001 21.2485 5.63942C21.1179 5.50884 20.9629 5.40525 20.7923 5.33458C20.6217 5.26391 20.4388 5.22753 20.2541 5.22753C19.8812 5.22753 19.5235 5.37569 19.2597 5.63942L17.934 6.96528C17.7373 7.16195 17.6034 7.41251 17.5492 7.68529C17.4949 7.95807 17.5227 8.24081 17.6292 8.49776C17.7356 8.75471 17.9158 8.97433 18.1471 9.12885C18.3783 9.28337 18.6502 9.36586 18.9283 9.36587ZM19.7188 13.2629C19.7188 13.6359 19.8669 13.9936 20.1306 14.2573C20.3944 14.521 20.752 14.6692 21.125 14.6692H23C23.373 14.6692 23.7306 14.521 23.9944 14.2573C24.2581 13.9936 24.4062 13.6359 24.4062 13.2629C24.4062 12.89 24.2581 12.5323 23.9944 12.2686C23.7306 12.0048 23.373 11.8567 23 11.8567H21.125C20.752 11.8567 20.3944 12.0048 20.1306 12.2686C19.8669 12.5323 19.7188 12.89 19.7188 13.2629ZM17.934 17.5719C17.6703 17.8356 17.5221 18.1933 17.5221 18.5663C17.5221 18.9392 17.6703 19.2969 17.934 19.5606L19.2597 20.8865C19.5235 21.1502 19.8812 21.2983 20.2541 21.2983C20.6271 21.2983 20.9848 21.1502 21.2485 20.8865C21.5122 20.6227 21.6604 20.265 21.6604 19.8921C21.6604 19.5191 21.5122 19.1614 21.2485 18.8977L19.9227 17.5719C19.6589 17.3082 19.3013 17.1601 18.9283 17.1601C18.5554 17.1601 18.1977 17.3082 17.934 17.5719ZM12.2188 20.7629V22.6379C12.2188 23.0109 12.3669 23.3686 12.6306 23.6323C12.8944 23.896 13.252 24.0442 13.625 24.0442C13.998 24.0442 14.3556 23.896 14.6194 23.6323C14.8831 23.3686 15.0312 23.0109 15.0312 22.6379V20.7629C15.0312 20.39 14.8831 20.0323 14.6194 19.7686C14.3556 19.5048 13.998 19.3567 13.625 19.3567C13.252 19.3567 12.8944 19.5048 12.6306 19.7686C12.3669 20.0323 12.2188 20.39 12.2188 20.7629ZM7.32734 17.5719L6.00148 18.8977C5.73775 19.1614 5.58959 19.5191 5.58959 19.8921C5.58959 20.265 5.73775 20.6227 6.00148 20.8865C6.26521 21.1502 6.62291 21.2983 6.99588 21.2983C7.36885 21.2983 7.72654 21.1502 7.99027 20.8865L9.31602 19.5606C9.44834 19.4304 9.55359 19.2753 9.62567 19.1042C9.69776 18.9332 9.73526 18.7495 9.73602 18.5639C9.73677 18.3783 9.70077 18.1943 9.63008 18.0227C9.55939 17.851 9.45541 17.6951 9.32415 17.5638C9.19288 17.4325 9.03693 17.3286 8.86528 17.2579C8.69363 17.1872 8.50968 17.1512 8.32405 17.1519C8.13842 17.1527 7.95477 17.1902 7.7837 17.2623C7.61264 17.3344 7.45753 17.4396 7.32734 17.5719ZM4.25 14.6692H6.125C6.49796 14.6692 6.85565 14.521 7.11937 14.2573C7.38309 13.9936 7.53125 13.6359 7.53125 13.2629C7.53125 12.89 7.38309 12.5323 7.11937 12.2686C6.85565 12.0048 6.49796 11.8567 6.125 11.8567H4.25C3.87704 11.8567 3.51935 12.0048 3.25563 12.2686C2.99191 12.5323 2.84375 12.89 2.84375 13.2629C2.84375 13.6359 2.99191 13.9936 3.25563 14.2573C3.51935 14.521 3.87704 14.6692 4.25 14.6692ZM7.32734 8.95396C7.45753 9.08628 7.61264 9.19153 7.7837 9.26361C7.95477 9.3357 8.13842 9.3732 8.32405 9.37396C8.50968 9.37471 8.69363 9.33871 8.86528 9.26802C9.03693 9.19733 9.19288 9.09335 9.32415 8.96209C9.45541 8.83082 9.55939 8.67487 9.63008 8.50322C9.70077 8.33157 9.73677 8.14762 9.73602 7.96199C9.73526 7.77636 9.69776 7.59271 9.62567 7.42164C9.55359 7.25058 9.44834 7.09547 9.31602 6.96528L7.99027 5.63942C7.85969 5.50884 7.70466 5.40525 7.53404 5.33458C7.36342 5.26391 7.18055 5.22753 6.99588 5.22753C6.8112 5.22753 6.62833 5.26391 6.45772 5.33458C6.2871 5.40525 6.13207 5.50884 6.00148 5.63942C5.73775 5.90315 5.58959 6.26085 5.58959 6.63382C5.58959 7.00679 5.73775 7.36448 6.00148 7.62821L7.32734 8.95396ZM0.96875 54.5129C0.96875 54.8859 1.11691 55.2436 1.38063 55.5073C1.64435 55.771 2.00204 55.9192 2.375 55.9192H58.625C58.998 55.9192 59.3556 55.771 59.6194 55.5073C59.8831 55.2436 60.0312 54.8859 60.0312 54.5129V48.6536H0.96875V54.5129ZM59.723 31.134L52.223 21.759C52.0995 21.6046 51.9448 21.478 51.7689 21.3874C51.5931 21.2969 51.4002 21.2444 51.2027 21.2335C51.0053 21.2226 50.8077 21.2534 50.623 21.324C50.4383 21.3946 50.2705 21.5034 50.1307 21.6433L45.5 26.2742L33.3693 14.1436C33.2256 13.9999 33.0525 13.8891 32.8619 13.8187C32.6712 13.7483 32.4676 13.7201 32.265 13.736C32.0624 13.7519 31.8656 13.8115 31.6883 13.9108C31.511 14.01 31.3572 14.1465 31.2377 14.3108L20.5214 29.0458C21.5374 29.5696 22.4342 30.7474 23.1982 32.5669C23.9095 34.2607 24.4062 36.3461 24.4062 37.6379C24.4047 38.7598 24.0379 39.8506 23.3613 40.7454C22.6847 41.6402 21.7352 42.2904 20.6562 42.5977V47.0129C20.6558 47.0915 20.6487 47.1699 20.6352 47.2473H29.1148C29.1013 47.1699 29.0942 47.0915 29.0938 47.0129V42.5977C28.0148 42.2904 27.0653 41.6402 26.3887 40.7454C25.7121 39.8506 25.3453 38.7598 25.3438 37.6379C25.3438 36.3461 25.8405 34.2607 26.5518 32.5669C27.6204 30.022 28.9488 28.7317 30.5 28.7317C32.0512 28.7317 33.3797 30.022 34.4482 32.5669C35.1595 34.2607 35.6562 36.3461 35.6562 37.6379C35.6547 38.7598 35.2879 39.8506 34.6113 40.7454C33.9347 41.6402 32.9852 42.2904 31.9062 42.5977V47.0129C31.9058 47.0915 31.8987 47.1699 31.8852 47.2473H40.3648C40.3513 47.1699 40.3442 47.0915 40.3438 47.0129V42.5977C39.2648 42.2904 38.3153 41.6402 37.6387 40.7454C36.9621 39.8506 36.5953 38.7598 36.5938 37.6379C36.5938 36.3461 37.0905 34.2607 37.8018 32.5669C38.8703 30.022 40.1988 28.7317 41.75 28.7317C43.3012 28.7317 44.6297 30.022 45.6982 32.5669C46.4095 34.2607 46.9062 36.3461 46.9062 37.6379C46.9047 38.7598 46.5379 39.8506 45.8613 40.7454C45.1847 41.6402 44.2352 42.2904 43.1562 42.5977V47.0129C43.1558 47.0915 43.1487 47.1699 43.1352 47.2473H60.0312V32.0129C60.0313 31.6935 59.9226 31.3835 59.723 31.134ZM17.8438 47.0129V42.5977C16.7648 42.2904 15.8153 41.6402 15.1387 40.7454C14.4621 39.8506 14.0953 38.7598 14.0938 37.6379C14.0938 36.3461 14.5905 34.2607 15.3018 32.5669C15.3864 32.3654 15.4756 32.1659 15.5694 31.9685L12.7443 29.1436C12.6033 29.0026 12.434 28.8932 12.2475 28.8226C12.061 28.7521 11.8616 28.722 11.6626 28.7344C11.4635 28.7468 11.2694 28.8014 11.0931 28.8945C10.9168 28.9876 10.7623 29.1172 10.6399 29.2746L1.26488 41.3282C1.073 41.5751 0.968812 41.8788 0.96875 42.1915V47.2473H17.8648C17.8513 47.1699 17.8442 47.0915 17.8438 47.0129Z" fill="#00577A"/>
</g>
<defs>
<clipPath id="clip0_40_80">
<rect width="60" height="60" fill="white" transform="translate(0.5 0.137939)"/>
</clipPath>
</defs>
</svg>
