<svg width="18" height="21" viewBox="0 0 18 21" xmlns="http://www.w3.org/2000/svg">
    <g clip-path="url(#clip0_166_9)">
        <path d="M15.0075 0H7.50757C5.85007 0 4.50757 1.3425 4.50757 3V6.75C4.50757 7.1625 4.84507 7.5 5.25757 7.5C5.67007 7.5 6.00757 7.1625 6.00757 6.75V3C6.00757 2.175 6.68257 1.5 7.50757 1.5V2.25C7.50757 3.4875 8.52007 4.5 9.75757 4.5H12.7575C13.995 4.5 15.0075 3.4875 15.0075 2.25V1.5C15.8325 1.5 16.5075 2.175 16.5075 3V18C16.5075 18.825 15.8325 19.5 15.0075 19.5H14.2575C13.845 19.5 13.5075 19.8375 13.5075 20.25C13.5075 20.6625 13.845 21 14.2575 21H15.0075C16.665 21 18.0075 19.6575 18.0075 18V3C18.0075 1.3425 16.665 0 15.0075 0ZM13.5075 2.25C13.5075 2.6625 13.17 3 12.7575 3H9.75757C9.34507 3 9.00757 2.6625 9.00757 2.25V1.5H13.5075V2.25Z" fill="currentColor"/>
    </g>
    <defs>
        <clipPath id="clip0_166_9">
            <rect width="18" height="21" fill="currentColor"/>
        </clipPath>
    </defs>
</svg>