<svg width="60" height="61" viewBox="0 0 60 61" fill="none" xmlns="http://www.w3.org/2000/svg">
<path d="M58.6332 31.3712H44.7332L41.0999 18.7046H34.7332L38.3666 31.3712H21.6999L25.3332 18.7046H18.9999L15.3666 31.3712H1.4999C0.899902 31.3712 0.399902 31.8712 0.399902 32.4712V35.0712C0.399902 35.6712 0.899902 36.1712 1.4999 36.1712H13.9666L10.6999 47.6046C10.4332 48.5046 11.0999 49.3712 12.0332 49.3712H15.4999C16.1332 49.3712 16.6666 48.9712 16.8332 48.3712L20.3332 36.2046H39.7332L43.2332 48.4046C43.3999 49.0046 43.9332 49.4046 44.5666 49.4046H48.0332C48.9666 49.4046 49.6332 48.5046 49.3666 47.6379L46.0999 36.2046H58.6332C59.2332 36.2046 59.7332 35.7046 59.7332 35.1046V32.4712C59.7332 31.8712 59.2332 31.3712 58.6332 31.3712ZM12.9666 16.8046H47.1666C48.8332 16.8046 50.1999 15.4379 50.1999 13.7712C50.1999 12.1046 48.8332 10.7379 47.1666 10.7379H12.9666C11.2999 10.7379 9.93324 12.1046 9.93324 13.7712C9.93324 15.4712 11.2999 16.8046 12.9666 16.8046Z" fill="#00577A"/>
<path d="M46.5332 26.1713V28.1713C46.5332 28.7046 46.9666 29.1713 47.5332 29.1713H58.6332C59.1666 29.1713 59.6332 28.7379 59.6332 28.1713V26.1713C59.6332 25.6379 59.1999 25.1713 58.6332 25.1713H47.5332C46.9666 25.1713 46.5332 25.6046 46.5332 26.1713ZM1.4999 29.1713H12.3666C12.9666 29.1713 13.4666 28.6713 13.4666 28.0713V26.3046C13.4666 25.7046 12.9666 25.2046 12.3666 25.2046H1.4999C0.899902 25.2046 0.399902 25.7046 0.399902 26.3046V28.0713C0.399902 28.6713 0.899902 29.1713 1.4999 29.1713Z" fill="#00577A"/>
</svg>
