<svg width="24" height="24" viewBox="0 0 24 24" fill="none" xmlns="http://www.w3.org/2000/svg">
<g clip-path="url(#clip0_364_520)">
<path d="M12 24C18.6274 24 24 18.6274 24 12C24 5.37258 18.6274 0 12 0C5.37258 0 0 5.37258 0 12C0 18.6274 5.37258 24 12 24Z" fill="url(#paint0_linear_364_520)"/>
<path fill-rule="evenodd" clip-rule="evenodd" d="M5.43203 11.8733C8.93026 10.3492 11.263 9.34438 12.4301 8.85894C15.7627 7.47285 16.4552 7.23205 16.9065 7.22408C17.0057 7.22235 17.2277 7.24696 17.3715 7.36363C17.5847 7.53669 17.586 7.91235 17.5623 8.16097C17.3817 10.0585 16.6003 14.6631 16.2027 16.7884C16.0345 17.6876 15.7033 17.9892 15.3827 18.0186C14.6858 18.0828 14.1566 17.5581 13.4817 17.1157C12.4255 16.4233 11.8289 15.9924 10.8037 15.3168C9.6189 14.5361 10.3869 14.107 11.0621 13.4057C11.2389 13.2222 14.3092 10.4294 14.3687 10.176C14.3761 10.1443 14.383 10.0262 14.3128 9.96388C14.2427 9.90154 14.1391 9.92282 14.0644 9.93979C13.9584 9.96383 12.2712 11.079 9.00273 13.2853C8.52381 13.6142 8.09003 13.7744 7.70139 13.7661C7.2729 13.7568 6.44875 13.5238 5.83604 13.3246C5.08454 13.0804 4.48726 12.9512 4.53929 12.5363C4.56639 12.3202 4.86395 12.0992 5.43203 11.8733Z" fill="white"/>
</g>
<defs>
<linearGradient id="paint0_linear_364_520" x1="12" y1="0" x2="12" y2="23.8125" gradientUnits="userSpaceOnUse">
<stop stop-color="#41553C"/>
<stop offset="1" stop-color="#2A3928"/>
</linearGradient>
<clipPath id="clip0_364_520">
<rect width="24" height="24" fill="white"/>
</clipPath>
</defs>
</svg>
