<svg xmlns="http://www.w3.org/2000/svg" version="1.1" xmlns:xlink="http://www.w3.org/1999/xlink" width="529" height="529"><svg xmlns="http://www.w3.org/2000/svg" version="1.1" xmlns:xlink="http://www.w3.org/1999/xlink" width="529" height="529"><svg width="529" height="529" viewBox="0 0 529 529" fill="none" xmlns="http://www.w3.org/2000/svg">
<path d="M264.5 0C410.579 0 529 118.421 529 264.5C529 410.579 410.579 529 264.5 529C118.421 529 0 410.579 0 264.5C0 118.421 118.421 0.000239213 264.5 0Z" fill="#2A3827"></path>
<path d="M277.549 322.974C276.6 326.154 272.946 327.198 264.261 325.299C257.759 323.876 253.535 320.553 254.342 317.279C255.576 312.343 261.128 312.296 267.488 314.194C273.847 316.092 278.498 319.747 277.549 322.974Z" fill="#BDAD84"></path>
<path d="M271.477 333.84C270.527 337.02 265.307 340.01 257.144 336.451C234.933 326.721 218.655 332.084 219.461 328.857C220.695 323.921 248.317 325.82 258.046 325.725C264.69 325.677 272.378 330.661 271.429 333.84H271.477Z" fill="#BDAD84"></path>
<path d="M333.125 196.399C329.993 198.203 328.664 200.765 328.237 201.572C321.498 214.054 314.711 226.488 320.786 241.533C322.542 245.946 324.298 250.692 322.305 255.676C319.932 261.703 315.044 263.744 309.111 263.696C299.05 263.601 290.697 259.14 283.151 252.923C272.71 244.333 261.889 236.692 249.028 231.804C227.386 223.641 209.399 234.129 199.86 251.452C187.9 273.188 195.731 306.457 223.447 315.759C229.095 317.657 234.648 319.793 240.248 322.688C237.305 323.21 234.363 324.207 231.42 324.207C227.813 324.207 224.302 324.871 220.837 325.536C213.101 327.102 205.84 326.627 198.626 323.068C194.07 320.837 188.897 320.457 183.866 321.691C177.127 323.305 175.229 329.095 179.405 334.695C182.87 339.299 188.138 340.058 193.121 341.15C197.535 342.099 202.138 342.241 206.599 342.811C208.023 343 209.779 343.095 209.969 344.946C210.111 346.702 208.545 347.367 207.169 347.841C188.944 354.201 163.981 350.499 152.353 332.417C146.184 322.83 149.269 313.339 160.042 309.494C163.269 308.355 166.686 307.976 170.103 307.881C171.907 307.833 173.663 307.881 175.466 307.786C186.382 307.406 192.884 304.796 188.185 290.938C177.886 260.327 204.843 226.156 229.759 220.651C239.014 218.61 247.699 219.891 256.289 223.783C265.876 228.102 275.035 233.417 284.907 237.072C286.141 237.499 287.327 238.021 288.561 238.4C300.046 241.58 304.223 239.682 309.965 229.241C314.094 221.647 316.799 213.484 320.169 205.606C327.715 187.999 352.299 183.775 368.388 193.741C370.238 194.88 370.713 196.399 369.811 198.297C369.147 199.769 368.435 201.24 367.533 202.569C363.926 207.932 363.974 207.837 359.94 203.138C355.052 197.396 348.692 194.548 341.146 194.501C338.488 194.501 336.115 194.738 333.125 196.447V196.399Z" fill="#BDAD84"></path>
<path d="M369.239 244.523C364.92 253.54 360.317 262.178 357.137 271.527C355.618 276.036 354.099 280.639 354.811 285.29C356.283 294.592 353.815 303.42 351.869 312.152C350.635 317.658 351.632 321.549 355.571 325.204C358.371 327.814 360.364 330.946 359.415 335.123C358.988 337.021 358.039 338.397 355.95 338.635C349.638 339.346 342.709 334.933 340.953 328.716C340.004 325.441 339.577 322.071 338.865 318.749C338.533 317.183 338.153 315.569 337.536 314.098C336.113 310.681 334.784 306.789 330.133 306.932C326.716 307.027 321.685 312.817 321.732 316.566C321.78 324.444 321.163 332.655 329.658 337.59C331.936 338.919 333.502 341.53 332.173 344.282C330.939 346.892 328.234 347.415 325.482 347.177C315.847 346.37 309.251 339.963 308.207 330.377C307.922 327.814 307.827 325.204 307.59 322.641C306.451 310.207 300.423 304.559 287.799 303.894C278.782 303.42 269.527 303.8 261.032 299.955C247.886 294.023 237.445 284.721 228.617 273.473C228.238 272.951 227.906 272.382 227.621 271.812C227.431 271.385 227.336 270.91 227.241 270.436C228.57 269.107 229.377 270.436 230.136 271.005C237.255 276.368 244.801 281.114 252.537 285.575C264.497 292.409 277.311 293.643 290.647 291.365C295.677 290.511 297.908 287.616 297.386 282.49C297.101 279.928 296.864 277.317 296.816 274.755C296.721 270.341 299.142 268.68 303.034 270.721C310.2 274.517 315.325 280.26 317.271 288.328C318.363 292.789 320.688 296.301 324.01 299.338C327.048 302.138 330.512 303.705 334.641 301.996C338.818 300.288 340.953 297.06 340.953 292.504C340.953 289.894 341.048 287.331 340.906 284.721C340.526 278.124 342.472 272.192 345.889 266.734C351.774 257.384 361.029 251.5 369.286 244.476L369.239 244.523Z" fill="#BDAD84"></path>
<path d="M356.522 233.893C359.56 234.035 362.502 234.367 365.445 234.272C367.248 234.225 370.001 234.415 369.669 231.282C369.384 228.625 369.526 227.343 373.086 227.676C374.699 227.818 376.977 227.676 377.404 229.526C377.499 230.001 375.601 230.903 375.601 231.377C375.554 232.896 378.638 232.896 375.174 235.269C370.997 238.117 360.936 237.452 356.522 233.893Z" fill="#BDAD84"></path>
<path d="M377.308 198.678C380.82 198.678 382.908 200.244 382.623 203.993C382.481 206.366 382.623 209.166 379.443 209.783C377.355 210.163 373.511 204.847 373.416 201.81C373.368 199.01 375.267 198.773 377.308 198.725V198.678Z" fill="#BDAD84"></path>
<path d="M335.737 197.205C338.205 197.205 342.334 198.154 342.713 199.483C343.046 200.622 338.015 201.097 337.018 209.402C336.781 211.3 330.849 204.798 330.801 202.046C330.754 199.53 331.94 197.015 335.784 197.205H335.737Z" fill="#BDAD84"></path>
<path d="M353.533 219.039C351.872 219.181 350.496 218.659 350.686 216.761C350.923 214.198 352.869 213.391 355.099 213.249C357.14 213.106 358.611 213.96 358.896 216.096C359.086 217.757 356.76 218.991 353.533 219.039Z" fill="#BDAD84"></path>
<path d="M375.695 214.387C377.403 214.53 378.068 215.479 378.068 216.95C378.068 218.089 377.545 218.896 376.359 218.706C374.983 218.516 374.081 217.52 374.033 216.096C373.986 214.957 374.698 214.387 375.695 214.387Z" fill="#BDAD84"></path>
<path d="M384.104 345.699C376.361 360.647 365.767 372.976 352.227 382.688C327.809 400.253 299.638 409.013 267.809 409.013C249.234 409.013 231.419 405.871 214.459 399.635C197.452 393.399 182.345 384.449 169.043 372.881C155.742 361.313 145.148 346.366 137.167 327.991C129.186 309.615 125.242 289.288 125.242 266.915C125.242 222.5 139.304 187.416 167.476 161.757C195.599 136.099 229.044 123.531 267.809 124.055C298.593 124.055 326.194 132.481 350.66 149.38C362.536 157.568 372.228 167.613 379.734 179.514H425.387C415.031 153.236 398.499 132.243 375.743 116.486C344.436 94.826 309.092 84.0199 269.614 84.0199C219.97 83.3534 177.119 99.4436 141.062 132.338C105.005 165.232 87 210.123 87 267.057C87 295.667 92.0832 321.754 102.297 345.271C112.511 368.787 126.098 387.972 143.105 402.776C160.112 417.581 179.495 429.006 201.253 437.004C223.01 445.001 245.813 449 269.614 449C310.422 449 346.479 437.765 377.786 415.249C401.396 398.254 418.166 375.071 428 345.652H384.104V345.699Z" fill="#BDAD84"></path>
</svg></svg><style>@media (prefers-color-scheme: light) { :root { filter: none; } }
@media (prefers-color-scheme: dark) { :root { filter: none; } }
</style></svg>